SplineFontDB: 3.0
FontName: KAN-KaveriBold
FullName: KAN Kaveri Bold
FamilyName: KAN Kaveri
Weight: Bold
Copyright: Copyright (c) 2009-2015, NLCI (http://www.nlci.in/fonts/)
Version: 1.0 Wed May 17 15:35:12 1995
ItalicAngle: 0
UnderlinePosition: -290
UnderlineWidth: 20
Ascent: 800
Descent: 200
InvalidEm: 0
LayerCount: 2
Layer: 0 1 "Back" 1
Layer: 1 1 "Fore" 0
XUID: [1021 983 496268599 8370529]
FSType: 0
OS2Version: 0
OS2_WeightWidthSlopeOnly: 0
OS2_UseTypoMetrics: 1
CreationTime: 1250825684
ModificationTime: 1491624279
PfmFamily: 81
TTFWeight: 700
TTFWidth: 5
LineGap: 0
VLineGap: 0
Panose: 5 0 0 0 0 0 0 0 0 0
OS2TypoAscent: -72
OS2TypoAOffset: 1
OS2TypoDescent: -196
OS2TypoDOffset: 1
OS2TypoLinegap: 0
OS2WinAscent: -229
OS2WinAOffset: 1
OS2WinDescent: -103
OS2WinDOffset: 1
HheadAscent: -229
HheadAOffset: 1
HheadDescent: 103
HheadDOffset: 1
OS2SubXSize: 700
OS2SubYSize: 650
OS2SubXOff: 0
OS2SubYOff: 143
OS2SupXSize: 700
OS2SupYSize: 650
OS2SupXOff: 0
OS2SupYOff: 453
OS2StrikeYSize: 50
OS2StrikeYPos: 259
OS2Vendor: 'Alts'
OS2UnicodeRanges: 00000000.00000000.00000000.00000000
Lookup: 262 0 0 "blwm" { "blwm-2sub"  } []
MarkAttachClasses: 1
DEI: 91125
TtTable: prep
NPUSHB
 1
 1
SCANTYPE
PUSHW_1
 511
SCANCTRL
EndTTInstrs
ShortTable: maxp 16
  1
  0
  319
  188
  5
  167
  6
  2
  8
  64
  10
  0
  3
  417
  4
  2
EndShort
LangName: 1033 "" "" "Bold" "NLCI:KAN Kaveri Bold" "" "1.0 Wed May 17 15:35:12 1995"
Encoding: Original
Compacted: 1
UnicodeInterp: none
NameList: Adobe Glyph List
DisplaySize: -48
AntiAlias: 1
FitToEm: 1
WinInfo: 0 37 14
BeginPrivate: 0
EndPrivate
AnchorClass2: "Sub" "blwm-2sub" "Nukta"""  "s"""  "V""" 
BeginChars: 572 313

StartChar: .notdef
Encoding: 0 -1 0
Width: 500
Flags: W
LayerCount: 2
Fore
SplineSet
31 0 m 1,0,-1
 31 604 l 1,1,-1
 469 604 l 1,2,-1
 469 0 l 1,3,-1
 31 0 l 1,0,-1
438 31 m 1,4,-1
 438 573 l 1,5,-1
 62 573 l 1,6,-1
 62 31 l 1,7,-1
 438 31 l 1,4,-1
EndSplineSet
EndChar

StartChar: exclam
Encoding: 4 33 4
Width: 348
VWidth: 500
Flags: W
LayerCount: 2
Fore
SplineSet
203 213 m 0,0,-1
 147.5 213 l 0,1,-1
 91 620.5 l 0,2,3
 91 642 91 642 97.75 657.75 c 0,4,5
 104.5 673.5 104.5 673.5 115.75 683.5 c 0,6,7
 127 693.5 127 693.5 142.25 698.5 c 0,8,9
 157.5 703.5 157.5 703.5 175 703.5 c 0,10,11
 192 703.5 192 703.5 207.25 698.75 c 0,12,13
 222.5 694 222.5 694 233.75 684 c 0,14,15
 245 674 245 674 251.5 658.25 c 0,16,17
 258 642.5 258 642.5 258 620.5 c 0,18,-1
 203 213 l 0,0,-1
257 71.5 m 0,19,20
 257 54 257 54 250.25 38.5 c 0,21,22
 243.5 23 243.5 23 232.25 11.75 c 0,23,24
 221 0.5 221 0.5 206.25 -6 c 0,25,26
 191.5 -12.5 191.5 -12.5 175 -12.5 c 0,27,28
 162.5 -12.5 162.5 -12.5 148 -7.75 c 0,29,30
 133.5 -3 133.5 -3 121 7 c 0,31,32
 108.5 17 108.5 17 100.25 33 c 0,33,34
 92 49 92 49 92 71.5 c 0,35,36
 92 91.5 92 91.5 99.5 106.75 c 0,37,38
 107 122 107 122 119 132 c 0,39,40
 131 142 131 142 145.75 147.25 c 0,41,42
 160.5 152.5 160.5 152.5 175 152.5 c 0,43,44
 189 152.5 189 152.5 203.75 147 c 0,45,46
 218.5 141.5 218.5 141.5 230.25 131 c 0,47,48
 242 120.5 242 120.5 249.5 105.5 c 0,49,50
 257 90.5 257 90.5 257 71.5 c 0,19,20
EndSplineSet
EndChar

StartChar: quotedbl
Encoding: 5 34 5
Width: 401
VWidth: 500
Flags: W
LayerCount: 2
Fore
SplineSet
281.5 427 m 0,0,-1
 241.5 666.5 l 0,1,2
 241.5 695 241.5 695 255.25 713 c 0,3,4
 269 731 269 731 300 731 c 0,5,6
 331.5 731 331.5 731 346 713 c 0,7,8
 360.5 695 360.5 695 360.5 666.5 c 0,9,-1
 319.5 427 l 0,10,-1
 281.5 427 l 0,0,-1
81 427 m 0,11,-1
 41 666.5 l 0,12,13
 41 695 41 695 54.75 713 c 0,14,15
 68.5 731 68.5 731 99.5 731 c 0,16,17
 130.5 731 130.5 731 144.5 713 c 0,18,19
 158.5 695 158.5 695 158.5 666.5 c 0,20,-1
 119 427 l 0,21,-1
 81 427 l 0,11,-1
EndSplineSet
EndChar

StartChar: numbersign
Encoding: 6 35 6
Width: 759
VWidth: 500
Flags: W
LayerCount: 2
Fore
SplineSet
539.5 424 m 0,0,-1
 495.5 289 l 0,1,-1
 654.5 289 l 0,2,-1
 654.5 224.5 l 0,3,-1
 473 224.5 l 0,4,-1
 395.5 -24.5 l 0,5,-1
 324.5 -7 l 0,6,-1
 400.5 224.5 l 0,7,-1
 272.5 224.5 l 0,8,-1
 192.5 -24.5 l 0,9,-1
 124 -6 l 0,10,-1
 200.5 224.5 l 0,11,-1
 63.5 224.5 l 0,12,-1
 63.5 289 l 0,13,-1
 221 289 l 0,14,-1
 265 424 l 0,15,-1
 113.5 424 l 0,16,-1
 113.5 491.5 l 0,17,-1
 286.5 491.5 l 0,18,-1
 365.5 727 l 0,19,-1
 434 708.5 l 0,20,-1
 358.5 491.5 l 0,21,-1
 491.5 491.5 l 0,22,-1
 567.5 727 l 0,23,-1
 638 707.5 l 0,24,-1
 561 491.5 l 0,25,-1
 695.5 491.5 l 0,26,-1
 695.5 424 l 0,27,-1
 539.5 424 l 0,0,-1
339 424 m 0,28,-1
 294 289 l 0,29,-1
 421 289 l 0,30,-1
 468 424 l 0,31,-1
 339 424 l 0,28,-1
EndSplineSet
EndChar

StartChar: dollar
Encoding: 7 36 7
Width: 601
VWidth: 500
Flags: W
LayerCount: 2
Fore
SplineSet
547 210 m 0,0,1
 547 166 547 166 530.75 130.5 c 0,2,3
 514.5 95 514.5 95 485 68.5 c 0,4,5
 455.5 42 455.5 42 414.75 25 c 0,6,7
 374 8 374 8 325.5 1 c 0,8,-1
 325.5 -104.5 l 0,9,-1
 265 -104.5 l 0,10,-1
 265 0 l 0,11,12
 229.5 1.5 229.5 1.5 193 6 c 0,13,14
 161.5 10 161.5 10 125 16.5 c 0,15,16
 88.5 23 88.5 23 55.5 34 c 0,17,-1
 55.5 211 l 0,18,-1
 128 211 l 0,19,-1
 149.5 91 l 0,20,21
 165.5 81 165.5 81 185.5 75.5 c 0,22,23
 205.5 70 205.5 70 223 67.5 c 0,24,25
 243.5 64.5 243.5 64.5 265 63.5 c 0,26,-1
 265 289 l 0,27,28
 246 294.5 246 294.5 223.5 302 c 0,29,30
 201 309.5 201 309.5 178.25 320 c 0,31,32
 155.5 330.5 155.5 330.5 134.5 345.25 c 0,33,34
 113.5 360 113.5 360 97.25 380.25 c 0,35,36
 81 400.5 81 400.5 71.25 427.25 c 0,37,38
 61.5 454 61.5 454 61.5 488.5 c 0,39,40
 61.5 523.5 61.5 523.5 70.25 550.5 c 0,41,42
 79 577.5 79 577.5 93.25 598 c 0,43,44
 107.5 618.5 107.5 618.5 125.75 632.75 c 0,45,46
 144 647 144 647 163 656.5 c 0,47,48
 208 679 208 679 265 684 c 0,49,-1
 265 760 l 0,50,-1
 325.5 760 l 0,51,-1
 325.5 684 l 0,52,53
 357 684 357 684 389.75 679.25 c 0,54,55
 422.5 674.5 422.5 674.5 449.5 669 c 0,56,57
 481 662.5 481 662.5 511 654.5 c 0,58,-1
 511 483.5 l 0,59,-1
 440.5 483.5 l 0,60,-1
 421 597 l 0,61,62
 420 600.5 420 600.5 407.25 604.75 c 0,63,64
 394.5 609 394.5 609 378.25 612.75 c 0,65,66
 362 616.5 362 616.5 346.75 619 c 0,67,68
 331.5 621.5 331.5 621.5 325.5 621.5 c 0,69,-1
 325.5 410.5 l 0,70,71
 342.5 406 342.5 406 365.5 399.25 c 0,72,73
 388.5 392.5 388.5 392.5 413 382.25 c 0,74,75
 437.5 372 437.5 372 461.5 357.25 c 0,76,77
 485.5 342.5 485.5 342.5 504.5 321.75 c 0,78,79
 523.5 301 523.5 301 535.25 273.5 c 0,80,81
 547 246 547 246 547 210 c 0,0,1
265 618.5 m 0,82,83
 244.5 615.5 244.5 615.5 228 605 c 0,84,85
 214 595.5 214 595.5 202.75 577 c 0,86,87
 191.5 558.5 191.5 558.5 191.5 525.5 c 0,88,89
 191.5 494 191.5 494 202.75 474.5 c 0,90,91
 214 455 214 455 228 444 c 0,92,93
 244.5 431 244.5 431 265 425 c 0,94,-1
 265 618.5 l 0,82,83
417 173 m 0,95,96
 417 198.5 417 198.5 407.5 216 c 0,97,98
 398 233.5 398 233.5 384.25 245 c 0,99,100
 370.5 256.5 370.5 256.5 354.5 263.25 c 0,101,102
 338.5 270 338.5 270 325.5 273.5 c 0,103,-1
 325.5 66.5 l 0,104,105
 351 70 351 70 371 82.5 c 0,106,107
 379.5 87.5 379.5 87.5 387.75 95.5 c 0,108,109
 396 103.5 396 103.5 402.5 114.25 c 0,110,111
 409 125 409 125 413 139.5 c 0,112,113
 417 154 417 154 417 173 c 0,95,96
EndSplineSet
EndChar

StartChar: percent
Encoding: 8 37 8
Width: 915
VWidth: 500
Flags: W
LayerCount: 2
Fore
SplineSet
886 197.5 m 0,0,1
 886 147.5 886 147.5 874.75 108 c 0,2,3
 863.5 68.5 863.5 68.5 841.5 40.75 c 0,4,5
 819.5 13 819.5 13 786.5 -1.75 c 0,6,7
 753.5 -16.5 753.5 -16.5 709.5 -16.5 c 0,8,9
 666 -16.5 666 -16.5 633.25 -1.75 c 0,10,11
 600.5 13 600.5 13 578.75 40.75 c 0,12,13
 557 68.5 557 68.5 546.25 108 c 0,14,15
 535.5 147.5 535.5 147.5 535.5 197.5 c 0,16,17
 535.5 247.5 535.5 247.5 546.25 287.25 c 0,18,19
 557 327 557 327 578.75 354.5 c 0,20,21
 600.5 382 600.5 382 633.25 396.75 c 0,22,23
 666 411.5 666 411.5 709.5 411.5 c 0,24,25
 753.5 411.5 753.5 411.5 786.5 396.75 c 0,26,27
 819.5 382 819.5 382 841.5 354.5 c 0,28,29
 863.5 327 863.5 327 874.75 287.25 c 0,30,31
 886 247.5 886 247.5 886 197.5 c 0,0,1
281.5 0 m 0,32,-1
 209 0 l 0,33,-1
 634 687 l 0,34,-1
 707.5 687 l 0,35,-1
 281.5 0 l 0,32,-1
381 489.5 m 0,36,37
 381 439.5 381 439.5 370 399.75 c 0,38,39
 359 360 359 360 337.25 332.25 c 0,40,41
 315.5 304.5 315.5 304.5 282.5 289.5 c 0,42,43
 249.5 274.5 249.5 274.5 206 274.5 c 0,44,45
 162 274.5 162 274.5 129 289.5 c 0,46,47
 96 304.5 96 304.5 73.75 332.25 c 0,48,49
 51.5 360 51.5 360 40.5 399.75 c 0,50,51
 29.5 439.5 29.5 439.5 29.5 489.5 c 0,52,53
 29.5 539.5 29.5 539.5 40.5 579 c 0,54,55
 51.5 618.5 51.5 618.5 73.75 646.25 c 0,56,57
 96 674 96 674 129 688.75 c 0,58,59
 162 703.5 162 703.5 206 703.5 c 0,60,61
 249.5 703.5 249.5 703.5 282.5 688.75 c 0,62,63
 315.5 674 315.5 674 337.25 646.25 c 0,64,65
 359 618.5 359 618.5 370 579 c 0,66,67
 381 539.5 381 539.5 381 489.5 c 0,36,37
774 197.5 m 0,68,69
 774 244.5 774 244.5 769.25 276.5 c 0,70,71
 764.5 308.5 764.5 308.5 756 327.75 c 0,72,73
 747.5 347 747.5 347 735.5 355.25 c 0,74,75
 723.5 363.5 723.5 363.5 709.5 363.5 c 0,76,77
 696 363.5 696 363.5 683.25 355.25 c 0,78,79
 670.5 347 670.5 347 661 327.75 c 0,80,81
 651.5 308.5 651.5 308.5 645.75 276.5 c 0,82,83
 640 244.5 640 244.5 640 197.5 c 0,84,85
 640 150 640 150 645.75 118.25 c 0,86,87
 651.5 86.5 651.5 86.5 661 67.25 c 0,88,89
 670.5 48 670.5 48 683.25 39.75 c 0,90,91
 696 31.5 696 31.5 709.5 31.5 c 0,92,93
 723.5 31.5 723.5 31.5 735.5 39.75 c 0,94,95
 747.5 48 747.5 48 756 67.25 c 0,96,97
 764.5 86.5 764.5 86.5 769.25 118.25 c 0,98,99
 774 150 774 150 774 197.5 c 0,68,69
270.5 489.5 m 0,100,101
 270.5 536.5 270.5 536.5 265.5 568.5 c 0,102,103
 260.5 600.5 260.5 600.5 252 619.75 c 0,104,105
 243.5 639 243.5 639 231.5 647.25 c 0,106,107
 219.5 655.5 219.5 655.5 206 655.5 c 0,108,109
 191.5 655.5 191.5 655.5 178.5 647.25 c 0,110,111
 165.5 639 165.5 639 155.25 619.75 c 0,112,113
 145 600.5 145 600.5 139 568.5 c 0,114,115
 133 536.5 133 536.5 133 489.5 c 0,116,117
 133 442 133 442 139 410 c 0,118,119
 145 378 145 378 155.25 358.5 c 0,120,121
 165.5 339 165.5 339 178.5 330.75 c 0,122,123
 191.5 322.5 191.5 322.5 206 322.5 c 0,124,125
 219.5 322.5 219.5 322.5 231.5 330.75 c 0,126,127
 243.5 339 243.5 339 252 358.5 c 0,128,129
 260.5 378 260.5 378 265.5 410 c 0,130,131
 270.5 442 270.5 442 270.5 489.5 c 0,100,101
EndSplineSet
EndChar

StartChar: ampersand
Encoding: 9 38 9
Width: 752
VWidth: 500
Flags: W
LayerCount: 2
Fore
SplineSet
386 537.5 m 0,0,1
 386 558.5 386 558.5 380.5 577 c 0,2,3
 375 595.5 375 595.5 364.5 609.25 c 0,4,5
 354 623 354 623 339 631 c 0,6,7
 324 639 324 639 305 639 c 0,8,9
 287.5 639 287.5 639 272.5 633 c 0,10,11
 257.5 627 257.5 627 246.5 616.5 c 0,12,13
 235.5 606 235.5 606 229.25 591.25 c 0,14,15
 223 576.5 223 576.5 223 559 c 0,16,17
 223 542 223 542 228.25 525.25 c 0,18,19
 233.5 508.5 233.5 508.5 245.25 490.5 c 0,20,21
 257 472.5 257 472.5 275.5 452 c 0,22,23
 294 431.5 294 431.5 320.5 407.5 c 0,24,25
 336 421.5 336 421.5 348.25 435.5 c 0,26,27
 360.5 449.5 360.5 449.5 369 464.75 c 0,28,29
 377.5 480 377.5 480 381.75 497.75 c 0,30,31
 386 515.5 386 515.5 386 537.5 c 0,0,1
225.5 328.5 m 0,32,33
 211.5 319 211.5 319 201 306 c 0,34,35
 192 294.5 192 294.5 184.5 277 c 0,36,37
 177 259.5 177 259.5 177 235.5 c 0,38,39
 177 192 177 192 190.25 161.5 c 0,40,41
 203.5 131 203.5 131 225 112 c 0,42,43
 246.5 93 246.5 93 273.5 84.5 c 0,44,45
 300.5 76 300.5 76 327.5 76 c 0,46,47
 353.5 76 353.5 76 372.25 82.25 c 0,48,49
 391 88.5 391 88.5 403.5 96 c 0,50,51
 418 105 418 105 428 116.5 c 0,52,-1
 225.5 328.5 l 0,32,33
513 0 m 0,53,-1
 513 24.5 l 0,54,-1
 470 72.5 l 0,55,56
 446 48.5 446 48.5 414.5 30 c 0,57,58
 401 22 401 22 384.5 14.25 c 0,59,60
 368 6.5 368 6.5 348.5 0.5 c 0,61,62
 329 -5.5 329 -5.5 306.75 -9 c 0,63,64
 284.5 -12.5 284.5 -12.5 260 -12.5 c 0,65,66
 210.5 -12.5 210.5 -12.5 169.75 2 c 0,67,68
 129 16.5 129 16.5 100 42.75 c 0,69,70
 71 69 71 69 55 106 c 0,71,72
 39 143 39 143 39 188.5 c 0,73,74
 39 225 39 225 49.25 253 c 0,75,76
 59.5 281 59.5 281 78.5 302.5 c 0,77,78
 97.5 324 97.5 324 124 339 c 0,79,80
 150.5 354 150.5 354 182.5 364.5 c 0,81,82
 181 365.5 181 365.5 174.5 370.5 c 0,83,84
 167 376 167 376 156.5 385.75 c 0,85,86
 146 395.5 146 395.5 134 409.25 c 0,87,88
 122 423 122 423 111.75 440.75 c 0,89,90
 101.5 458.5 101.5 458.5 94.75 480 c 0,91,92
 88 501.5 88 501.5 88 526.5 c 0,93,94
 88 569 88 569 105.75 601.5 c 0,95,96
 123.5 634 123.5 634 153.75 656 c 0,97,98
 184 678 184 678 224.5 689.25 c 0,99,100
 265 700.5 265 700.5 310.5 700.5 c 0,101,102
 330.5 700.5 330.5 700.5 353.25 697.5 c 0,103,104
 376 694.5 376 694.5 398.5 687 c 0,105,106
 421 679.5 421 679.5 441.75 667.5 c 0,107,108
 462.5 655.5 462.5 655.5 478.25 637.75 c 0,109,110
 494 620 494 620 503.5 595.5 c 0,111,112
 513 571 513 571 513 539.5 c 0,113,114
 513 505 513 505 502.5 479.5 c 0,115,116
 492 454 492 454 476 435.25 c 0,117,118
 460 416.5 460 416.5 441 404.25 c 0,119,120
 422 392 422 392 405 384.75 c 0,121,122
 388 377.5 388 377.5 375.25 374.25 c 0,123,124
 362.5 371 362.5 371 359.5 370.5 c 0,125,-1
 517 207 l 0,126,127
 529 222.5 529 222.5 539.5 240.5 c 0,128,129
 548.5 256 548.5 256 557.5 276.75 c 0,130,131
 566.5 297.5 566.5 297.5 571.5 321.5 c 0,132,133
 572 326 572 326 568 332 c 0,134,135
 564 338 564 338 561 339 c 0,136,-1
 508 348 l 0,137,-1
 508 396.5 l 0,138,-1
 723 396.5 l 0,139,-1
 723 348 l 0,140,-1
 652.5 334 l 0,141,142
 640 293.5 640 293.5 623.5 262 c 0,143,144
 607 230.5 607 230.5 592.5 208.5 c 0,145,146
 575 183 575 183 557 164 c 0,147,-1
 653.5 60.5 l 0,148,-1
 736.5 52 l 0,149,-1
 736.5 0 l 0,150,-1
 513 0 l 0,53,-1
EndSplineSet
EndChar

StartChar: quotesingle
Encoding: 10 39 10
Width: 180
VWidth: 500
Flags: W
LayerCount: 2
Fore
SplineSet
71.5 427 m 0,0,-1
 31.5 666.5 l 0,1,2
 31.5 695 31.5 695 45 713 c 0,3,4
 58.5 731 58.5 731 90 731 c 0,5,6
 121 731 121 731 135.25 713 c 0,7,8
 149.5 695 149.5 695 149.5 666.5 c 0,9,-1
 108.5 427 l 0,10,-1
 71.5 427 l 0,0,-1
EndSplineSet
EndChar

StartChar: parenleft
Encoding: 11 40 11
Width: 401
VWidth: 500
Flags: W
LayerCount: 2
Fore
SplineSet
366.5 -145.5 m 0,0,1
 291 -143.5 291 -143.5 233.75 -112 c 0,2,3
 176.5 -80.5 176.5 -80.5 138 -23.5 c 0,4,5
 99.5 33.5 99.5 33.5 80 114 c 0,6,7
 60.5 194.5 60.5 194.5 60.5 295 c 0,8,9
 60.5 395 60.5 395 80 475.25 c 0,10,11
 99.5 555.5 99.5 555.5 138 612.25 c 0,12,13
 176.5 669 176.5 669 233.75 700.25 c 0,14,15
 291 731.5 291 731.5 366.5 734 c 0,16,-1
 366.5 679 l 0,17,18
 312.5 671.5 312.5 671.5 278.25 640.25 c 0,19,20
 244 609 244 609 224.5 558.5 c 0,21,22
 205 508 205 508 197.75 440.75 c 0,23,24
 190.5 373.5 190.5 373.5 190.5 295 c 0,25,26
 190.5 216 190.5 216 197.75 148.75 c 0,27,28
 205 81.5 205 81.5 224.5 31 c 0,29,30
 244 -19.5 244 -19.5 278.25 -51 c 0,31,32
 312.5 -82.5 312.5 -82.5 366.5 -90 c 0,33,-1
 366.5 -145.5 l 0,0,1
EndSplineSet
EndChar

StartChar: parenright
Encoding: 12 41 12
Width: 401
VWidth: 500
Flags: W
LayerCount: 2
Fore
SplineSet
341 295 m 0,0,1
 341 194.5 341 194.5 321.5 114 c 0,2,3
 302 33.5 302 33.5 263.25 -23.5 c 0,4,5
 224.5 -80.5 224.5 -80.5 167.25 -112 c 0,6,7
 110 -143.5 110 -143.5 35 -145.5 c 0,8,-1
 35 -90 l 0,9,10
 88.5 -82.5 88.5 -82.5 122.75 -51 c 0,11,12
 157 -19.5 157 -19.5 176.5 31 c 0,13,14
 196 81.5 196 81.5 203.5 148.75 c 0,15,16
 211 216 211 216 211 295 c 0,17,18
 211 373.5 211 373.5 203.5 440.75 c 0,19,20
 196 508 196 508 176.5 558.5 c 0,21,22
 157 609 157 609 122.75 640.25 c 0,23,24
 88.5 671.5 88.5 671.5 35 679 c 0,25,-1
 35 734 l 0,26,27
 110 731.5 110 731.5 167.25 700.25 c 0,28,29
 224.5 669 224.5 669 263.25 612.25 c 0,30,31
 302 555.5 302 555.5 321.5 475.25 c 0,32,33
 341 395 341 395 341 295 c 0,0,1
EndSplineSet
EndChar

StartChar: asterisk
Encoding: 13 42 13
Width: 512
VWidth: 500
Flags: W
LayerCount: 2
Fore
SplineSet
412.5 518 m 0,0,-1
 280.5 519 l 0,1,-1
 273.5 534.5 l 0,2,-1
 382 614.5 l 0,3,-1
 457.5 584.5 l 0,4,-1
 412.5 518 l 0,0,-1
264 546 m 0,5,-1
 247 546 l 0,6,-1
 205 674 l 0,7,-1
 256 735 l 0,8,-1
 307 674 l 0,9,-1
 264 546 l 0,5,-1
381 346 m 0,10,-1
 303 366.5 l 0,11,-1
 262 493.5 l 0,12,-1
 274.5 506 l 0,13,-1
 384 426 l 0,14,-1
 381 346 l 0,10,-1
231.5 519 m 0,15,-1
 98.5 518 l 0,16,-1
 54.5 584.5 l 0,17,-1
 128 614.5 l 0,18,-1
 237.5 533.5 l 0,19,-1
 231.5 519 l 0,15,-1
209 366.5 m 0,20,-1
 131 346 l 0,21,-1
 128 426 l 0,22,-1
 237.5 506 l 0,23,-1
 250 493.5 l 0,24,-1
 209 366.5 l 0,20,-1
EndSplineSet
EndChar

StartChar: plus
Encoding: 14 43 14
Width: 1024
VWidth: 500
Flags: W
LayerCount: 2
Fore
SplineSet
543.5 275.5 m 0,0,-1
 543.5 0 l 0,1,-1
 480.5 0 l 0,2,-1
 480.5 275.5 l 0,3,-1
 205 275.5 l 0,4,-1
 205 339 l 0,5,-1
 480.5 339 l 0,6,-1
 480.5 614.5 l 0,7,-1
 543.5 614.5 l 0,8,-1
 543.5 339 l 0,9,-1
 819 339 l 0,10,-1
 819 275.5 l 0,11,-1
 543.5 275.5 l 0,0,-1
EndSplineSet
EndChar

StartChar: comma
Encoding: 15 44 15
Width: 325
VWidth: 500
Flags: W
LayerCount: 2
Fore
SplineSet
248 60.5 m 0,0,1
 248 28.5 248 28.5 239 -1 c 0,2,3
 230 -30.5 230 -30.5 214.75 -56.75 c 0,4,5
 199.5 -83 199.5 -83 178.75 -104.75 c 0,6,7
 158 -126.5 158 -126.5 134.5 -142.75 c 0,8,9
 111 -159 111 -159 85.75 -168.75 c 0,10,11
 60.5 -178.5 60.5 -178.5 36 -180 c 0,12,-1
 36 -130 l 0,13,14
 55.5 -127 55.5 -127 77.75 -118.75 c 0,15,16
 100 -110.5 100 -110.5 118.5 -94.5 c 0,17,18
 137 -78.5 137 -78.5 148.5 -53.75 c 0,19,20
 160 -29 160 -29 158.5 7 c 0,21,-1
 96.5 7 l 0,22,23
 87 14.5 87 14.5 81 22.75 c 0,24,25
 75 31 75 31 71.25 39.5 c 0,26,27
 67.5 48 67.5 48 66 56.5 c 0,28,29
 64.5 65 64.5 65 64.5 72.5 c 0,30,31
 64.5 92 64.5 92 71.75 107.75 c 0,32,33
 79 123.5 79 123.5 91 134.75 c 0,34,35
 103 146 103 146 118.5 152.25 c 0,36,37
 134 158.5 134 158.5 150.5 158.5 c 0,38,39
 197 158.5 197 158.5 222.5 132 c 0,40,41
 248 105.5 248 105.5 248 60.5 c 0,0,1
EndSplineSet
EndChar

StartChar: hyphen
Encoding: 16 45 16
Width: 336
VWidth: 500
Flags: W
LayerCount: 2
Fore
SplineSet
34 192.5 m 0,0,-1
 34 301 l 0,1,-1
 302 301 l 0,2,-1
 302 192.5 l 0,3,-1
 34 192.5 l 0,0,-1
EndSplineSet
EndChar

StartChar: period
Encoding: 17 46 17
Width: 325
VWidth: 500
Flags: W
LayerCount: 2
Fore
SplineSet
235.5 72.5 m 0,0,1
 235.5 55 235.5 55 229 39.5 c 0,2,3
 222.5 24 222.5 24 211 12.5 c 0,4,5
 199.5 1 199.5 1 184 -5.75 c 0,6,7
 168.5 -12.5 168.5 -12.5 150.5 -12.5 c 0,8,9
 133 -12.5 133 -12.5 117.25 -5.75 c 0,10,11
 101.5 1 101.5 1 89.75 12.5 c 0,12,13
 78 24 78 24 71.25 39.5 c 0,14,15
 64.5 55 64.5 55 64.5 72.5 c 0,16,17
 64.5 90.5 64.5 90.5 71.25 106 c 0,18,19
 78 121.5 78 121.5 89.75 133.25 c 0,20,21
 101.5 145 101.5 145 117.25 151.75 c 0,22,23
 133 158.5 133 158.5 150.5 158.5 c 0,24,25
 168.5 158.5 168.5 158.5 184 151.75 c 0,26,27
 199.5 145 199.5 145 211 133.25 c 0,28,29
 222.5 121.5 222.5 121.5 229 106 c 0,30,31
 235.5 90.5 235.5 90.5 235.5 72.5 c 0,0,1
EndSplineSet
EndChar

StartChar: slash
Encoding: 18 47 18
Width: 513
VWidth: 500
Flags: W
LayerCount: 2
Fore
SplineSet
80 -95 m 0,0,-1
 0 -95 l 0,1,-1
 432 687 l 0,2,-1
 513 687 l 0,3,-1
 80 -95 l 0,0,-1
EndSplineSet
EndChar

StartChar: zero
Encoding: 19 48 19
Width: 792
VWidth: 500
Flags: W
LayerCount: 2
Fore
SplineSet
668 157 m 0,0,-1
 668 528 l 0,1,2
 668 544 668 544 655.5 556.5 c 0,3,4
 643 569 643 569 622 569 c 0,5,-1
 516 569 l 0,6,7
 493 569 493 569 489.5 568.5 c 0,8,9
 486 568 486 568 477 559 c 0,10,11
 462 541 462 541 462 529 c 0,12,-1
 462 154 l 0,13,14
 462 138 462 138 478.5 127 c 0,15,16
 495 116 495 116 517 116 c 0,17,-1
 623 116 l 0,18,19
 639 116 639 116 655 130 c 0,20,21
 667 145 667 145 668 157 c 0,0,-1
803 124 m 0,22,23
 803 91 803 91 782 63 c 0,24,25
 771 50 771 50 758 38.5 c 0,26,27
 745 27 745 27 731 20 c 0,28,29
 692 2 692 2 657 2 c 0,30,-1
 473 3 l 0,31,32
 412 3 412 3 370 46 c 0,33,34
 326 85 326 85 326 145 c 0,35,-1
 326 563 l 0,36,37
 326 612 326 612 373 649 c 0,38,39
 422 682 422 682 487 682 c 0,40,-1
 649 682 l 0,41,42
 717 682 717 682 759 640 c 0,43,44
 781 621 781 621 792 594.5 c 0,45,46
 803 568 803 568 803 536 c 0,47,-1
 803 124 l 0,22,23
EndSplineSet
EndChar

StartChar: one
Encoding: 20 49 20
Width: 792
VWidth: 500
Flags: W
LayerCount: 2
Fore
SplineSet
803 0 m 0,0,-1
 409 0 l 0,1,-1
 409 113 l 0,2,-1
 539 113 l 0,3,-1
 539 535 l 0,4,5
 539 551 539 551 534.5 558 c 0,6,7
 530 565 530 565 522 567 c 0,8,-1
 410 567 l 0,9,-1
 410 680 l 0,10,-1
 543 680 l 0,11,12
 600 680 600 680 635 645 c 0,13,14
 675 609 675 609 675 560 c 0,15,-1
 675 111 l 0,16,-1
 803 111 l 0,17,-1
 803 0 l 0,0,-1
EndSplineSet
EndChar

StartChar: two
Encoding: 21 50 21
Width: 792
VWidth: 500
Flags: W
LayerCount: 2
Fore
SplineSet
803 0 m 0,0,-1
 311 0 l 0,1,-1
 311 250 l 0,2,3
 311 280 311 280 322 301.5 c 0,4,5
 333 323 333 323 359 339 c 0,6,7
 409 376 409 376 474 376 c 0,8,-1
 633 376 l 0,9,10
 642 376 642 376 654 391 c 0,11,12
 663 407 663 407 663 426 c 0,13,-1
 663 543 l 0,14,15
 663 551 663 551 658 559 c 0,16,17
 653 563 653 563 641 563 c 0,18,-1
 483 563 l 0,19,20
 462 563 462 563 450 556 c 0,21,22
 443 554 443 554 443 543 c 0,23,-1
 443 445 l 0,24,-1
 309 445 l 0,25,-1
 309 575 l 0,26,27
 309 621 309 621 348.5 649 c 0,28,29
 388 677 388 677 445 677 c 0,30,-1
 660 677 l 0,31,32
 718 677 718 677 758 644 c 0,33,34
 798 608 798 608 798 558 c 0,35,-1
 798 418 l 0,36,37
 798 376 798 376 779 340 c 0,38,39
 767 319 767 319 755.5 306 c 0,40,41
 744 293 744 293 728 284 c 0,42,43
 692 262 692 262 655 262 c 0,44,-1
 485 262 l 0,45,46
 460 262 460 262 451 258 c 0,47,-1
 446 256 l 0,48,-1
 446 112 l 0,49,-1
 804 112 l 0,50,-1
 803 0 l 0,0,-1
EndSplineSet
EndChar

StartChar: three
Encoding: 22 51 22
Width: 792
VWidth: 500
Flags: W
LayerCount: 2
Fore
SplineSet
803 116 m 0,0,1
 803 69 803 69 763.5 35 c 0,2,3
 724 1 724 1 673 1 c 0,4,-1
 459 2 l 0,5,6
 401 2 401 2 357 30 c 0,7,8
 314 60 314 60 314 103 c 0,9,-1
 314 205 l 0,10,-1
 448 205 l 0,11,-1
 448 144 l 0,12,13
 448 132 448 132 458.5 123 c 0,14,15
 469 114 469 114 488 114 c 0,16,-1
 623 114 l 0,17,18
 641 114 641 114 655 124 c 0,19,20
 669 134 669 134 669 152 c 0,21,-1
 669 262 l 0,22,23
 669 277 669 277 657 292 c 0,24,25
 645 303 645 303 624 303 c 0,26,-1
 571 303 l 0,27,-1
 571 416 l 0,28,-1
 615 416 l 0,29,30
 634 416 634 416 653 427 c 0,31,32
 668 432 668 432 668 439 c 0,33,-1
 668 532 l 0,34,35
 668 546 668 546 659 558 c 0,36,37
 651 565 651 565 637 565 c 0,38,-1
 488 565 l 0,39,40
 469 565 469 565 457 558 c 0,41,42
 449 551 449 551 449 537 c 0,43,-1
 449 486 l 0,44,-1
 315 486 l 0,45,-1
 315 591 l 0,46,47
 315 631 315 631 354 654.5 c 0,48,49
 393 678 393 678 451 678 c 0,50,-1
 675 678 l 0,51,52
 731 678 731 678 768.5 643 c 0,53,54
 806 608 806 608 806 558 c 0,55,-1
 806 458 l 0,56,57
 806 429 806 429 781 397 c 0,58,59
 774 389 774 389 761.5 380 c 0,60,61
 749 371 749 371 735 363 c 0,62,63
 764 349 764 349 779 328 c 0,64,65
 805 293 805 293 805 256 c 0,66,-1
 803 116 l 0,0,1
EndSplineSet
EndChar

StartChar: four
Encoding: 23 52 23
Width: 792
VWidth: 500
Flags: W
LayerCount: 2
Fore
SplineSet
803 159 m 0,0,-1
 704 159 l 0,1,-1
 704 0 l 0,2,-1
 569 0 l 0,3,-1
 569 159 l 0,4,-1
 386 159 l 0,5,6
 339 159 339 159 304 185 c 0,7,8
 285 197 285 197 277 213 c 0,9,10
 269 229 269 229 269 248 c 0,11,12
 269 282 269 282 291 342 c 0,13,-1
 414 679 l 0,14,-1
 551 679 l 0,15,-1
 417 331 l 0,16,17
 403 291 403 291 403 275 c 0,18,-1
 402 271 l 0,19,-1
 571 271 l 0,20,-1
 571 681 l 0,21,-1
 706 681 l 0,22,-1
 706 271 l 0,23,-1
 805 271 l 0,24,-1
 803 159 l 0,0,-1
EndSplineSet
EndChar

StartChar: five
Encoding: 24 53 24
Width: 792
VWidth: 500
Flags: W
LayerCount: 2
Fore
SplineSet
803 116 m 0,0,1
 803 69 803 69 768 35 c 0,2,3
 733 1 733 1 686 1 c 0,4,-1
 391 1 l 0,5,6
 347 1 347 1 314.5 30 c 0,7,8
 282 59 282 59 282 98 c 0,9,-1
 282 218 l 0,10,-1
 417 218 l 0,11,-1
 416 140 l 0,12,13
 418 125 418 125 423 123 c 0,14,15
 438 115 438 115 447 115 c 0,16,-1
 647 115 l 0,17,18
 652 115 652 115 659 123 c 0,19,20
 666 136 666 136 666 152 c 0,21,-1
 666 301 l 0,22,23
 666 316 666 316 627 316 c 0,24,-1
 279 316 l 0,25,-1
 279 681 l 0,26,-1
 787 681 l 0,27,-1
 787 568 l 0,28,-1
 415 568 l 0,29,-1
 415 431 l 0,30,-1
 662 431 l 0,31,32
 722 431 722 431 761.5 396 c 0,33,34
 801 361 801 361 801 310 c 0,35,-1
 803 116 l 0,0,1
EndSplineSet
EndChar

StartChar: six
Encoding: 25 54 25
Width: 792
VWidth: 500
Flags: W
LayerCount: 2
Fore
SplineSet
669 155 m 0,0,-1
 669 286 l 0,1,2
 669 298 669 298 654.5 308.5 c 0,3,4
 640 319 640 319 617 319 c 0,5,-1
 433 319 l 0,6,-1
 433 166 l 0,7,8
 433 145 433 145 451 130.5 c 0,9,10
 469 116 469 116 488 116 c 0,11,-1
 616 116 l 0,12,13
 637 116 637 116 653 127.5 c 0,14,15
 669 139 669 139 669 155 c 0,0,-1
803 130 m 0,16,17
 803 76 803 76 763 40 c 0,18,19
 744 24 744 24 717.5 13 c 0,20,21
 691 2 691 2 665 2 c 0,22,-1
 450 3 l 0,23,24
 389 3 389 3 343 36.5 c 0,25,26
 297 70 297 70 297 117 c 0,27,-1
 297 563 l 0,28,29
 297 612 297 612 343 649 c 0,30,31
 389 682 389 682 450 682 c 0,32,-1
 777 682 l 0,33,-1
 777 569 l 0,34,-1
 474 569 l 0,35,36
 453 569 453 569 442.5 560 c 0,37,38
 432 551 432 551 432 536 c 0,39,-1
 432 433 l 0,40,-1
 650 433 l 0,41,42
 718 433 718 433 761 395.5 c 0,43,44
 804 358 804 358 804 304 c 0,45,-1
 803 130 l 0,16,17
EndSplineSet
EndChar

StartChar: seven
Encoding: 26 55 26
Width: 792
VWidth: 500
Flags: W
LayerCount: 2
Fore
SplineSet
802 553 m 0,0,-1
 549 0 l 0,1,-1
 412 0 l 0,2,-1
 668 558 l 0,3,-1
 664 566 l 0,4,5
 660 568 660 568 649 568 c 0,6,-1
 426 568 l 0,7,-1
 426 503 l 0,8,-1
 291 503 l 0,9,-1
 291 682 l 0,10,-1
 674 682 l 0,11,12
 730 682 730 682 766 645 c 0,13,14
 803 609 803 609 802 553 c 0,0,-1
EndSplineSet
EndChar

StartChar: eight
Encoding: 27 56 27
Width: 792
VWidth: 500
Flags: W
LayerCount: 2
Fore
SplineSet
669 152 m 0,0,-1
 669 163 l 0,1,2
 669 195 669 195 639 213 c 0,3,-1
 564 270 l 0,4,-1
 471 213 l 0,5,6
 449 197 449 197 449 183 c 0,7,-1
 449 144 l 0,8,9
 449 132 449 132 460.5 123 c 0,10,11
 472 114 472 114 494 114 c 0,12,-1
 624 114 l 0,13,14
 642 114 642 114 656 124 c 0,15,16
 670 134 670 134 669 152 c 0,0,-1
669 541 m 0,17,18
 669 553 669 553 662 562 c 0,19,20
 655 567 655 567 646 567 c 0,21,-1
 478 567 l 0,22,23
 462 567 462 567 453 565 c 0,24,-1
 449 561 l 0,25,26
 449 531 449 531 458 523 c 0,27,-1
 561 442 l 0,28,-1
 653 510 l 0,29,30
 669 517 669 517 669 541 c 0,17,18
803 98 m 0,31,32
 803 59 803 59 764 29 c 0,33,34
 724 1 724 1 673 1 c 0,35,-1
 459 2 l 0,36,37
 401 2 401 2 357 30 c 0,38,39
 314 60 314 60 314 103 c 0,40,-1
 314 222 l 0,41,42
 314 245 314 245 357 282 c 0,43,-1
 471 361 l 0,44,-1
 372 436 l 0,45,46
 314 490 314 490 314 519 c 0,47,-1
 314 590 l 0,48,49
 314 630 314 630 353 653.5 c 0,50,51
 392 677 392 677 450 677 c 0,52,-1
 674 677 l 0,53,54
 728 677 728 677 764 654 c 0,55,56
 804 631 804 631 804 591 c 0,57,-1
 804 492 l 0,58,59
 804 456 804 456 757 426 c 0,60,-1
 641 348 l 0,61,-1
 720 304 l 0,62,63
 804 241 804 241 804 204 c 0,64,-1
 803 98 l 0,31,32
EndSplineSet
EndChar

StartChar: nine
Encoding: 28 57 28
Width: 792
VWidth: 500
Flags: W
LayerCount: 2
Fore
SplineSet
666 363 m 0,0,-1
 666 533 l 0,1,2
 666 547 666 547 653 556.5 c 0,3,4
 640 566 640 566 614 566 c 0,5,-1
 476 566 l 0,6,7
 453 566 453 566 442 558 c 0,8,9
 431 550 431 550 431 534 c 0,10,-1
 431 402 l 0,11,12
 431 388 431 388 446 380 c 0,13,14
 464 365 464 365 486 365 c 0,15,-1
 666 363 l 0,0,-1
803 138 m 0,16,17
 803 82 803 82 753.5 41 c 0,18,19
 704 0 704 0 636 0 c 0,20,-1
 324 0 l 0,21,-1
 324 113 l 0,22,-1
 591 113 l 0,23,24
 623 113 623 113 646 127 c 0,25,26
 667 142 667 142 667 156 c 0,27,-1
 667 251 l 0,28,-1
 448 251 l 0,29,30
 387 251 387 251 341 286.5 c 0,31,32
 295 322 295 322 295 368 c 0,33,-1
 295 573 l 0,34,35
 295 601 295 601 317 630 c 0,36,37
 338 652 338 652 375.5 666 c 0,38,39
 413 680 413 680 457 680 c 0,40,-1
 647 680 l 0,41,42
 687 680 687 680 724 662.5 c 0,43,44
 761 645 761 645 779 617 c 0,45,46
 801 589 801 589 801 552 c 0,47,-1
 803 138 l 0,16,17
EndSplineSet
EndChar

StartChar: colon
Encoding: 29 58 29
Width: 325
VWidth: 500
Flags: W
LayerCount: 2
Fore
SplineSet
235.5 72.5 m 0,0,1
 235.5 55 235.5 55 229 39.5 c 0,2,3
 222.5 24 222.5 24 211 12.5 c 0,4,5
 199.5 1 199.5 1 184 -5.75 c 0,6,7
 168.5 -12.5 168.5 -12.5 150.5 -12.5 c 0,8,9
 133 -12.5 133 -12.5 117.25 -5.75 c 0,10,11
 101.5 1 101.5 1 89.75 12.5 c 0,12,13
 78 24 78 24 71.25 39.5 c 0,14,15
 64.5 55 64.5 55 64.5 72.5 c 0,16,17
 64.5 90.5 64.5 90.5 71.25 106 c 0,18,19
 78 121.5 78 121.5 89.75 133.25 c 0,20,21
 101.5 145 101.5 145 117.25 151.75 c 0,22,23
 133 158.5 133 158.5 150.5 158.5 c 0,24,25
 168.5 158.5 168.5 158.5 184 151.75 c 0,26,27
 199.5 145 199.5 145 211 133.25 c 0,28,29
 222.5 121.5 222.5 121.5 229 106 c 0,30,31
 235.5 90.5 235.5 90.5 235.5 72.5 c 0,0,1
235.5 426 m 0,32,33
 235.5 408 235.5 408 229 392.5 c 0,34,35
 222.5 377 222.5 377 211 365.5 c 0,36,37
 199.5 354 199.5 354 184 347.5 c 0,38,39
 168.5 341 168.5 341 150.5 341 c 0,40,41
 133 341 133 341 117.25 347.5 c 0,42,43
 101.5 354 101.5 354 89.75 365.5 c 0,44,45
 78 377 78 377 71.25 392.5 c 0,46,47
 64.5 408 64.5 408 64.5 426 c 0,48,49
 64.5 443.5 64.5 443.5 71.25 459.25 c 0,50,51
 78 475 78 475 89.75 486.75 c 0,52,53
 101.5 498.5 101.5 498.5 117.25 505.25 c 0,54,55
 133 512 133 512 150.5 512 c 0,56,57
 168.5 512 168.5 512 184 505.25 c 0,58,59
 199.5 498.5 199.5 498.5 211 486.75 c 0,60,61
 222.5 475 222.5 475 229 459.25 c 0,62,63
 235.5 443.5 235.5 443.5 235.5 426 c 0,32,33
EndSplineSet
EndChar

StartChar: semicolon
Encoding: 30 59 30
Width: 325
VWidth: 500
Flags: W
LayerCount: 2
Fore
SplineSet
248 60.5 m 0,0,1
 248 28.5 248 28.5 239 -1 c 0,2,3
 230 -30.5 230 -30.5 214.75 -56.75 c 0,4,5
 199.5 -83 199.5 -83 178.75 -104.75 c 0,6,7
 158 -126.5 158 -126.5 134.5 -142.75 c 0,8,9
 111 -159 111 -159 85.75 -168.75 c 0,10,11
 60.5 -178.5 60.5 -178.5 36 -180 c 0,12,-1
 36 -130 l 0,13,14
 55.5 -127 55.5 -127 77.75 -118.75 c 0,15,16
 100 -110.5 100 -110.5 118.5 -94.5 c 0,17,18
 137 -78.5 137 -78.5 148.5 -53.75 c 0,19,20
 160 -29 160 -29 158.5 7 c 0,21,-1
 96.5 7 l 0,22,23
 87 14.5 87 14.5 81 22.75 c 0,24,25
 75 31 75 31 71.25 39.5 c 0,26,27
 67.5 48 67.5 48 66 56.5 c 0,28,29
 64.5 65 64.5 65 64.5 72.5 c 0,30,31
 64.5 92 64.5 92 71.75 107.75 c 0,32,33
 79 123.5 79 123.5 91 134.75 c 0,34,35
 103 146 103 146 118.5 152.25 c 0,36,37
 134 158.5 134 158.5 150.5 158.5 c 0,38,39
 197 158.5 197 158.5 222.5 132 c 0,40,41
 248 105.5 248 105.5 248 60.5 c 0,0,1
235.5 426 m 0,42,43
 235.5 408 235.5 408 229 392.5 c 0,44,45
 222.5 377 222.5 377 211 365.5 c 0,46,47
 199.5 354 199.5 354 184 347.5 c 0,48,49
 168.5 341 168.5 341 150.5 341 c 0,50,51
 133 341 133 341 117.25 347.5 c 0,52,53
 101.5 354 101.5 354 89.75 365.5 c 0,54,55
 78 377 78 377 71.25 392.5 c 0,56,57
 64.5 408 64.5 408 64.5 426 c 0,58,59
 64.5 443.5 64.5 443.5 71.25 459.25 c 0,60,61
 78 475 78 475 89.75 486.75 c 0,62,63
 101.5 498.5 101.5 498.5 117.25 505.25 c 0,64,65
 133 512 133 512 150.5 512 c 0,66,67
 168.5 512 168.5 512 184 505.25 c 0,68,69
 199.5 498.5 199.5 498.5 211 486.75 c 0,70,71
 222.5 475 222.5 475 229 459.25 c 0,72,73
 235.5 443.5 235.5 443.5 235.5 426 c 0,42,43
EndSplineSet
EndChar

StartChar: less
Encoding: 31 60 31
Width: 1024
VWidth: 500
Flags: W
LayerCount: 2
Fore
SplineSet
205 275.5 m 0,0,-1
 205 339 l 0,1,-1
 819 574.5 l 0,2,-1
 819 511 l 0,3,-1
 270.5 307 l 0,4,-1
 819 103.5 l 0,5,-1
 819 40 l 0,6,-1
 205 275.5 l 0,0,-1
EndSplineSet
EndChar

StartChar: equal
Encoding: 32 61 32
Width: 1024
VWidth: 500
Flags: W
LayerCount: 2
Fore
SplineSet
205 368.5 m 0,0,-1
 205 432 l 0,1,-1
 819 432 l 0,2,-1
 819 368.5 l 0,3,-1
 205 368.5 l 0,0,-1
205 182.5 m 0,4,-1
 205 246 l 0,5,-1
 819 246 l 0,6,-1
 819 182.5 l 0,7,-1
 205 182.5 l 0,4,-1
EndSplineSet
EndChar

StartChar: greater
Encoding: 33 62 33
Width: 1024
VWidth: 500
Flags: W
LayerCount: 2
Fore
SplineSet
205 40 m 0,0,-1
 205 103.5 l 0,1,-1
 753.5 307 l 0,2,-1
 205 511 l 0,3,-1
 205 574.5 l 0,4,-1
 819 339 l 0,5,-1
 819 275.5 l 0,6,-1
 205 40 l 0,0,-1
EndSplineSet
EndChar

StartChar: question
Encoding: 34 63 34
Width: 534
VWidth: 500
Flags: W
LayerCount: 2
Fore
SplineSet
469 509 m 0,0,1
 469 476.5 469 476.5 459.5 449.75 c 0,2,3
 450 423 450 423 434.25 401.25 c 0,4,5
 418.5 379.5 418.5 379.5 398.75 363 c 0,6,7
 379 346.5 379 346.5 358 334 c 0,8,9
 309 305 309 305 247 290 c 0,10,-1
 247 203 l 0,11,-1
 177 203 l 0,12,-1
 177 339 l 0,13,14
 218.5 350 218.5 350 251 372.5 c 0,15,16
 265 382 265 382 278.25 395 c 0,17,18
 291.5 408 291.5 408 302 425 c 0,19,20
 312.5 442 312.5 442 319 463.25 c 0,21,22
 325.5 484.5 325.5 484.5 325.5 511 c 0,23,24
 325.5 540 325.5 540 317.25 563.75 c 0,25,26
 309 587.5 309 587.5 292.25 604.75 c 0,27,28
 275.5 622 275.5 622 250.25 631.5 c 0,29,30
 225 641 225 641 191.5 641 c 0,31,-1
 145.5 518 l 0,32,33
 145 517.5 145 517.5 143 517 c 0,34,35
 141.5 516.5 141.5 516.5 139.25 516.25 c 0,36,37
 137 516 137 516 133 516 c 0,38,39
 123 516 123 516 108 517.25 c 0,40,41
 93 518.5 93 518.5 79 525 c 0,42,43
 65 531.5 65 531.5 55 544.5 c 0,44,45
 45 557.5 45 557.5 45 581.5 c 0,46,47
 45 615 45 615 63.25 638.25 c 0,48,49
 81.5 661.5 81.5 661.5 109.5 676 c 0,50,51
 137.5 690.5 137.5 690.5 171.5 697 c 0,52,53
 205.5 703.5 205.5 703.5 236.5 703.5 c 0,54,55
 286 703.5 286 703.5 328.5 689.75 c 0,56,57
 371 676 371 676 402.25 650.75 c 0,58,59
 433.5 625.5 433.5 625.5 451.25 589.5 c 0,60,61
 469 553.5 469 553.5 469 509 c 0,0,1
296 66.5 m 0,62,63
 296 49.5 296 49.5 289.25 35 c 0,64,65
 282.5 20.5 282.5 20.5 271 10 c 0,66,67
 259.5 -0.5 259.5 -0.5 244.25 -6.5 c 0,68,69
 229 -12.5 229 -12.5 212 -12.5 c 0,70,71
 195.5 -12.5 195.5 -12.5 181.25 -5.75 c 0,72,73
 167 1 167 1 156.5 12.5 c 0,74,75
 146 24 146 24 140 39 c 0,76,77
 134 54 134 54 134 70.5 c 0,78,79
 134 87.5 134 87.5 140.25 102.25 c 0,80,81
 146.5 117 146.5 117 157 128.25 c 0,82,83
 167.5 139.5 167.5 139.5 182 146 c 0,84,85
 196.5 152.5 196.5 152.5 213 152.5 c 0,86,87
 231.5 152.5 231.5 152.5 246.75 145.5 c 0,88,89
 262 138.5 262 138.5 273 126.75 c 0,90,91
 284 115 284 115 290 99.25 c 0,92,93
 296 83.5 296 83.5 296 66.5 c 0,62,63
EndSplineSet
EndChar

StartChar: at
Encoding: 35 64 35
Width: 958
VWidth: 500
Flags: W
LayerCount: 2
Fore
SplineSet
583.5 397.5 m 0,0,1
 585 403.5 585 403.5 582.75 412.75 c 0,2,3
 580.5 422 580.5 422 575 430.5 c 0,4,5
 569.5 439 569.5 439 560 445.25 c 0,6,7
 550.5 451.5 550.5 451.5 537.5 451.5 c 0,8,9
 506.5 451.5 506.5 451.5 479.25 435 c 0,10,11
 452 418.5 452 418.5 431.5 389.25 c 0,12,13
 411 360 411 360 399 319.5 c 0,14,15
 387 279 387 279 387 231.5 c 0,16,17
 387 202.5 387 202.5 392.75 182.25 c 0,18,19
 398.5 162 398.5 162 408 149.25 c 0,20,21
 417.5 136.5 417.5 136.5 429 130.75 c 0,22,23
 440.5 125 440.5 125 452.5 125 c 0,24,25
 469 125 469 125 482.25 131.25 c 0,26,27
 495.5 137.5 495.5 137.5 506.25 147 c 0,28,29
 517 156.5 517 156.5 526 167.5 c 0,30,31
 535 178.5 535 178.5 542.5 187.5 c 0,32,-1
 583.5 397.5 l 0,0,1
899 377 m 0,33,34
 899 326 899 326 887.75 282.25 c 0,35,36
 876.5 238.5 876.5 238.5 857.25 202.25 c 0,37,38
 838 166 838 166 812.25 137.75 c 0,39,40
 786.5 109.5 786.5 109.5 757 90.25 c 0,41,42
 727.5 71 727.5 71 696.25 61 c 0,43,44
 665 51 665 51 635 51 c 0,45,46
 611.5 51 611.5 51 595.75 57 c 0,47,48
 580 63 580 63 569.75 72.75 c 0,49,50
 559.5 82.5 559.5 82.5 554.25 95.5 c 0,51,52
 549 108.5 549 108.5 547 123 c 0,53,54
 531 109.5 531 109.5 514.5 96.75 c 0,55,56
 498 84 498 84 480.5 74 c 0,57,58
 463 64 463 64 444.5 58 c 0,59,60
 426 52 426 52 406.5 52 c 0,61,62
 371.5 52 371.5 52 345 64.75 c 0,63,64
 318.5 77.5 318.5 77.5 300.5 100.25 c 0,65,66
 282.5 123 282.5 123 273.25 154 c 0,67,68
 264 185 264 185 264 222 c 0,69,70
 264 279.5 264 279.5 285.25 330.25 c 0,71,72
 306.5 381 306.5 381 343 419.25 c 0,73,74
 379.5 457.5 379.5 457.5 428.75 479.75 c 0,75,76
 478 502 478 502 533.5 502 c 0,77,78
 545.5 502 545.5 502 557.75 499 c 0,79,80
 570 496 570 496 582 491.25 c 0,81,82
 594 486.5 594 486.5 605.25 481 c 0,83,84
 616.5 475.5 616.5 475.5 626.5 471 c 0,85,-1
 640 496.5 l 0,86,-1
 726 496.5 l 0,87,-1
 721 477.5 l 0,88,89
 717.5 462.5 717.5 462.5 712.25 440.5 c 0,90,91
 707 418.5 707 418.5 700.75 391.5 c 0,92,93
 694.5 364.5 694.5 364.5 688 337 c 0,94,95
 673 272.5 673 272.5 654.5 192.5 c 0,96,97
 650.5 175.5 650.5 175.5 648.5 161.5 c 0,98,99
 646.5 147.5 646.5 147.5 648.5 137.5 c 0,100,101
 650.5 127.5 650.5 127.5 657.25 122 c 0,102,103
 664 116.5 664 116.5 678 116.5 c 0,104,105
 688 116.5 688 116.5 702.75 124.25 c 0,106,107
 717.5 132 717.5 132 733.25 147 c 0,108,109
 749 162 749 162 764.5 184.25 c 0,110,111
 780 206.5 780 206.5 792.25 235.25 c 0,112,113
 804.5 264 804.5 264 812.25 299.25 c 0,114,115
 820 334.5 820 334.5 820 376 c 0,116,117
 820 424.5 820 424.5 808.5 463.75 c 0,118,119
 797 503 797 503 777.5 533.5 c 0,120,121
 758 564 758 564 731.25 586.25 c 0,122,123
 704.5 608.5 704.5 608.5 674.5 623 c 0,124,125
 644.5 637.5 644.5 637.5 612 644.5 c 0,126,127
 579.5 651.5 579.5 651.5 548 651.5 c 0,128,129
 494 651.5 494 651.5 444.75 638.25 c 0,130,131
 395.5 625 395.5 625 352.75 600.75 c 0,132,133
 310 576.5 310 576.5 275 541.5 c 0,134,135
 240 506.5 240 506.5 215 462.75 c 0,136,137
 190 419 190 419 176.5 367.75 c 0,138,139
 163 316.5 163 316.5 163 259 c 0,140,141
 163 180 163 180 187.5 113.75 c 0,142,143
 212 47.5 212 47.5 257 -1 c 0,144,145
 302 -49.5 302 -49.5 365.5 -76.5 c 0,146,147
 429 -103.5 429 -103.5 507 -103.5 c 0,148,149
 547.5 -103.5 547.5 -103.5 584 -96.75 c 0,150,151
 620.5 -90 620.5 -90 654.5 -78.5 c 0,152,153
 688.5 -67 688.5 -67 721.25 -51.25 c 0,154,155
 754 -35.5 754 -35.5 786.5 -17.5 c 0,156,-1
 808 -68.5 l 0,157,158
 773.5 -86.5 773.5 -86.5 736.5 -103.25 c 0,159,160
 699.5 -120 699.5 -120 659.5 -132.75 c 0,161,162
 619.5 -145.5 619.5 -145.5 575.25 -153.25 c 0,163,164
 531 -161 531 -161 482.5 -161 c 0,165,166
 422.5 -161 422.5 -161 368 -148.25 c 0,167,168
 313.5 -135.5 313.5 -135.5 266.5 -111 c 0,169,170
 219.5 -86.5 219.5 -86.5 181.25 -51.5 c 0,171,172
 143 -16.5 143 -16.5 116 28.25 c 0,173,174
 89 73 89 73 74.25 126.25 c 0,175,176
 59.5 179.5 59.5 179.5 59.5 240.5 c 0,177,178
 59.5 315 59.5 315 77.5 378.5 c 0,179,180
 95.5 442 95.5 442 127.75 493.5 c 0,181,182
 160 545 160 545 204.5 584.25 c 0,183,184
 249 623.5 249 623.5 301.75 650 c 0,185,186
 354.5 676.5 354.5 676.5 413.75 690 c 0,187,188
 473 703.5 473 703.5 534.5 703.5 c 0,189,190
 617.5 703.5 617.5 703.5 685 681.5 c 0,191,192
 752.5 659.5 752.5 659.5 800 617.75 c 0,193,194
 847.5 576 847.5 576 873.25 515.25 c 0,195,196
 899 454.5 899 454.5 899 377 c 0,33,34
EndSplineSet
EndChar

StartChar: A
Encoding: 36 65 36
Width: 702
VWidth: 500
Flags: W
LayerCount: 2
Fore
SplineSet
414.5 0 m 0,0,-1
 414.5 52 l 0,1,-1
 475 59.5 l 0,2,3
 480 60.5 480 60.5 483.5 66 c 0,4,5
 487 71.5 487 71.5 484.5 77 c 0,6,-1
 429 239.5 l 0,7,-1
 210 239.5 l 0,8,-1
 153.5 81 l 0,9,10
 150.5 73 150.5 73 156.5 66.5 c 0,11,12
 162.5 60 162.5 60 168 59.5 c 0,13,-1
 225.5 52 l 0,14,-1
 225.5 0 l 0,15,-1
 5 0 l 0,16,-1
 5 52 l 0,17,-1
 62.5 60.5 l 0,18,-1
 292 703.5 l 0,19,-1
 408.5 703.5 l 0,20,-1
 636 79 l 0,21,22
 640 69.5 640 69.5 643.75 65.75 c 0,23,24
 647.5 62 647.5 62 658.5 59.5 c 0,25,-1
 697.5 52 l 0,26,-1
 697.5 0 l 0,27,-1
 414.5 0 l 0,0,-1
315.5 546 m 0,28,-1
 229.5 300 l 0,29,-1
 403.5 300 l 0,30,-1
 315.5 546 l 0,28,-1
EndSplineSet
EndChar

StartChar: B
Encoding: 37 66 37
Width: 654
VWidth: 500
Flags: W
LayerCount: 2
Fore
SplineSet
426 512 m 0,0,1
 426 534.5 426 534.5 421 555.75 c 0,2,3
 416 577 416 577 401.75 593.5 c 0,4,5
 387.5 610 387.5 610 361.75 620 c 0,6,7
 336 630 336 630 295 630 c 0,8,-1
 290 630 l 0,9,10
 288.5 630 288.5 630 284.75 629.75 c 0,11,12
 281 629.5 281 629.5 273.75 629 c 0,13,14
 266.5 628.5 266.5 628.5 253 627.5 c 0,15,-1
 253 384 l 0,16,17
 258.5 383.5 258.5 383.5 264 383.5 c 0,18,19
 268.5 383 268.5 383 272.5 383 c 0,20,-1
 278.5 383 l 0,21,22
 322.5 383 322.5 383 351 393 c 0,23,24
 379.5 403 379.5 403 396.25 420.25 c 0,25,26
 413 437.5 413 437.5 419.5 461.25 c 0,27,28
 426 485 426 485 426 512 c 0,0,1
463 192.5 m 0,29,30
 463 258.5 463 258.5 425 290.5 c 0,31,32
 387 322.5 387 322.5 304 322.5 c 0,33,-1
 285.5 322.5 l 0,34,35
 274.5 322.5 274.5 322.5 253 321.5 c 0,36,-1
 253 60.5 l 0,37,38
 264.5 60 264.5 60 274.5 59.5 c 0,39,40
 283 59 283 59 290.75 58.75 c 0,41,42
 298.5 58.5 298.5 58.5 301 58.5 c 0,43,44
 340 58.5 340 58.5 370.25 65.5 c 0,45,46
 400.5 72.5 400.5 72.5 421.25 88.5 c 0,47,48
 442 104.5 442 104.5 452.5 130 c 0,49,50
 463 155.5 463 155.5 463 192.5 c 0,29,30
616.5 199.5 m 0,51,52
 616.5 151.5 616.5 151.5 606 118.25 c 0,53,54
 595.5 85 595.5 85 577.75 62.75 c 0,55,56
 560 40.5 560 40.5 536.25 28 c 0,57,58
 512.5 15.5 512.5 15.5 486.25 9.25 c 0,59,60
 460 3 460 3 432.75 1.5 c 0,61,62
 405.5 0 405.5 0 380 0 c 0,63,-1
 28.5 0 l 0,64,-1
 28.5 52 l 0,65,-1
 84 57.5 l 0,66,67
 93.5 58.5 93.5 58.5 100 64.25 c 0,68,69
 106.5 70 106.5 70 106.5 80 c 0,70,-1
 106.5 607 l 0,71,72
 106.5 617 106.5 617 100 623 c 0,73,74
 93.5 629 93.5 629 84 630 c 0,75,-1
 28.5 635 l 0,76,-1
 28.5 687 l 0,77,-1
 358.5 687 l 0,78,79
 377 687 377 687 400.25 685.25 c 0,80,81
 423.5 683.5 423.5 683.5 447.75 677.75 c 0,82,83
 472 672 472 672 495 661.5 c 0,84,85
 518 651 518 651 536.25 633.25 c 0,86,87
 554.5 615.5 554.5 615.5 565.5 589.75 c 0,88,89
 576.5 564 576.5 564 576.5 528.5 c 0,90,91
 576.5 497.5 576.5 497.5 568 474 c 0,92,93
 559.5 450.5 559.5 450.5 546 433 c 0,94,95
 532.5 415.5 532.5 415.5 516 403.5 c 0,96,97
 499.5 391.5 499.5 391.5 483.25 383.5 c 0,98,99
 467 375.5 467 375.5 453 371.25 c 0,100,101
 439 367 439 367 431.5 365.5 c 0,102,103
 450 365 450 365 471.25 362 c 0,104,105
 492.5 359 492.5 359 513 351.75 c 0,106,107
 533.5 344.5 533.5 344.5 552.25 332.5 c 0,108,109
 571 320.5 571 320.5 585.25 302.25 c 0,110,111
 599.5 284 599.5 284 608 258.75 c 0,112,113
 616.5 233.5 616.5 233.5 616.5 199.5 c 0,51,52
EndSplineSet
EndChar

StartChar: C
Encoding: 38 67 38
Width: 651
VWidth: 500
Flags: W
LayerCount: 2
Fore
SplineSet
614.5 24.5 m 0,0,1
 605 20.5 605 20.5 584.75 13.75 c 0,2,3
 564.5 7 564.5 7 536 0.25 c 0,4,5
 507.5 -6.5 507.5 -6.5 472.25 -11.5 c 0,6,7
 437 -16.5 437 -16.5 397.5 -16.5 c 0,8,9
 345 -16.5 345 -16.5 298 -4.5 c 0,10,11
 251 7.5 251 7.5 211 30 c 0,12,13
 171 52.5 171 52.5 139 84.5 c 0,14,15
 107 116.5 107 116.5 84.5 156.75 c 0,16,17
 62 197 62 197 50 244.25 c 0,18,19
 38 291.5 38 291.5 38 344 c 0,20,21
 38 424 38 424 65.75 490 c 0,22,23
 93.5 556 93.5 556 142 603.5 c 0,24,25
 190.5 651 190.5 651 256.5 677.25 c 0,26,27
 322.5 703.5 322.5 703.5 398.5 703.5 c 0,28,29
 427.5 703.5 427.5 703.5 451.5 701 c 0,30,31
 475.5 698.5 475.5 698.5 499.75 693.25 c 0,32,33
 524 688 524 688 551.25 680 c 0,34,35
 578.5 672 578.5 672 614.5 660.5 c 0,36,-1
 614.5 486.5 l 0,37,-1
 534.5 486.5 l 0,38,-1
 512 601 l 0,39,40
 512 603.5 512 603.5 508 609.25 c 0,41,42
 504 615 504 615 498.5 617.5 c 0,43,44
 494.5 619.5 494.5 619.5 486.25 622.25 c 0,45,46
 478 625 478 625 467.75 627.5 c 0,47,48
 457.5 630 457.5 630 446.5 632 c 0,49,50
 435.5 634 435.5 634 426 634 c 0,51,52
 373.5 634 373.5 634 331.25 613.25 c 0,53,54
 289 592.5 289 592.5 259.5 554.25 c 0,55,56
 230 516 230 516 214.25 462.25 c 0,57,58
 198.5 408.5 198.5 408.5 198.5 342 c 0,59,60
 198.5 306 198.5 306 204 270.5 c 0,61,62
 209.5 235 209.5 235 221.25 202.5 c 0,63,64
 233 170 233 170 251.75 142.25 c 0,65,66
 270.5 114.5 270.5 114.5 296.5 94 c 0,67,68
 322.5 73.5 322.5 73.5 356.75 61.75 c 0,69,70
 391 50 391 50 434 50 c 0,71,72
 453 50 453 50 469 54.75 c 0,73,74
 485 59.5 485 59.5 493.5 63.5 c 0,75,76
 497.5 65 497.5 65 503.5 71.75 c 0,77,78
 509.5 78.5 509.5 78.5 511 83 c 0,79,-1
 533.5 204 l 0,80,-1
 614.5 204 l 0,81,-1
 614.5 24.5 l 0,0,1
EndSplineSet
EndChar

StartChar: D
Encoding: 39 68 39
Width: 741
VWidth: 500
Flags: W
LayerCount: 2
Fore
SplineSet
703.5 351 m 0,0,1
 703.5 263 703.5 263 678.25 197.25 c 0,2,3
 653 131.5 653 131.5 606.25 87.5 c 0,4,5
 559.5 43.5 559.5 43.5 493.5 21.75 c 0,6,7
 427.5 0 427.5 0 346 0 c 0,8,-1
 26.5 0 l 0,9,-1
 26.5 52 l 0,10,-1
 83 57.5 l 0,11,12
 92 58.5 92 58.5 99.25 64.25 c 0,13,14
 106.5 70 106.5 70 106.5 80 c 0,15,-1
 106.5 607 l 0,16,17
 106.5 617 106.5 617 99.25 623 c 0,18,19
 92 629 92 629 83 630 c 0,20,-1
 26.5 635 l 0,21,-1
 26.5 687 l 0,22,-1
 340 687 l 0,23,24
 427.5 687 427.5 687 495.25 662.5 c 0,25,26
 563 638 563 638 609.25 593.75 c 0,27,28
 655.5 549.5 655.5 549.5 679.5 487.75 c 0,29,30
 703.5 426 703.5 426 703.5 351 c 0,0,1
538.5 340 m 0,31,32
 538.5 399 538.5 399 529.5 443.25 c 0,33,34
 520.5 487.5 520.5 487.5 504.75 519.25 c 0,35,36
 489 551 489 551 467.5 572 c 0,37,38
 446 593 446 593 421.5 605.25 c 0,39,40
 397 617.5 397 617.5 370.5 622.5 c 0,41,42
 344 627.5 344 627.5 317.5 627.5 c 0,43,-1
 253 627.5 l 0,44,-1
 253 60.5 l 0,45,-1
 338 62.5 l 0,46,47
 360 63 360 63 383.5 68.5 c 0,48,49
 407 74 407 74 429.25 86.5 c 0,50,51
 451.5 99 451.5 99 471.25 119.75 c 0,52,53
 491 140.5 491 140.5 506 171.25 c 0,54,55
 521 202 521 202 529.75 243.75 c 0,56,57
 538.5 285.5 538.5 285.5 538.5 340 c 0,31,32
EndSplineSet
EndChar

StartChar: E
Encoding: 40 69 40
Width: 612
VWidth: 500
Flags: W
LayerCount: 2
Fore
SplineSet
26.5 0 m 0,0,-1
 26.5 52 l 0,1,-1
 83 57.5 l 0,2,3
 92 58.5 92 58.5 99.25 64.25 c 0,4,5
 106.5 70 106.5 70 106.5 80 c 0,6,-1
 106.5 607 l 0,7,8
 106.5 617 106.5 617 99.25 623 c 0,9,10
 92 629 92 629 83 630 c 0,11,-1
 26.5 635 l 0,12,-1
 26.5 687 l 0,13,-1
 549 687 l 0,14,-1
 549 523.5 l 0,15,-1
 475 523.5 l 0,16,-1
 459 608.5 l 0,17,18
 457 616 457 616 452.25 621.75 c 0,19,20
 447.5 627.5 447.5 627.5 440.5 627.5 c 0,21,-1
 250 627.5 l 0,22,-1
 250 387 l 0,23,-1
 371.5 387 l 0,24,25
 378.5 387 378.5 387 383.25 393.5 c 0,26,27
 388 400 388 400 389 405.5 c 0,28,-1
 398.5 475 l 0,29,-1
 462 475 l 0,30,-1
 462 234.5 l 0,31,-1
 398.5 234.5 l 0,32,-1
 389 304 l 0,33,34
 388 309.5 388 309.5 383.25 316 c 0,35,36
 378.5 322.5 378.5 322.5 371.5 322.5 c 0,37,-1
 250 322.5 l 0,38,-1
 250 61.5 l 0,39,-1
 473 61.5 l 0,40,41
 479.5 61.5 479.5 61.5 485 68.5 c 0,42,43
 490.5 75.5 490.5 75.5 491.5 81 c 0,44,-1
 507 187.5 l 0,45,-1
 581.5 187.5 l 0,46,-1
 581.5 0 l 0,47,-1
 26.5 0 l 0,0,-1
EndSplineSet
EndChar

StartChar: F
Encoding: 41 70 41
Width: 572
VWidth: 500
Flags: W
LayerCount: 2
Fore
SplineSet
471 512 m 0,0,-1
 456.5 605 l 0,1,2
 455 613 455 613 450.25 618.75 c 0,3,4
 445.5 624.5 445.5 624.5 438.5 624.5 c 0,5,-1
 253 624.5 l 0,6,-1
 253 372.5 l 0,7,-1
 380 372.5 l 0,8,9
 387 372.5 387 372.5 391.75 379 c 0,10,11
 396.5 385.5 396.5 385.5 397.5 391 c 0,12,-1
 407.5 461 l 0,13,-1
 471 461 l 0,14,-1
 471 219 l 0,15,-1
 407.5 219 l 0,16,-1
 397.5 289 l 0,17,18
 396.5 294.5 396.5 294.5 391.25 300.75 c 0,19,20
 386 307 386 307 380 307 c 0,21,-1
 253 307 l 0,22,-1
 253 80 l 0,23,24
 253 70 253 70 259.5 64.25 c 0,25,26
 266 58.5 266 58.5 275.5 57.5 c 0,27,-1
 342 52 l 0,28,-1
 342 0 l 0,29,-1
 27.5 0 l 0,30,-1
 27.5 52 l 0,31,-1
 83 57.5 l 0,32,33
 92 58.5 92 58.5 99.25 64.25 c 0,34,35
 106.5 70 106.5 70 106.5 80 c 0,36,-1
 106.5 607 l 0,37,38
 106.5 617 106.5 617 99.25 623 c 0,39,40
 92 629 92 629 83 630 c 0,41,-1
 24.5 635 l 0,42,-1
 24.5 687 l 0,43,-1
 545 687 l 0,44,-1
 545 512 l 0,45,-1
 471 512 l 0,0,-1
EndSplineSet
EndChar

StartChar: G
Encoding: 42 71 42
Width: 733
VWidth: 500
Flags: W
LayerCount: 2
Fore
SplineSet
657.5 282.5 m 0,0,1
 648 281.5 648 281.5 641 275.75 c 0,2,3
 634 270 634 270 634 260 c 0,4,-1
 634 31.5 l 0,5,6
 603.5 18 603.5 18 566.5 7.5 c 0,7,8
 534.5 -1.5 534.5 -1.5 491.25 -9 c 0,9,10
 448 -16.5 448 -16.5 396.5 -16.5 c 0,11,12
 319.5 -16.5 319.5 -16.5 254 9.25 c 0,13,14
 188.5 35 188.5 35 140.5 82.5 c 0,15,16
 92.5 130 92.5 130 65.25 196.5 c 0,17,18
 38 263 38 263 38 345 c 0,19,20
 38 428 38 428 65.5 494.5 c 0,21,22
 93 561 93 561 141.75 607.5 c 0,23,24
 190.5 654 190.5 654 257.75 678.75 c 0,25,26
 325 703.5 325 703.5 404.5 703.5 c 0,27,28
 455 703.5 455 703.5 497 697.25 c 0,29,30
 539 691 539 691 570 683.5 c 0,31,32
 606 674.5 606 674.5 635 663.5 c 0,33,-1
 635 486.5 l 0,34,-1
 555 486.5 l 0,35,-1
 534.5 597 l 0,36,37
 533.5 602.5 533.5 602.5 528 609.25 c 0,38,39
 522.5 616 522.5 616 516 618.5 c 0,40,41
 492 627.5 492 627.5 471.5 631.75 c 0,42,43
 451 636 451 636 442.5 636 c 0,44,45
 398 636 398 636 362.25 624.75 c 0,46,47
 326.5 613.5 326.5 613.5 299.25 593.75 c 0,48,49
 272 574 272 574 252.5 547 c 0,50,51
 233 520 233 520 220.5 488 c 0,52,53
 208 456 208 456 202.25 420.75 c 0,54,55
 196.5 385.5 196.5 385.5 196.5 349 c 0,56,57
 196.5 283 196.5 283 213 229.75 c 0,58,59
 229.5 176.5 229.5 176.5 261.25 138.75 c 0,60,61
 293 101 293 101 339.5 80.75 c 0,62,63
 386 60.5 386 60.5 446.5 60.5 c 0,64,65
 453.5 60.5 453.5 60.5 463.75 59.75 c 0,66,67
 474 59 474 59 492.5 60.5 c 0,68,-1
 492.5 260 l 0,69,70
 492.5 270 492.5 270 485.5 276.25 c 0,71,72
 478.5 282.5 478.5 282.5 469 282.5 c 0,73,-1
 400.5 287.5 l 0,74,-1
 400.5 340 l 0,75,-1
 709.5 340 l 0,76,-1
 709.5 287.5 l 0,77,-1
 657.5 282.5 l 0,0,1
EndSplineSet
EndChar

StartChar: H
Encoding: 43 72 43
Width: 787
VWidth: 500
Flags: W
LayerCount: 2
Fore
SplineSet
459 0 m 0,0,-1
 459 52 l 0,1,-1
 512 57.5 l 0,2,3
 521.5 58.5 521.5 58.5 528 64.25 c 0,4,5
 534.5 70 534.5 70 534.5 80 c 0,6,-1
 534.5 327.5 l 0,7,-1
 253 327.5 l 0,8,-1
 253 80 l 0,9,10
 253 70 253 70 259.5 64.25 c 0,11,12
 266 58.5 266 58.5 275.5 57.5 c 0,13,-1
 329.5 52 l 0,14,-1
 329.5 0 l 0,15,-1
 30.5 0 l 0,16,-1
 30.5 52 l 0,17,-1
 84 57.5 l 0,18,19
 93.5 58.5 93.5 58.5 100 64.25 c 0,20,21
 106.5 70 106.5 70 106.5 80 c 0,22,-1
 106.5 607 l 0,23,24
 106.5 617 106.5 617 100 623 c 0,25,26
 93.5 629 93.5 629 84 630 c 0,27,-1
 30.5 635 l 0,28,-1
 30.5 687 l 0,29,-1
 329.5 687 l 0,30,-1
 329.5 635 l 0,31,-1
 275.5 630 l 0,32,33
 266 629 266 629 259.5 623 c 0,34,35
 253 617 253 617 253 607 c 0,36,-1
 253 393 l 0,37,-1
 534.5 393 l 0,38,-1
 534.5 607 l 0,39,40
 534.5 617 534.5 617 528 623 c 0,41,42
 521.5 629 521.5 629 512 630 c 0,43,-1
 459 635 l 0,44,-1
 459 687 l 0,45,-1
 756.5 687 l 0,46,-1
 756.5 635 l 0,47,-1
 703.5 630 l 0,48,49
 695 629 695 629 688 623 c 0,50,51
 681 617 681 617 681 607 c 0,52,-1
 681 80 l 0,53,54
 681 70 681 70 687.5 64.25 c 0,55,56
 694 58.5 694 58.5 703.5 57.5 c 0,57,-1
 756.5 52 l 0,58,-1
 756.5 0 l 0,59,-1
 459 0 l 0,0,-1
EndSplineSet
EndChar

StartChar: I
Encoding: 44 73 44
Width: 367
VWidth: 500
Flags: W
LayerCount: 2
Fore
SplineSet
23.5 0 m 0,0,-1
 23.5 52 l 0,1,-1
 87 57.5 l 0,2,3
 96.5 58.5 96.5 58.5 103 64.25 c 0,4,5
 109.5 70 109.5 70 109.5 80 c 0,6,-1
 109.5 607 l 0,7,8
 109.5 617 109.5 617 103 623 c 0,9,10
 96.5 629 96.5 629 87 630 c 0,11,-1
 23.5 635 l 0,12,-1
 23.5 687 l 0,13,-1
 343 687 l 0,14,-1
 343 635 l 0,15,-1
 279.5 630 l 0,16,17
 271 629 271 629 263.5 623 c 0,18,19
 256 617 256 617 256 607 c 0,20,-1
 256 80 l 0,21,22
 256 70 256 70 263.5 64.25 c 0,23,24
 271 58.5 271 58.5 279.5 57.5 c 0,25,-1
 343 52 l 0,26,-1
 343 0 l 0,27,-1
 23.5 0 l 0,0,-1
EndSplineSet
EndChar

StartChar: J
Encoding: 45 74 45
Width: 524
VWidth: 500
Flags: W
LayerCount: 2
Fore
SplineSet
439.5 630 m 0,0,1
 430 629 430 629 423.5 623 c 0,2,3
 417 617 417 617 417 607 c 0,4,-1
 417 248 l 0,5,6
 417 188.5 417 188.5 403 140 c 0,7,8
 389 91.5 389 91.5 359.75 56.5 c 0,9,10
 330.5 21.5 330.5 21.5 285.25 2.5 c 0,11,12
 240 -16.5 240 -16.5 177 -16.5 c 0,13,14
 156 -16.5 156 -16.5 134 -13.5 c 0,15,16
 112 -10.5 112 -10.5 91.75 -6.25 c 0,17,18
 71.5 -2 71.5 -2 54 3 c 0,19,20
 36.5 8 36.5 8 24.5 12.5 c 0,21,-1
 24.5 199.5 l 0,22,-1
 104.5 199.5 l 0,23,-1
 128 62.5 l 0,24,25
 129.5 57.5 129.5 57.5 133 53.5 c 0,26,27
 136 50 136 50 141 47.5 c 0,28,29
 146 45 146 45 154.5 45 c 0,30,31
 183 45 183 45 204.75 55.5 c 0,32,33
 226.5 66 226.5 66 241.5 90 c 0,34,35
 256.5 114 256.5 114 264 153.5 c 0,36,37
 271.5 193 271.5 193 271.5 251 c 0,38,-1
 271.5 607 l 0,39,40
 271.5 617 271.5 617 264.5 623 c 0,41,42
 257.5 629 257.5 629 249 630 c 0,43,-1
 185.5 635 l 0,44,-1
 185.5 687 l 0,45,-1
 502 687 l 0,46,-1
 502 635 l 0,47,-1
 439.5 630 l 0,0,1
EndSplineSet
EndChar

StartChar: K
Encoding: 46 75 46
Width: 698
VWidth: 500
Flags: W
LayerCount: 2
Fore
SplineSet
476 0 m 0,0,-1
 476 38 l 0,1,-1
 309 300 l 0,2,-1
 253 300 l 0,3,-1
 253 80 l 0,4,5
 253 70 253 70 259.5 64.25 c 0,6,7
 266 58.5 266 58.5 275.5 57.5 c 0,8,-1
 329.5 52 l 0,9,-1
 329.5 0 l 0,10,-1
 29.5 0 l 0,11,-1
 29.5 52 l 0,12,-1
 84 57.5 l 0,13,14
 93.5 58.5 93.5 58.5 100 64.25 c 0,15,16
 106.5 70 106.5 70 106.5 80 c 0,17,-1
 106.5 607 l 0,18,19
 106.5 617 106.5 617 100 623 c 0,20,21
 93.5 629 93.5 629 84 630 c 0,22,-1
 29.5 635 l 0,23,-1
 29.5 687 l 0,24,-1
 329.5 687 l 0,25,-1
 329.5 635 l 0,26,-1
 275.5 630 l 0,27,28
 266 629 266 629 259.5 623 c 0,29,30
 253 617 253 617 253 607 c 0,31,-1
 253 349 l 0,32,-1
 281.5 349 l 0,33,-1
 502 617.5 l 0,34,35
 504.5 620.5 504.5 620.5 503.25 625.25 c 0,36,37
 502 630 502 630 496.5 630 c 0,38,-1
 438.5 635 l 0,39,-1
 438.5 687 l 0,40,-1
 673 687 l 0,41,-1
 673 635 l 0,42,43
 662 634 662 634 649.5 633 c 0,44,45
 639 632 639 632 626.25 630.75 c 0,46,47
 613.5 629.5 613.5 629.5 601 628.5 c 0,48,-1
 410.5 401.5 l 0,49,-1
 625.5 58.5 l 0,50,-1
 698.5 52 l 0,51,-1
 698.5 0 l 0,52,-1
 476 0 l 0,0,-1
EndSplineSet
EndChar

StartChar: L
Encoding: 47 76 47
Width: 567
VWidth: 500
Flags: W
LayerCount: 2
Fore
SplineSet
27.5 0 m 0,0,-1
 27.5 52 l 0,1,-1
 84 57.5 l 0,2,3
 93.5 58.5 93.5 58.5 100 64.25 c 0,4,5
 106.5 70 106.5 70 106.5 80 c 0,6,-1
 106.5 607 l 0,7,8
 106.5 617 106.5 617 100 623 c 0,9,10
 93.5 629 93.5 629 84 630 c 0,11,-1
 27.5 635 l 0,12,-1
 27.5 687 l 0,13,-1
 333 687 l 0,14,-1
 333 635 l 0,15,-1
 275.5 630 l 0,16,17
 266 629 266 629 259.5 623 c 0,18,19
 253 617 253 617 253 607 c 0,20,-1
 253 62.5 l 0,21,-1
 431 62.5 l 0,22,23
 436.5 62.5 436.5 62.5 440.75 65 c 0,24,25
 445 67.5 445 67.5 448.25 71.25 c 0,26,27
 451.5 75 451.5 75 453.25 79 c 0,28,29
 455 83 455 83 455.5 86 c 0,30,-1
 469 204 l 0,31,-1
 551 204 l 0,32,-1
 551 0 l 0,33,-1
 27.5 0 l 0,0,-1
EndSplineSet
EndChar

StartChar: M
Encoding: 48 77 48
Width: 924
VWidth: 500
Flags: W
LayerCount: 2
Fore
SplineSet
598 0 m 0,0,-1
 598 52 l 0,1,-1
 648 57.5 l 0,2,3
 656.5 58.5 656.5 58.5 663.5 64.25 c 0,4,5
 670.5 70 670.5 70 670.5 80 c 0,6,-1
 670.5 617.5 l 0,7,-1
 465 0 l 0,8,-1
 386 0 l 0,9,-1
 184.5 613.5 l 0,10,-1
 184.5 80 l 0,11,12
 184.5 70 184.5 70 191.5 64.25 c 0,13,14
 198.5 58.5 198.5 58.5 207 57.5 c 0,15,-1
 262 52 l 0,16,-1
 262 0 l 0,17,-1
 25.5 0 l 0,18,-1
 25.5 52 l 0,19,-1
 83 57.5 l 0,20,21
 92 58.5 92 58.5 99.25 64.25 c 0,22,23
 106.5 70 106.5 70 106.5 80 c 0,24,-1
 106.5 607 l 0,25,26
 106.5 617 106.5 617 99.25 623 c 0,27,28
 92 629 92 629 83 630 c 0,29,-1
 25.5 635 l 0,30,-1
 25.5 687 l 0,31,-1
 319.5 687 l 0,32,-1
 319.5 658.5 l 0,33,-1
 464 220 l 0,34,-1
 607 658.5 l 0,35,-1
 607 687 l 0,36,-1
 898 687 l 0,37,-1
 898 635 l 0,38,-1
 839.5 630 l 0,39,40
 830.5 629 830.5 629 823.75 623 c 0,41,42
 817 617 817 617 817 607 c 0,43,-1
 817 80 l 0,44,45
 817 70 817 70 823.75 64.25 c 0,46,47
 830.5 58.5 830.5 58.5 839.5 57.5 c 0,48,-1
 898 52 l 0,49,-1
 898 0 l 0,50,-1
 598 0 l 0,0,-1
EndSplineSet
EndChar

StartChar: N
Encoding: 49 78 49
Width: 762
VWidth: 500
Flags: W
LayerCount: 2
Fore
SplineSet
677 630 m 0,0,1
 668.5 629 668.5 629 661.5 623 c 0,2,3
 654.5 617 654.5 617 654.5 607 c 0,4,-1
 654.5 0 l 0,5,-1
 529.5 0 l 0,6,-1
 184.5 541.5 l 0,7,-1
 184.5 80 l 0,8,9
 184.5 70 184.5 70 191.5 64.25 c 0,10,11
 198.5 58.5 198.5 58.5 207 57.5 c 0,12,-1
 264 52 l 0,13,-1
 264 0 l 0,14,-1
 27.5 0 l 0,15,-1
 27.5 52 l 0,16,-1
 84 57.5 l 0,17,18
 93.5 58.5 93.5 58.5 100 64.25 c 0,19,20
 106.5 70 106.5 70 106.5 80 c 0,21,-1
 106.5 607 l 0,22,23
 106.5 617 106.5 617 100 623 c 0,24,25
 93.5 629 93.5 629 84 630 c 0,26,-1
 28.5 635 l 0,27,-1
 28.5 687 l 0,28,-1
 281.5 687 l 0,29,-1
 281.5 659.5 l 0,30,-1
 576.5 197.5 l 0,31,-1
 576.5 607 l 0,32,33
 576.5 617 576.5 617 569.25 623 c 0,34,35
 562 629 562 629 553 630 c 0,36,-1
 494.5 635 l 0,37,-1
 494.5 687 l 0,38,-1
 732 687 l 0,39,-1
 732 635 l 0,40,-1
 677 630 l 0,0,1
EndSplineSet
EndChar

StartChar: O
Encoding: 50 79 50
Width: 774
VWidth: 500
Flags: W
LayerCount: 2
Fore
SplineSet
737.5 340 m 0,0,1
 737.5 266.5 737.5 266.5 712.75 201.75 c 0,2,3
 688 137 688 137 642.5 88.5 c 0,4,5
 597 40 597 40 533.5 11.75 c 0,6,7
 470 -16.5 470 -16.5 393 -16.5 c 0,8,9
 316.5 -16.5 316.5 -16.5 251.25 7.75 c 0,10,11
 186 32 186 32 138.75 78.5 c 0,12,13
 91.5 125 91.5 125 64.75 193 c 0,14,15
 38 261 38 261 38 348 c 0,16,17
 38 423.5 38 423.5 61.5 488.75 c 0,18,19
 85 554 85 554 129.25 601.5 c 0,20,21
 173.5 649 173.5 649 237.75 676.25 c 0,22,23
 302 703.5 302 703.5 384 703.5 c 0,24,25
 437 703.5 437 703.5 484 690.25 c 0,26,27
 531 677 531 677 570.25 653.25 c 0,28,29
 609.5 629.5 609.5 629.5 640.5 596.25 c 0,30,31
 671.5 563 671.5 563 693 522.5 c 0,32,33
 714.5 482 714.5 482 726 435.75 c 0,34,35
 737.5 389.5 737.5 389.5 737.5 340 c 0,0,1
572.5 336 m 0,36,37
 572.5 396 572.5 396 561.25 450.25 c 0,38,39
 550 504.5 550 504.5 527.5 545.5 c 0,40,41
 505 586.5 505 586.5 471.25 610.75 c 0,42,43
 437.5 635 437.5 635 393 635 c 0,44,45
 357.5 635 357.5 635 329.5 623 c 0,46,47
 301.5 611 301.5 611 280.25 590.25 c 0,48,49
 259 569.5 259 569.5 244 541.5 c 0,50,51
 229 513.5 229 513.5 219.5 481.25 c 0,52,53
 210 449 210 449 205.75 414.25 c 0,54,55
 201.5 379.5 201.5 379.5 201.5 345 c 0,56,57
 201.5 308.5 201.5 308.5 206.25 272.5 c 0,58,59
 211 236.5 211 236.5 220.5 203.5 c 0,60,61
 230 170.5 230 170.5 245 142 c 0,62,63
 260 113.5 260 113.5 280 92.75 c 0,64,65
 300 72 300 72 325.75 60 c 0,66,67
 351.5 48 351.5 48 383 48 c 0,68,69
 417 48 417 48 444.5 60.25 c 0,70,71
 472 72.5 472 72.5 493 93.5 c 0,72,73
 514 114.5 514 114.5 529 142.5 c 0,74,75
 544 170.5 544 170.5 553.75 202.5 c 0,76,77
 563.5 234.5 563.5 234.5 568 268.75 c 0,78,79
 572.5 303 572.5 303 572.5 336 c 0,36,37
EndSplineSet
EndChar

StartChar: P
Encoding: 51 80 51
Width: 626
VWidth: 500
Flags: W
LayerCount: 2
Fore
SplineSet
436 474 m 0,0,1
 436 510 436 510 427 538 c 0,2,3
 418 566 418 566 401.5 585.25 c 0,4,5
 385 604.5 385 604.5 362 614.5 c 0,6,7
 339 624.5 339 624.5 310.5 624.5 c 0,8,-1
 253 624.5 l 0,9,-1
 253 315.5 l 0,10,11
 259 315 259 315 262.75 314.75 c 0,12,13
 266.5 314.5 266.5 314.5 269 314.5 c 0,14,-1
 280.5 314.5 l 0,15,16
 316 315 316 315 344.75 323.5 c 0,17,18
 373.5 332 373.5 332 393.75 351 c 0,19,20
 414 370 414 370 425 400.25 c 0,21,22
 436 430.5 436 430.5 436 474 c 0,0,1
589 479 m 0,23,24
 589 435 589 435 578.25 401.25 c 0,25,26
 567.5 367.5 567.5 367.5 548.5 342.25 c 0,27,28
 529.5 317 529.5 317 503.75 299.75 c 0,29,30
 478 282.5 478 282.5 448.25 272 c 0,31,32
 418.5 261.5 418.5 261.5 385.75 256.75 c 0,33,34
 353 252 353 252 320.5 252 c 0,35,36
 306 252 306 252 290 251.75 c 0,37,38
 274 251.5 274 251.5 253 254 c 0,39,-1
 253 80 l 0,40,41
 253 70 253 70 259.5 64.25 c 0,42,43
 266 58.5 266 58.5 275.5 57.5 c 0,44,-1
 340 52 l 0,45,-1
 340 0 l 0,46,-1
 26.5 0 l 0,47,-1
 26.5 52 l 0,48,-1
 83 57.5 l 0,49,50
 92 58.5 92 58.5 99.25 64.25 c 0,51,52
 106.5 70 106.5 70 106.5 80 c 0,53,-1
 106.5 607 l 0,54,55
 106.5 617 106.5 617 99.25 623 c 0,56,57
 92 629 92 629 83 630 c 0,58,-1
 23.5 635 l 0,59,-1
 23.5 687 l 0,60,-1
 310.5 687 l 0,61,62
 345 687 345 687 379 684.25 c 0,63,64
 413 681.5 413 681.5 444 673.25 c 0,65,66
 475 665 475 665 501.5 650.75 c 0,67,68
 528 636.5 528 636.5 547.5 613.25 c 0,69,70
 567 590 567 590 578 557 c 0,71,72
 589 524 589 524 589 479 c 0,23,24
EndSplineSet
EndChar

StartChar: Q
Encoding: 52 81 52
Width: 774
VWidth: 500
Flags: W
LayerCount: 2
Fore
SplineSet
703.5 -165 m 0,0,1
 650.5 -177 650.5 -177 607 -182.75 c 0,2,3
 563.5 -188.5 563.5 -188.5 522 -188.5 c 0,4,5
 467 -188.5 467 -188.5 428 -175.75 c 0,6,7
 389 -163 389 -163 364.5 -139.75 c 0,8,9
 340 -116.5 340 -116.5 328.5 -83.5 c 0,10,11
 317 -50.5 317 -50.5 316.5 -10 c 0,12,13
 254.5 1 254.5 1 203.25 29.75 c 0,14,15
 152 58.5 152 58.5 115.25 104 c 0,16,17
 78.5 149.5 78.5 149.5 58.25 210.75 c 0,18,19
 38 272 38 272 38 348 c 0,20,21
 38 423.5 38 423.5 61.5 488.75 c 0,22,23
 85 554 85 554 129.25 601.5 c 0,24,25
 173.5 649 173.5 649 237.75 676.25 c 0,26,27
 302 703.5 302 703.5 384 703.5 c 0,28,29
 437 703.5 437 703.5 484 690.25 c 0,30,31
 531 677 531 677 570.25 653.25 c 0,32,33
 609.5 629.5 609.5 629.5 640.5 596.25 c 0,34,35
 671.5 563 671.5 563 693 522.5 c 0,36,37
 714.5 482 714.5 482 726 435.75 c 0,38,39
 737.5 389.5 737.5 389.5 737.5 340 c 0,40,41
 737.5 276 737.5 276 718.5 218.5 c 0,42,43
 699.5 161 699.5 161 664.5 114.75 c 0,44,45
 629.5 68.5 629.5 68.5 579.75 36.5 c 0,46,47
 530 4.5 530 4.5 469 -8 c 0,48,49
 468 -36 468 -36 479.25 -57.25 c 0,50,51
 490.5 -78.5 490.5 -78.5 509.75 -93.25 c 0,52,53
 529 -108 529 -108 554.75 -115.5 c 0,54,55
 580.5 -123 580.5 -123 608.5 -123 c 0,56,57
 623.5 -123 623.5 -123 646.5 -120.75 c 0,58,59
 669.5 -118.5 669.5 -118.5 703.5 -110.5 c 0,60,-1
 703.5 -165 l 0,0,1
572.5 336 m 0,61,62
 572.5 396 572.5 396 561.25 450.25 c 0,63,64
 550 504.5 550 504.5 527.5 545.5 c 0,65,66
 505 586.5 505 586.5 471.25 610.75 c 0,67,68
 437.5 635 437.5 635 393 635 c 0,69,70
 357.5 635 357.5 635 329.5 623 c 0,71,72
 301.5 611 301.5 611 280.25 590.25 c 0,73,74
 259 569.5 259 569.5 244 541.5 c 0,75,76
 229 513.5 229 513.5 219.5 481.25 c 0,77,78
 210 449 210 449 205.75 414.25 c 0,79,80
 201.5 379.5 201.5 379.5 201.5 345 c 0,81,82
 201.5 308.5 201.5 308.5 206.25 272.5 c 0,83,84
 211 236.5 211 236.5 220.5 203.5 c 0,85,86
 230 170.5 230 170.5 245 142 c 0,87,88
 260 113.5 260 113.5 280 92.75 c 0,89,90
 300 72 300 72 325.75 60 c 0,91,92
 351.5 48 351.5 48 383 48 c 0,93,94
 417 48 417 48 444.5 60.25 c 0,95,96
 472 72.5 472 72.5 493 93.5 c 0,97,98
 514 114.5 514 114.5 529 142.5 c 0,99,100
 544 170.5 544 170.5 553.75 202.5 c 0,101,102
 563.5 234.5 563.5 234.5 568 268.75 c 0,103,104
 572.5 303 572.5 303 572.5 336 c 0,61,62
EndSplineSet
EndChar

StartChar: R
Encoding: 53 82 53
Width: 721
VWidth: 500
Flags: W
LayerCount: 2
Fore
SplineSet
438.5 497.5 m 0,0,1
 438.5 562.5 438.5 562.5 399.5 594 c 0,2,3
 360.5 625.5 360.5 625.5 285.5 625.5 c 0,4,5
 281.5 626 281.5 626 276 626 c 0,6,-1
 265.5 626 l 0,7,8
 259.5 626 259.5 626 253 625.5 c 0,9,-1
 253 363.5 l 0,10,11
 266 362.5 266 362.5 274.25 362 c 0,12,13
 282.5 361.5 282.5 361.5 286.5 361.5 c 0,14,15
 310.5 361.5 310.5 361.5 337.25 366.25 c 0,16,17
 364 371 364 371 386.5 385.75 c 0,18,19
 409 400.5 409 400.5 423.75 427.25 c 0,20,21
 438.5 454 438.5 454 438.5 497.5 c 0,0,1
721 0 m 0,22,23
 687 -4 687 -4 662.75 -10.25 c 0,24,25
 638.5 -16.5 638.5 -16.5 619.5 -16.5 c 0,26,27
 570 -16.5 570 -16.5 537 -2.75 c 0,28,29
 504 11 504 11 482.25 33.25 c 0,30,31
 460.5 55.5 460.5 55.5 447 84 c 0,32,33
 433.5 112.5 433.5 112.5 422.75 142.25 c 0,34,35
 412 172 412 172 401.5 200.5 c 0,36,37
 391 229 391 229 375 251.25 c 0,38,39
 359 273.5 359 273.5 335 287.25 c 0,40,41
 311 301 311 301 273.5 301 c 0,42,-1
 253 301 l 0,43,-1
 253 80 l 0,44,45
 253 70 253 70 259.5 64.25 c 0,46,47
 266 58.5 266 58.5 275.5 57.5 c 0,48,-1
 332 52 l 0,49,-1
 332 0 l 0,50,-1
 28.5 0 l 0,51,-1
 28.5 52 l 0,52,-1
 83 57.5 l 0,53,54
 92 58.5 92 58.5 99.25 64.25 c 0,55,56
 106.5 70 106.5 70 106.5 80 c 0,57,-1
 106.5 607 l 0,58,59
 106.5 617 106.5 617 99.25 623 c 0,60,61
 92 629 92 629 83 630 c 0,62,-1
 28.5 635 l 0,63,-1
 28.5 687 l 0,64,-1
 368.5 687 l 0,65,66
 387.5 687 387.5 687 411.5 684.5 c 0,67,68
 435.5 682 435.5 682 460.25 675.25 c 0,69,70
 485 668.5 485 668.5 508.75 656.5 c 0,71,72
 532.5 644.5 532.5 644.5 551 625.75 c 0,73,74
 569.5 607 569.5 607 580.75 580.25 c 0,75,76
 592 553.5 592 553.5 592 517 c 0,77,78
 592 482.5 592 482.5 582.75 456.5 c 0,79,80
 573.5 430.5 573.5 430.5 558.25 411.25 c 0,81,82
 543 392 543 392 523.75 378.75 c 0,83,84
 504.5 365.5 504.5 365.5 484.5 357.25 c 0,85,86
 464.5 349 464.5 349 446 344.5 c 0,87,88
 427.5 340 427.5 340 413.5 338 c 0,89,90
 447 331.5 447 331.5 470.5 318.75 c 0,91,92
 494 306 494 306 510 289 c 0,93,94
 526 272 526 272 536.25 252 c 0,95,96
 546.5 232 546.5 232 553.75 210.75 c 0,97,98
 561 189.5 561 189.5 566.75 168.5 c 0,99,100
 572.5 147.5 572.5 147.5 580 128.5 c 0,101,102
 587.5 109.5 587.5 109.5 597.75 93.75 c 0,103,104
 608 78 608 78 624 67.25 c 0,105,106
 640 56.5 640 56.5 663.5 52.25 c 0,107,108
 687 48 687 48 721 52 c 0,109,-1
 721 0 l 0,22,23
EndSplineSet
EndChar

StartChar: S
Encoding: 54 83 54
Width: 549
VWidth: 500
Flags: W
LayerCount: 2
Fore
SplineSet
511 200.5 m 0,0,1
 511 146.5 511 146.5 488.5 105.75 c 0,2,3
 466 65 466 65 428.25 38 c 0,4,5
 390.5 11 390.5 11 341 -2.75 c 0,6,7
 291.5 -16.5 291.5 -16.5 237.5 -16.5 c 0,8,9
 197 -16.5 197 -16.5 161.25 -10.5 c 0,10,11
 125.5 -4.5 125.5 -4.5 98 3 c 0,12,13
 66 11.5 66 11.5 38 22.5 c 0,14,-1
 38 210 l 0,15,-1
 119 210 l 0,16,-1
 136 86 l 0,17,18
 137 80 137 80 142 75.25 c 0,19,20
 147 70.5 147 70.5 149.5 70.5 c 0,21,22
 161.5 65.5 161.5 65.5 174.5 61.5 c 0,23,24
 186 58 186 58 200 55.5 c 0,25,26
 214 53 214 53 228.5 53 c 0,27,28
 251 53 251 53 274.5 58.5 c 0,29,30
 298 64 298 64 317.25 75.5 c 0,31,32
 336.5 87 336.5 87 348.5 105.5 c 0,33,34
 360.5 124 360.5 124 360.5 149.5 c 0,35,36
 360.5 181.5 360.5 181.5 345.5 204.75 c 0,37,38
 330.5 228 330.5 228 306.5 246.75 c 0,39,40
 282.5 265.5 282.5 265.5 252.25 281.25 c 0,41,42
 222 297 222 297 191.5 313.5 c 0,43,44
 164.5 328 164.5 328 139.25 344.75 c 0,45,46
 114 361.5 114 361.5 94.5 383 c 0,47,48
 75 404.5 75 404.5 63.5 432 c 0,49,50
 52 459.5 52 459.5 52 495.5 c 0,51,52
 52 545.5 52 545.5 72 584.25 c 0,53,54
 92 623 92 623 126 649.5 c 0,55,56
 160 676 160 676 204.75 689.75 c 0,57,58
 249.5 703.5 249.5 703.5 299 703.5 c 0,59,60
 338 703.5 338 703.5 373 697 c 0,61,62
 408 690.5 408 690.5 435 683 c 0,63,64
 466 674 466 674 492.5 662.5 c 0,65,-1
 492.5 494.5 l 0,66,-1
 413.5 494.5 l 0,67,-1
 396.5 604 l 0,68,69
 396 606 396 606 393.75 608.5 c 0,70,71
 391.5 611 391.5 611 389 613.5 c 0,72,73
 386 616 386 616 382 618.5 c 0,74,75
 376.5 623 376.5 623 367.5 626.5 c 0,76,77
 360 629.5 360 629.5 348.5 632.25 c 0,78,79
 337 635 337 635 320.5 635 c 0,80,81
 295 635 295 635 272.25 629 c 0,82,83
 249.5 623 249.5 623 232.25 611.5 c 0,84,85
 215 600 215 600 204.75 582.5 c 0,86,87
 194.5 565 194.5 565 194.5 542.5 c 0,88,89
 194.5 515.5 194.5 515.5 206 494.75 c 0,90,91
 217.5 474 217.5 474 236.75 457.5 c 0,92,93
 256 441 256 441 281 427.5 c 0,94,95
 306 414 306 414 333 400.5 c 0,96,97
 365 384.5 365 384.5 396.75 367 c 0,98,99
 428.5 349.5 428.5 349.5 454 326.75 c 0,100,101
 479.5 304 479.5 304 495.25 273.5 c 0,102,103
 511 243 511 243 511 200.5 c 0,0,1
EndSplineSet
EndChar

StartChar: T
Encoding: 55 84 55
Width: 623
VWidth: 500
Flags: W
LayerCount: 2
Fore
SplineSet
532.5 499.5 m 0,0,-1
 514 613.5 l 0,1,2
 512.5 625.5 512.5 625.5 499.5 625.5 c 0,3,-1
 385 625.5 l 0,4,-1
 385 80 l 0,5,6
 385 70 385 70 391.75 64.25 c 0,7,8
 398.5 58.5 398.5 58.5 407.5 57.5 c 0,9,-1
 468 52 l 0,10,-1
 468 0 l 0,11,-1
 155.5 0 l 0,12,-1
 155.5 52 l 0,13,-1
 215 57.5 l 0,14,15
 224.5 58.5 224.5 58.5 231.5 64.25 c 0,16,17
 238.5 70 238.5 70 238.5 80 c 0,18,-1
 238.5 625.5 l 0,19,-1
 124 625.5 l 0,20,21
 110 625.5 110 625.5 108.5 613.5 c 0,22,-1
 90 499.5 l 0,23,-1
 16.5 499.5 l 0,24,-1
 16.5 687 l 0,25,-1
 607 687 l 0,26,-1
 607 499.5 l 0,27,-1
 532.5 499.5 l 0,0,-1
EndSplineSet
EndChar

StartChar: U
Encoding: 56 85 56
Width: 746
VWidth: 500
Flags: W
LayerCount: 2
Fore
SplineSet
665.5 630 m 0,0,1
 657 629 657 629 650 623 c 0,2,3
 643 617 643 617 643 607 c 0,4,-1
 643 260 l 0,5,6
 643 184.5 643 184.5 626 131.75 c 0,7,8
 609 79 609 79 574.5 46 c 0,9,10
 540 13 540 13 487.25 -1.75 c 0,11,12
 434.5 -16.5 434.5 -16.5 362.5 -16.5 c 0,13,14
 230.5 -16.5 230.5 -16.5 166 54.25 c 0,15,16
 101.5 125 101.5 125 101.5 260 c 0,17,-1
 101.5 607 l 0,18,19
 101.5 617 101.5 617 94.25 623 c 0,20,21
 87 629 87 629 78 630 c 0,22,-1
 22.5 635 l 0,23,-1
 22.5 687 l 0,24,-1
 325.5 687 l 0,25,-1
 325.5 635 l 0,26,-1
 270.5 630 l 0,27,28
 262 629 262 629 255 623 c 0,29,30
 248 617 248 617 248 607 c 0,31,-1
 248 252 l 0,32,33
 248 156 248 156 288.5 112.25 c 0,34,35
 329 68.5 329 68.5 413.5 68.5 c 0,36,37
 454 68.5 454 68.5 482.5 81.75 c 0,38,39
 511 95 511 95 529.5 119 c 0,40,41
 548 143 548 143 556.5 176.75 c 0,42,43
 565 210.5 565 210.5 565 252 c 0,44,-1
 565 607 l 0,45,46
 565 617 565 617 558.5 623 c 0,47,48
 552 629 552 629 542.5 630 c 0,49,-1
 484.5 635 l 0,50,-1
 484.5 687 l 0,51,-1
 720 687 l 0,52,-1
 720 635 l 0,53,-1
 665.5 630 l 0,0,1
EndSplineSet
EndChar

StartChar: V
Encoding: 57 86 57
Width: 723
VWidth: 500
Flags: W
LayerCount: 2
Fore
SplineSet
648 626.5 m 0,0,-1
 412.5 -16.5 l 0,1,-1
 315.5 -16.5 l 0,2,-1
 76 625.5 l 0,3,-1
 10 635 l 0,4,-1
 10 687 l 0,5,-1
 302 687 l 0,6,-1
 302 635 l 0,7,-1
 244.5 627.5 l 0,8,9
 235.5 626 235.5 626 233.75 618.75 c 0,10,11
 232 611.5 232 611.5 234.5 605 c 0,12,-1
 396.5 159.5 l 0,13,-1
 553 606 l 0,14,15
 554.5 612.5 554.5 612.5 552.25 619.25 c 0,16,17
 550 626 550 626 538.5 627.5 c 0,18,-1
 483.5 635 l 0,19,-1
 483.5 687 l 0,20,-1
 712.5 687 l 0,21,-1
 712.5 635 l 0,22,-1
 648 626.5 l 0,0,-1
EndSplineSet
EndChar

StartChar: W
Encoding: 58 87 58
Width: 989
VWidth: 500
Flags: W
LayerCount: 2
Fore
SplineSet
916.5 626.5 m 0,0,-1
 755.5 -16.5 l 0,1,-1
 658.5 -16.5 l 0,2,-1
 498.5 516 l 0,3,-1
 342 -16.5 l 0,4,-1
 243.5 -16.5 l 0,5,-1
 72.5 626.5 l 0,6,-1
 10 635 l 0,7,-1
 10 687 l 0,8,-1
 289 687 l 0,9,-1
 289 635 l 0,10,-1
 228.5 628.5 l 0,11,12
 219 627.5 219 627.5 218.25 620.5 c 0,13,14
 217.5 613.5 217.5 613.5 219 607 c 0,15,-1
 327.5 201.5 l 0,16,-1
 471 687 l 0,17,-1
 581.5 687 l 0,18,-1
 730 190.5 l 0,19,-1
 832.5 607 l 0,20,21
 834 613.5 834 613.5 831.5 620.25 c 0,22,23
 829 627 829 627 818 628.5 c 0,24,-1
 752.5 635 l 0,25,-1
 752.5 687 l 0,26,-1
 979 687 l 0,27,-1
 979 635 l 0,28,-1
 916.5 626.5 l 0,0,-1
EndSplineSet
EndChar

StartChar: X
Encoding: 59 88 59
Width: 687
VWidth: 500
Flags: W
LayerCount: 2
Fore
SplineSet
369.5 0 m 0,0,-1
 369.5 52 l 0,1,-1
 432 56.5 l 0,2,3
 439 57.5 439 57.5 441.25 64.5 c 0,4,5
 443.5 71.5 443.5 71.5 437 81 c 0,6,-1
 322.5 261 l 0,7,-1
 184.5 82 l 0,8,9
 180.5 77.5 180.5 77.5 180 73.25 c 0,10,11
 179.5 69 179.5 69 181 65.5 c 0,12,13
 182.5 62 182.5 62 185.25 60 c 0,14,15
 188 58 188 58 190.5 57.5 c 0,16,-1
 252 52 l 0,17,-1
 252 0 l 0,18,-1
 10 0 l 0,19,-1
 10 52 l 0,20,-1
 76 60.5 l 0,21,-1
 279.5 327.5 l 0,22,-1
 88 625.5 l 0,23,-1
 23.5 635 l 0,24,-1
 23.5 687 l 0,25,-1
 323.5 687 l 0,26,-1
 323.5 635 l 0,27,-1
 269.5 630 l 0,28,29
 264 630 264 630 261 622.5 c 0,30,31
 258 615 258 615 264 605 c 0,32,-1
 366.5 443.5 l 0,33,-1
 492.5 606 l 0,34,35
 499.5 614.5 499.5 614.5 496.5 622.75 c 0,36,37
 493.5 631 493.5 631 486.5 631 c 0,38,-1
 432 635 l 0,39,-1
 432 687 l 0,40,-1
 665.5 687 l 0,41,-1
 665.5 635 l 0,42,-1
 601 625.5 l 0,43,-1
 409.5 377 l 0,44,-1
 612.5 60.5 l 0,45,-1
 677 52 l 0,46,-1
 677 0 l 0,47,-1
 369.5 0 l 0,0,-1
EndSplineSet
EndChar

StartChar: Y
Encoding: 60 89 60
Width: 679
VWidth: 500
Flags: W
LayerCount: 2
Fore
SplineSet
609.5 625.5 m 0,0,-1
 420 297 l 0,1,-1
 420 80 l 0,2,3
 420 70 420 70 426.5 64.25 c 0,4,5
 433 58.5 433 58.5 442.5 57.5 c 0,6,-1
 505 52 l 0,7,-1
 505 0 l 0,8,-1
 187.5 0 l 0,9,-1
 187.5 52 l 0,10,-1
 250 57.5 l 0,11,12
 258.5 58.5 258.5 58.5 266 64.25 c 0,13,14
 273.5 70 273.5 70 273.5 80 c 0,15,-1
 273.5 268.5 l 0,16,-1
 76 625.5 l 0,17,-1
 10 635 l 0,18,-1
 10 687 l 0,19,-1
 301 687 l 0,20,-1
 301 635 l 0,21,-1
 247 630 l 0,22,23
 241.5 630 241.5 630 238.75 622.5 c 0,24,25
 236 615 236 615 241.5 605 c 0,26,-1
 370.5 362.5 l 0,27,-1
 510 606 l 0,28,29
 515.5 615.5 515.5 615.5 513.75 623.25 c 0,30,31
 512 631 512 631 505 631 c 0,32,-1
 442.5 635 l 0,33,-1
 442.5 687 l 0,34,-1
 668.5 687 l 0,35,-1
 668.5 635 l 0,36,-1
 609.5 625.5 l 0,0,-1
EndSplineSet
EndChar

StartChar: Z
Encoding: 61 90 61
Width: 595
VWidth: 500
Flags: W
LayerCount: 2
Fore
SplineSet
38 0 m 0,0,-1
 38 60.5 l 0,1,-1
 389 624.5 l 0,2,-1
 163 624.5 l 0,3,4
 150 624.5 150 624.5 148.5 612.5 c 0,5,-1
 130 500.5 l 0,6,-1
 55.5 500.5 l 0,7,-1
 55.5 687 l 0,8,-1
 552 687 l 0,9,-1
 552 626.5 l 0,10,-1
 201.5 63.5 l 0,11,-1
 446.5 63.5 l 0,12,13
 459 63.5 459 63.5 462 75 c 0,14,-1
 482.5 201.5 l 0,15,-1
 557 201.5 l 0,16,-1
 557 0 l 0,17,-1
 38 0 l 0,0,-1
EndSplineSet
EndChar

StartChar: bracketleft
Encoding: 62 91 62
Width: 561
VWidth: 500
Flags: W
LayerCount: 2
Fore
SplineSet
240 -135 m 0,0,-1
 240 725 l 0,1,-1
 524 725 l 0,2,-1
 524 663.5 l 0,3,-1
 367 663.5 l 0,4,-1
 367 -76 l 0,5,-1
 524 -76 l 0,6,-1
 524 -135 l 0,7,-1
 240 -135 l 0,0,-1
EndSplineSet
EndChar

StartChar: backslash
Encoding: 63 92 63
Width: 506
VWidth: 500
Flags: W
LayerCount: 2
Fore
SplineSet
426 -95 m 0,0,-1
 0 687 l 0,1,-1
 80 687 l 0,2,-1
 506 -95 l 0,3,-1
 426 -95 l 0,0,-1
EndSplineSet
EndChar

StartChar: bracketright
Encoding: 64 93 64
Width: 603
VWidth: 500
Flags: W
LayerCount: 2
Fore
SplineSet
37 -135 m 0,0,-1
 37 -76 l 0,1,-1
 193.5 -76 l 0,2,-1
 193.5 663.5 l 0,3,-1
 37 663.5 l 0,4,-1
 37 725 l 0,5,-1
 320.5 725 l 0,6,-1
 320.5 -135 l 0,7,-1
 37 -135 l 0,0,-1
EndSplineSet
EndChar

StartChar: asciicircum
Encoding: 65 94 65
Width: 348
VWidth: 500
Flags: W
LayerCount: 2
Fore
SplineSet
368 282 m 0
 323.5 330.75 l 0
 279 282 l 0
 236.5 282 l 0
 293.25 369.75 l 0
 353.75 369.75 l 0
 410.5 282 l 0
 368 282 l 0
EndSplineSet
EndChar

StartChar: underscore
Encoding: 66 95 66
Width: 348
VWidth: 500
Flags: W
LayerCount: 2
Fore
SplineSet
0 -170 m 0,0,-1
 0 -87.5 l 0,1,-1
 348 -87.5 l 0,2,-1
 348 -170 l 0,3,-1
 0 -170 l 0,0,-1
EndSplineSet
EndChar

StartChar: grave
Encoding: 67 96 67
Width: 383
VWidth: 500
Flags: W
LayerCount: 2
Fore
SplineSet
326.5 282 m 0
 243.5 327.25 l 0
 240.75 328.75 240.75 328.75 238.5 331.375 c 0
 236.25 334 236.25 334 234.5 337 c 0
 232.75 340 232.75 340 231.75 343.125 c 0
 230.75 346.25 230.75 346.25 230.75 348.75 c 0
 230.75 353.25 230.75 353.25 232.25 358.125 c 0
 233.75 363 233.75 363 237.125 366.875 c 0
 240.5 370.75 240.5 370.75 246.125 373.25 c 0
 251.75 375.75 251.75 375.75 260 375.75 c 0
 265.25 375.75 265.25 375.75 269.25 375 c 0
 273.25 374.25 273.25 374.25 276.875 372.375 c 0
 280.5 370.5 280.5 370.5 284.125 367.375 c 0
 287.75 364.25 287.75 364.25 292.25 359.5 c 0
 362.25 282 l 0
 326.5 282 l 0
EndSplineSet
EndChar

StartChar: a
Encoding: 68 97 68
Width: 566
VWidth: 500
Flags: W
LayerCount: 2
Fore
SplineSet
345 264 m 0,0,1
 295.5 254 295.5 254 263.25 243.5 c 0,2,3
 231 233 231 233 212 219.5 c 0,4,5
 193 206 193 206 185.5 188.75 c 0,6,7
 178 171.5 178 171.5 178 148.5 c 0,8,9
 178 132.5 178 132.5 183.25 118.75 c 0,10,11
 188.5 105 188.5 105 198.25 94.75 c 0,12,13
 208 84.5 208 84.5 221.5 78.5 c 0,14,15
 235 72.5 235 72.5 251 72.5 c 0,16,17
 267.5 72.5 267.5 72.5 284.25 76 c 0,18,19
 301 79.5 301 79.5 314.5 83.5 c 0,20,21
 330.5 88.5 330.5 88.5 345 95 c 0,22,-1
 345 264 l 0,0,1
358.5 0 m 0,23,-1
 345 51 l 0,24,25
 318.5 33 318.5 33 289.5 19 c 0,26,27
 264 7 264 7 232.5 -2.75 c 0,28,29
 201 -12.5 201 -12.5 167 -12.5 c 0,30,31
 139 -12.5 139 -12.5 114.75 -3.25 c 0,32,33
 90.5 6 90.5 6 72.25 23.25 c 0,34,35
 54 40.5 54 40.5 43.5 65 c 0,36,37
 33 89.5 33 89.5 33 120 c 0,38,39
 33 143 33 143 36.75 162.5 c 0,40,41
 40.5 182 40.5 182 51.75 198.75 c 0,42,43
 63 215.5 63 215.5 84 230.75 c 0,44,45
 105 246 105 246 139.75 260.5 c 0,46,47
 174.5 275 174.5 275 225 289.5 c 0,48,49
 275.5 304 275.5 304 346 319.5 c 0,50,-1
 346 332 l 0,51,52
 346 339.5 346 339.5 346.5 345.5 c 0,53,54
 346.5 352.5 346.5 352.5 347 359.5 c 0,55,56
 347.5 374 347.5 374 344 390.75 c 0,57,58
 340.5 407.5 340.5 407.5 330 421.75 c 0,59,60
 319.5 436 319.5 436 300.5 445.25 c 0,61,62
 281.5 454.5 281.5 454.5 251 454.5 c 0,63,64
 240.5 454.5 240.5 454.5 232.25 454 c 0,65,66
 224 453.5 224 453.5 218.5 452.5 c 0,67,68
 212 451.5 212 451.5 207 450.5 c 0,69,-1
 207 353.5 l 0,70,-1
 101.5 353.5 l 0,71,72
 88.5 352.5 88.5 352.5 78.5 356 c 0,73,74
 70 359 70 359 62.75 366.5 c 0,75,76
 55.5 374 55.5 374 55.5 390 c 0,77,78
 55.5 418.5 55.5 418.5 75.75 441 c 0,79,80
 96 463.5 96 463.5 128.75 479.25 c 0,81,82
 161.5 495 161.5 495 202.25 503.5 c 0,83,84
 243 512 243 512 283.5 512 c 0,85,86
 327.5 512 327.5 512 364 505.5 c 0,87,88
 400.5 499 400.5 499 426.75 480.25 c 0,89,90
 453 461.5 453 461.5 467.25 427.5 c 0,91,92
 481.5 393.5 481.5 393.5 481.5 338 c 0,93,-1
 481.5 75 l 0,94,95
 481.5 65.5 481.5 65.5 488 58.75 c 0,96,97
 494.5 52 494.5 52 504 51 c 0,98,-1
 549 48 l 0,99,-1
 549 0 l 0,100,-1
 358.5 0 l 0,23,-1
EndSplineSet
EndChar

StartChar: b
Encoding: 69 98 69
Width: 612
VWidth: 500
Flags: W
LayerCount: 2
Fore
SplineSet
431 250 m 0,0,1
 431 291.5 431 291.5 421.5 324.25 c 0,2,3
 412 357 412 357 393.5 380 c 0,4,5
 375 403 375 403 347.25 415 c 0,6,7
 319.5 427 319.5 427 283.5 427 c 0,8,9
 274 427 274 427 264.75 426 c 0,10,11
 255.5 425 255.5 425 247.5 424 c 0,12,-1
 229.5 421 l 0,13,-1
 229.5 57.5 l 0,14,15
 238.5 57.5 238.5 57.5 242.25 57 c 0,16,17
 246 56.5 246 56.5 251 56.5 c 0,18,19
 293.5 56.5 293.5 56.5 327 66.25 c 0,20,21
 360.5 76 360.5 76 383.5 98.75 c 0,22,23
 406.5 121.5 406.5 121.5 418.75 158.5 c 0,24,25
 431 195.5 431 195.5 431 250 c 0,0,1
579.5 280.5 m 0,26,27
 579.5 221.5 579.5 221.5 559.5 170.25 c 0,28,29
 539.5 119 539.5 119 501.25 81.25 c 0,30,31
 463 43.5 463 43.5 407.25 21.75 c 0,32,33
 351.5 0 351.5 0 279.5 0 c 0,34,-1
 92 0 l 0,35,-1
 92 664.5 l 0,36,-1
 20.5 664.5 l 0,37,-1
 20.5 706.5 l 0,38,-1
 177 758 l 0,39,-1
 229.5 758 l 0,40,-1
 229.5 465 l 0,41,42
 251 478 251 478 275 488.5 c 0,43,44
 296 497 296 497 322.5 504.5 c 0,45,46
 349 512 349 512 378 512 c 0,47,48
 419 512 419 512 455.75 496.5 c 0,49,50
 492.5 481 492.5 481 520 451.25 c 0,51,52
 547.5 421.5 547.5 421.5 563.5 378.5 c 0,53,54
 579.5 335.5 579.5 335.5 579.5 280.5 c 0,26,27
EndSplineSet
EndChar

StartChar: c
Encoding: 70 99 70
Width: 514
VWidth: 500
Flags: W
LayerCount: 2
Fore
SplineSet
482.5 45 m 0,0,1
 469.5 39 469.5 39 450.75 29.5 c 0,2,3
 432 20 432 20 407.25 10.5 c 0,4,5
 382.5 1 382.5 1 351 -5.75 c 0,6,7
 319.5 -12.5 319.5 -12.5 280.5 -12.5 c 0,8,9
 220.5 -12.5 220.5 -12.5 174.5 8 c 0,10,11
 128.5 28.5 128.5 28.5 97 63.25 c 0,12,13
 65.5 98 65.5 98 49.25 143.5 c 0,14,15
 33 189 33 189 33 239.5 c 0,16,17
 33 300 33 300 53.75 350.25 c 0,18,19
 74.5 400.5 74.5 400.5 110.25 436.5 c 0,20,21
 146 472.5 146 472.5 194 492.25 c 0,22,23
 242 512 242 512 297 512 c 0,24,25
 337.5 512 337.5 512 370 503.75 c 0,26,27
 402.5 495.5 402.5 495.5 425.75 480.5 c 0,28,29
 449 465.5 449 465.5 461.5 444.75 c 0,30,31
 474 424 474 424 474 399.5 c 0,32,33
 474 382 474 382 467.75 368 c 0,34,35
 461.5 354 461.5 354 451.5 343.75 c 0,36,37
 441.5 333.5 441.5 333.5 428.5 328 c 0,38,39
 415.5 322.5 415.5 322.5 401.5 322.5 c 0,40,41
 385.5 322.5 385.5 322.5 374.75 324.5 c 0,42,43
 364 326.5 364 326.5 356.5 329.75 c 0,44,45
 349 333 349 333 343.5 336.75 c 0,46,47
 338 340.5 338 340.5 333 344 c 0,48,-1
 333 459 l 0,49,50
 326.5 459 326.5 459 322.75 459.5 c 0,51,52
 319 460 319 460 313.5 460 c 0,53,54
 290 460 290 460 266.75 448 c 0,55,56
 243.5 436 243.5 436 225 412.25 c 0,57,58
 206.5 388.5 206.5 388.5 195 352.75 c 0,59,60
 183.5 317 183.5 317 183.5 269.5 c 0,61,62
 183.5 224.5 183.5 224.5 194.25 188.25 c 0,63,64
 205 152 205 152 225 126.5 c 0,65,66
 245 101 245 101 274 87.25 c 0,67,68
 303 73.5 303 73.5 339 73.5 c 0,69,70
 362.5 73.5 362.5 73.5 386 80 c 0,71,72
 409.5 86.5 409.5 86.5 429.25 95 c 0,73,74
 449 103.5 449 103.5 463.25 111.75 c 0,75,76
 477.5 120 477.5 120 482.5 124 c 0,77,-1
 482.5 45 l 0,0,1
EndSplineSet
EndChar

StartChar: d
Encoding: 71 100 71
Width: 623
VWidth: 500
Flags: W
LayerCount: 2
Fore
SplineSet
395.5 0 m 0,0,-1
 395.5 59.5 l 0,1,2
 389.5 56.5 389.5 56.5 374 44.75 c 0,3,4
 358.5 33 358.5 33 336.5 20.25 c 0,5,6
 314.5 7.5 314.5 7.5 288 -2.5 c 0,7,8
 261.5 -12.5 261.5 -12.5 233.5 -12.5 c 0,9,10
 186.5 -12.5 186.5 -12.5 149.25 6.5 c 0,11,12
 112 25.5 112 25.5 86.25 59 c 0,13,14
 60.5 92.5 60.5 92.5 46.75 138.5 c 0,15,16
 33 184.5 33 184.5 33 238.5 c 0,17,18
 33 304.5 33 304.5 53 355.5 c 0,19,20
 73 406.5 73 406.5 108.5 441.25 c 0,21,22
 144 476 144 476 193 494 c 0,23,24
 242 512 242 512 300 512 c 0,25,26
 314.5 512 314.5 512 331.25 510 c 0,27,28
 348 508 348 508 362.5 505.5 c 0,29,30
 379 503 379 503 395.5 499.5 c 0,31,-1
 395.5 664.5 l 0,32,-1
 319.5 664.5 l 0,33,-1
 319.5 706.5 l 0,34,-1
 479 758 l 0,35,-1
 531.5 758 l 0,36,-1
 531.5 75 l 0,37,38
 531.5 65.5 531.5 65.5 538 58.75 c 0,39,40
 544.5 52 544.5 52 554 51 c 0,41,-1
 597 48 l 0,42,-1
 597 0 l 0,43,-1
 395.5 0 l 0,0,-1
395.5 432 m 0,44,45
 383.5 437 383.5 437 370.5 441 c 0,46,47
 359.5 444.5 359.5 444.5 346.75 447.5 c 0,48,49
 334 450.5 334 450.5 322.5 450.5 c 0,50,51
 287 450.5 287 450.5 260.5 436 c 0,52,53
 234 421.5 234 421.5 216.75 396 c 0,54,55
 199.5 370.5 199.5 370.5 191 336 c 0,56,57
 182.5 301.5 182.5 301.5 182.5 262 c 0,58,59
 182.5 221.5 182.5 221.5 190.75 188.5 c 0,60,61
 199 155.5 199 155.5 215.5 131.75 c 0,62,63
 232 108 232 108 257 95 c 0,64,65
 282 82 282 82 315.5 82 c 0,66,67
 329.5 82 329.5 82 343.75 84.75 c 0,68,69
 358 87.5 358 87.5 369.5 91.5 c 0,70,71
 383 96 383 96 395.5 101.5 c 0,72,-1
 395.5 432 l 0,44,45
EndSplineSet
EndChar

StartChar: e
Encoding: 72 101 72
Width: 541
VWidth: 500
Flags: W
LayerCount: 2
Fore
SplineSet
510 48 m 0,0,1
 483.5 30.5 483.5 30.5 450.5 17.5 c 0,2,3
 422 6 422 6 382.5 -3.25 c 0,4,5
 343 -12.5 343 -12.5 294 -12.5 c 0,6,7
 228.5 -12.5 228.5 -12.5 179.75 7.5 c 0,8,9
 131 27.5 131 27.5 98.25 62.25 c 0,10,11
 65.5 97 65.5 97 49.25 143.5 c 0,12,13
 33 190 33 190 33 243.5 c 0,14,15
 33 301.5 33 301.5 51.25 350.75 c 0,16,17
 69.5 400 69.5 400 103.25 435.75 c 0,18,19
 137 471.5 137 471.5 184.75 491.75 c 0,20,21
 232.5 512 232.5 512 291 512 c 0,22,23
 351 512 351 512 392.75 492.25 c 0,24,25
 434.5 472.5 434.5 472.5 460.5 439.75 c 0,26,27
 486.5 407 486.5 407 498.25 365 c 0,28,29
 510 323 510 323 510 278.5 c 0,30,-1
 510 254 l 0,31,-1
 174 254 l 0,32,33
 174 212 174 212 184.5 178.5 c 0,34,35
 195 145 195 145 215.25 121.5 c 0,36,37
 235.5 98 235.5 98 265 85.25 c 0,38,39
 294.5 72.5 294.5 72.5 332 72.5 c 0,40,41
 371 72.5 371 72.5 403.25 81.25 c 0,42,43
 435.5 90 435.5 90 459.5 101 c 0,44,45
 487 114 487 114 510 130 c 0,46,-1
 510 48 l 0,0,1
363.5 334 m 0,47,48
 363.5 358.5 363.5 358.5 359 380 c 0,49,50
 354.5 401.5 354.5 401.5 344.25 417.25 c 0,51,52
 334 433 334 433 318 442.25 c 0,53,54
 302 451.5 302 451.5 279.5 451.5 c 0,55,56
 251 451.5 251 451.5 231.75 438.75 c 0,57,58
 212.5 426 212.5 426 200.75 405.75 c 0,59,60
 189 385.5 189 385.5 184 360.5 c 0,61,62
 179 335.5 179 335.5 179 311.5 c 0,63,-1
 363.5 311.5 l 0,64,-1
 363.5 334 l 0,47,48
EndSplineSet
EndChar

StartChar: f
Encoding: 73 102 73
Width: 355
VWidth: 500
Flags: W
LayerCount: 2
Fore
SplineSet
430 676 m 0,0,1
 430 664 430 664 424.75 653.5 c 0,2,3
 419.5 643 419.5 643 410.75 634.25 c 0,4,5
 402 625.5 402 625.5 390.5 619 c 0,6,7
 379 612.5 379 612.5 366.5 608.5 c 0,8,-1
 265 703.5 l 0,9,10
 257.5 692 257.5 692 251.25 679.25 c 0,11,12
 245 666.5 245 666.5 241 648.75 c 0,13,14
 237 631 237 631 234.75 606.5 c 0,15,16
 232.5 582 232.5 582 232.5 547 c 0,17,-1
 232.5 487.5 l 0,18,-1
 344 487.5 l 0,19,-1
 344 422 l 0,20,-1
 233.5 422 l 0,21,-1
 233.5 75 l 0,22,23
 233.5 65.5 233.5 65.5 239.75 58.25 c 0,24,25
 246 51 246 51 256 51 c 0,26,-1
 318.5 48 l 0,27,-1
 318.5 0 l 0,28,-1
 21.5 0 l 0,29,-1
 21.5 48 l 0,30,-1
 73.5 51 l 0,31,32
 83 52 83 52 89.75 58.75 c 0,33,34
 96.5 65.5 96.5 65.5 96.5 75 c 0,35,-1
 96.5 422 l 0,36,-1
 29.5 422 l 0,37,-1
 29.5 463 l 0,38,-1
 95 496.5 l 0,39,40
 95 537 95 537 106.25 573 c 0,41,42
 117.5 609 117.5 609 139.5 643 c 0,43,44
 154.5 668 154.5 668 174.75 689 c 0,45,46
 195 710 195 710 219.5 725.5 c 0,47,48
 244 741 244 741 272.25 749.5 c 0,49,50
 300.5 758 300.5 758 332 758 c 0,51,52
 347 758 347 758 364.25 753.25 c 0,53,54
 381.5 748.5 381.5 748.5 396.25 738.75 c 0,55,56
 411 729 411 729 420.5 713.25 c 0,57,58
 430 697.5 430 697.5 430 676 c 0,0,1
EndSplineSet
EndChar

StartChar: g
Encoding: 74 103 74
Width: 568
VWidth: 500
Flags: W
LayerCount: 2
Fore
SplineSet
469 420 m 0,0,1
 474.5 409 474.5 409 479 396.5 c 0,2,3
 483 385.5 483 385.5 486.25 371.75 c 0,4,5
 489.5 358 489.5 358 489.5 342 c 0,6,7
 489.5 307.5 489.5 307.5 478 281.25 c 0,8,9
 466.5 255 466.5 255 447.25 235.75 c 0,10,11
 428 216.5 428 216.5 403 203.5 c 0,12,13
 378 190.5 378 190.5 350.75 183 c 0,14,15
 323.5 175.5 323.5 175.5 296 173 c 0,16,17
 268.5 170.5 268.5 170.5 244.5 172 c 0,18,19
 235.5 166 235.5 166 228.25 159.5 c 0,20,21
 221 153 221 153 217 145.75 c 0,22,23
 213 138.5 213 138.5 212.75 130 c 0,24,25
 212.5 121.5 212.5 121.5 217 110.5 c 0,26,27
 301 103.5 301 103.5 360.25 91 c 0,28,29
 419.5 78.5 419.5 78.5 457 60 c 0,30,31
 494.5 41.5 494.5 41.5 511.5 16.25 c 0,32,33
 528.5 -9 528.5 -9 528.5 -41 c 0,34,35
 528.5 -70.5 528.5 -70.5 517.25 -96.5 c 0,36,37
 506 -122.5 506 -122.5 486.5 -144.25 c 0,38,39
 467 -166 467 -166 440.5 -183.25 c 0,40,41
 414 -200.5 414 -200.5 383.25 -212.25 c 0,42,43
 352.5 -224 352.5 -224 319 -230.25 c 0,44,45
 285.5 -236.5 285.5 -236.5 252 -236.5 c 0,46,47
 211.5 -236.5 211.5 -236.5 172.25 -227.25 c 0,48,49
 133 -218 133 -218 102 -198.5 c 0,50,51
 71 -179 71 -179 52 -149 c 0,52,53
 33 -119 33 -119 33 -78 c 0,54,55
 33 -46 33 -46 45 -24.75 c 0,56,57
 57 -3.5 57 -3.5 73.5 9.25 c 0,58,59
 90 22 90 22 107.25 26.5 c 0,60,61
 124.5 31 124.5 31 135 29.5 c 0,62,63
 128 43.5 128 43.5 125 58.75 c 0,64,65
 122 74 122 74 122 84 c 0,66,67
 122 97 122 97 125.5 108.75 c 0,68,69
 129 120.5 129 120.5 136 131.75 c 0,70,71
 143 143 143 143 153.75 154.5 c 0,72,73
 164.5 166 164.5 166 179 179 c 0,74,75
 165.5 182 165.5 182 144.25 191.5 c 0,76,77
 123 201 123 201 102.75 219.25 c 0,78,79
 82.5 237.5 82.5 237.5 67.75 265.25 c 0,80,81
 53 293 53 293 53 333 c 0,82,83
 53 379 53 379 70.75 412.75 c 0,84,85
 88.5 446.5 88.5 446.5 119.25 468.5 c 0,86,87
 150 490.5 150 490.5 191.25 501.25 c 0,88,89
 232.5 512 232.5 512 279.5 512 c 0,90,91
 303.5 512 303.5 512 324.75 508.5 c 0,92,93
 346 505 346 505 364.25 500.25 c 0,94,95
 382.5 495.5 382.5 495.5 397.75 490 c 0,96,97
 413 484.5 413 484.5 426 480.5 c 0,98,-1
 559 480.5 l 0,99,-1
 559 420 l 0,100,-1
 469 420 l 0,0,1
354.5 344 m 0,101,102
 354.5 365 354.5 365 349.75 386.25 c 0,103,104
 345 407.5 345 407.5 335.25 424.25 c 0,105,106
 325.5 441 325.5 441 311 451.5 c 0,107,108
 296.5 462 296.5 462 277.5 462 c 0,109,110
 254.5 462 254.5 462 238.5 451.75 c 0,111,112
 222.5 441.5 222.5 441.5 212.75 424.5 c 0,113,114
 203 407.5 203 407.5 198.75 386.25 c 0,115,116
 194.5 365 194.5 365 194.5 343 c 0,117,118
 194.5 320.5 194.5 320.5 199.25 298.25 c 0,119,120
 204 276 204 276 213.75 258.75 c 0,121,122
 223.5 241.5 223.5 241.5 239 230.75 c 0,123,124
 254.5 220 254.5 220 275.5 220 c 0,125,126
 296.5 220 296.5 220 311.25 230.75 c 0,127,128
 326 241.5 326 241.5 335.75 259.25 c 0,129,130
 345.5 277 345.5 277 350 299.25 c 0,131,132
 354.5 321.5 354.5 321.5 354.5 344 c 0,101,102
396.5 -70.5 m 0,133,134
 396.5 -52.5 396.5 -52.5 385.5 -39.5 c 0,135,136
 374.5 -26.5 374.5 -26.5 357 -17.25 c 0,137,138
 339.5 -8 339.5 -8 317.5 -2 c 0,139,140
 295.5 4 295.5 4 273.5 7.75 c 0,141,142
 251.5 11.5 251.5 11.5 232 13.25 c 0,143,144
 212.5 15 212.5 15 199.5 16.5 c 0,145,146
 194.5 9 194.5 9 189 1 c 0,147,148
 183.5 -7 183.5 -7 178.75 -16.5 c 0,149,150
 174 -26 174 -26 171 -37.75 c 0,151,152
 168 -49.5 168 -49.5 168 -63.5 c 0,153,154
 167.5 -88 167.5 -88 177.5 -109.25 c 0,155,156
 187.5 -130.5 187.5 -130.5 203.5 -146.25 c 0,157,158
 219.5 -162 219.5 -162 239.75 -171 c 0,159,160
 260 -180 260 -180 280.5 -180 c 0,161,162
 301 -180 301 -180 321.75 -172.25 c 0,163,164
 342.5 -164.5 342.5 -164.5 359 -150.25 c 0,165,166
 375.5 -136 375.5 -136 386 -115.75 c 0,167,168
 396.5 -95.5 396.5 -95.5 396.5 -70.5 c 0,133,134
EndSplineSet
EndChar

StartChar: h
Encoding: 75 104 75
Width: 641
VWidth: 500
Flags: W
LayerCount: 2
Fore
SplineSet
356.5 0 m 0,0,-1
 356.5 48 l 0,1,-1
 389 51 l 0,2,3
 398.5 52 398.5 52 405 58.75 c 0,4,5
 411.5 65.5 411.5 65.5 411.5 75 c 0,6,-1
 411.5 316.5 l 0,7,8
 411.5 329 411.5 329 408.75 346.5 c 0,9,10
 406 364 406 364 397 379.75 c 0,11,12
 388 395.5 388 395.5 371 406.75 c 0,13,14
 354 418 354 418 325.5 418 c 0,15,16
 310 418 310 418 293.25 415.75 c 0,17,18
 276.5 413.5 276.5 413.5 262 411 c 0,19,20
 245.5 408 245.5 408 229.5 404.5 c 0,21,-1
 229.5 75 l 0,22,23
 229.5 65.5 229.5 65.5 236 58.75 c 0,24,25
 242.5 52 242.5 52 252 51 c 0,26,-1
 287.5 48 l 0,27,-1
 287.5 0 l 0,28,-1
 27.5 0 l 0,29,-1
 27.5 48 l 0,30,-1
 69.5 51 l 0,31,32
 79 52 79 52 85.5 58.75 c 0,33,34
 92 65.5 92 65.5 92 75 c 0,35,-1
 92 664.5 l 0,36,-1
 19.5 664.5 l 0,37,-1
 19.5 706.5 l 0,38,-1
 176 758 l 0,39,-1
 229.5 758 l 0,40,-1
 229.5 448.5 l 0,41,42
 258 466 258 466 289 480 c 0,43,44
 302 486 302 486 316.75 491.75 c 0,45,46
 331.5 497.5 331.5 497.5 346.75 502 c 0,47,48
 362 506.5 362 506.5 377.75 509.25 c 0,49,50
 393.5 512 393.5 512 408.5 512 c 0,51,52
 438.5 512 438.5 512 460.75 504.25 c 0,53,54
 483 496.5 483 496.5 498.75 483.75 c 0,55,56
 514.5 471 514.5 471 524.25 454.25 c 0,57,58
 534 437.5 534 437.5 539.5 419.5 c 0,59,60
 545 401.5 545 401.5 547 383.75 c 0,61,62
 549 366 549 366 549 351 c 0,63,-1
 549 75 l 0,64,65
 549 65.5 549 65.5 555.5 58.75 c 0,66,67
 562 52 562 52 571.5 51 c 0,68,-1
 614.5 48 l 0,69,-1
 614.5 0 l 0,70,-1
 356.5 0 l 0,0,-1
EndSplineSet
EndChar

StartChar: i
Encoding: 76 105 76
Width: 341
VWidth: 500
Flags: W
LayerCount: 2
Fore
SplineSet
253 679 m 0,0,1
 253 662.5 253 662.5 246.75 648 c 0,2,3
 240.5 633.5 240.5 633.5 229.5 622.5 c 0,4,5
 218.5 611.5 218.5 611.5 204 605.25 c 0,6,7
 189.5 599 189.5 599 173 599 c 0,8,9
 156.5 599 156.5 599 142 605.25 c 0,10,11
 127.5 611.5 127.5 611.5 117 622.5 c 0,12,13
 106.5 633.5 106.5 633.5 100.25 648 c 0,14,15
 94 662.5 94 662.5 94 679 c 0,16,17
 94 695.5 94 695.5 100.25 710 c 0,18,19
 106.5 724.5 106.5 724.5 117 735 c 0,20,21
 127.5 745.5 127.5 745.5 142 751.75 c 0,22,23
 156.5 758 156.5 758 173 758 c 0,24,25
 189.5 758 189.5 758 204 751.75 c 0,26,27
 218.5 745.5 218.5 745.5 229.5 735 c 0,28,29
 240.5 724.5 240.5 724.5 246.75 710 c 0,30,31
 253 695.5 253 695.5 253 679 c 0,0,1
33 0 m 0,32,-1
 33 48 l 0,33,-1
 80 51 l 0,34,35
 89 52 89 52 95.75 58.75 c 0,36,37
 102.5 65.5 102.5 65.5 102.5 75 c 0,38,-1
 102.5 419 l 0,39,-1
 37 419 l 0,40,-1
 37 461 l 0,41,-1
 186.5 512 l 0,42,-1
 238.5 512 l 0,43,-1
 238.5 75 l 0,44,45
 238.5 65.5 238.5 65.5 245.75 58.75 c 0,46,47
 253 52 253 52 262 51 c 0,48,-1
 311.5 48 l 0,49,-1
 311.5 0 l 0,50,-1
 33 0 l 0,32,-1
EndSplineSet
EndChar

StartChar: j
Encoding: 77 106 77
Width: 332
VWidth: 500
Flags: W
LayerCount: 2
Fore
SplineSet
249 679 m 0,0,1
 249 662.5 249 662.5 242.75 648 c 0,2,3
 236.5 633.5 236.5 633.5 226 622.5 c 0,4,5
 215.5 611.5 215.5 611.5 201 605.25 c 0,6,7
 186.5 599 186.5 599 170 599 c 0,8,9
 153.5 599 153.5 599 139 605.25 c 0,10,11
 124.5 611.5 124.5 611.5 113.5 622.5 c 0,12,13
 102.5 633.5 102.5 633.5 96.25 648 c 0,14,15
 90 662.5 90 662.5 90 679 c 0,16,17
 90 695.5 90 695.5 96.25 710 c 0,18,19
 102.5 724.5 102.5 724.5 113.5 735 c 0,20,21
 124.5 745.5 124.5 745.5 139 751.75 c 0,22,23
 153.5 758 153.5 758 170 758 c 0,24,25
 186.5 758 186.5 758 201 751.75 c 0,26,27
 215.5 745.5 215.5 745.5 226 735 c 0,28,29
 236.5 724.5 236.5 724.5 242.75 710 c 0,30,31
 249 695.5 249 695.5 249 679 c 0,0,1
238.5 48 m 0,32,33
 238.5 -8 238.5 -8 225 -60.5 c 0,34,35
 211.5 -113 211.5 -113 182.5 -153.5 c 0,36,37
 154.5 -191.5 154.5 -191.5 112 -214 c 0,38,39
 69.5 -236.5 69.5 -236.5 10 -236.5 c 0,40,41
 -10.5 -236.5 -10.5 -236.5 -29 -231.5 c 0,42,43
 -47.5 -226.5 -47.5 -226.5 -61.5 -216.5 c 0,44,45
 -75.5 -206.5 -75.5 -206.5 -83.75 -192 c 0,46,47
 -92 -177.5 -92 -177.5 -92 -158.5 c 0,48,49
 -92 -145 -92 -145 -86.75 -133 c 0,50,51
 -81.5 -121 -81.5 -121 -72.5 -111.75 c 0,52,53
 -63.5 -102.5 -63.5 -102.5 -51.5 -96.75 c 0,54,55
 -39.5 -91 -39.5 -91 -26.5 -90 c 0,56,-1
 73.5 -191.5 l 0,57,58
 79.5 -182 79.5 -182 84 -168.75 c 0,59,60
 88.5 -155.5 88.5 -155.5 91.5 -140.5 c 0,61,62
 94.5 -125.5 94.5 -125.5 96.5 -109.75 c 0,63,64
 98.5 -94 98.5 -94 100 -79 c 0,65,66
 102.5 -44 102.5 -44 102.5 -5 c 0,67,-1
 102.5 419 l 0,68,-1
 29.5 419 l 0,69,-1
 29.5 461 l 0,70,-1
 186.5 512 l 0,71,-1
 238.5 512 l 0,72,-1
 238.5 48 l 0,32,33
EndSplineSet
EndChar

StartChar: k
Encoding: 78 107 78
Width: 606
VWidth: 500
Flags: W
LayerCount: 2
Fore
SplineSet
390 0 m 0,0,-1
 390 42 l 0,1,-1
 277.5 231.5 l 0,2,-1
 229.5 231.5 l 0,3,-1
 229.5 75 l 0,4,5
 229.5 65.5 229.5 65.5 235.75 58.75 c 0,6,7
 242 52 242 52 252 51 c 0,8,-1
 293 48 l 0,9,-1
 293 0 l 0,10,-1
 26.5 0 l 0,11,-1
 26.5 48 l 0,12,-1
 69.5 51 l 0,13,14
 79 52 79 52 85.5 58.75 c 0,15,16
 92 65.5 92 65.5 92 75 c 0,17,-1
 92 664.5 l 0,18,-1
 20.5 664.5 l 0,19,-1
 20.5 706.5 l 0,20,-1
 177 758 l 0,21,-1
 229.5 758 l 0,22,-1
 229.5 266 l 0,23,-1
 252 266 l 0,24,-1
 389 430 l 0,25,26
 394 435.5 394 435.5 391.75 441 c 0,27,28
 389.5 446.5 389.5 446.5 382 447.5 c 0,29,-1
 343 451.5 l 0,30,-1
 343 499.5 l 0,31,-1
 556 499.5 l 0,32,-1
 556 451.5 l 0,33,-1
 488.5 443.5 l 0,34,-1
 379 318.5 l 0,35,-1
 536.5 53 l 0,36,-1
 597 48 l 0,37,-1
 597 0 l 0,38,-1
 390 0 l 0,0,-1
EndSplineSet
EndChar

StartChar: l
Encoding: 79 108 79
Width: 341
VWidth: 500
Flags: W
LayerCount: 2
Fore
SplineSet
29.5 0 m 0,0,-1
 29.5 48 l 0,1,-1
 80 51 l 0,2,3
 90 52 90 52 96.25 58.5 c 0,4,5
 102.5 65 102.5 65 102.5 75 c 0,6,-1
 102.5 664.5 l 0,7,-1
 29.5 664.5 l 0,8,-1
 29.5 706.5 l 0,9,-1
 186.5 758 l 0,10,-1
 238.5 758 l 0,11,-1
 238.5 75 l 0,12,13
 238.5 65 238.5 65 244.75 58.5 c 0,14,15
 251 52 251 52 261 51 c 0,16,-1
 312.5 48 l 0,17,-1
 312.5 0 l 0,18,-1
 29.5 0 l 0,0,-1
EndSplineSet
EndChar

StartChar: m
Encoding: 80 109 80
Width: 927
VWidth: 500
Flags: W
LayerCount: 2
Fore
SplineSet
648 0 m 0,0,-1
 648 48 l 0,1,-1
 680 51 l 0,2,3
 689 52 689 52 696.25 58.75 c 0,4,5
 703.5 65.5 703.5 65.5 703.5 75 c 0,6,-1
 703.5 321.5 l 0,7,8
 703.5 340 703.5 340 699 357.5 c 0,9,10
 694.5 375 694.5 375 684.25 388.5 c 0,11,12
 674 402 674 402 657 410 c 0,13,14
 640 418 640 418 614.5 418 c 0,15,16
 598 418 598 418 583.25 415.25 c 0,17,18
 568.5 412.5 568.5 412.5 557 409.5 c 0,19,20
 544 406 544 406 532.5 401.5 c 0,21,-1
 532.5 75 l 0,22,23
 532.5 65.5 532.5 65.5 539 58.75 c 0,24,25
 545.5 52 545.5 52 555 51 c 0,26,-1
 587 48 l 0,27,-1
 587 0 l 0,28,-1
 341 0 l 0,29,-1
 341 48 l 0,30,-1
 372.5 51 l 0,31,32
 382 52 382 52 388.75 58.75 c 0,33,34
 395.5 65.5 395.5 65.5 395.5 75 c 0,35,-1
 395.5 321.5 l 0,36,37
 395.5 340 395.5 340 390.5 357.5 c 0,38,39
 385.5 375 385.5 375 375 388.5 c 0,40,41
 364.5 402 364.5 402 347.75 410 c 0,42,43
 331 418 331 418 307 418 c 0,44,45
 286 418 286 418 270.25 415.25 c 0,46,47
 254.5 412.5 254.5 412.5 244.5 409.5 c 0,48,49
 232.5 406 232.5 406 224.5 401.5 c 0,50,-1
 224.5 75 l 0,51,52
 224.5 65.5 224.5 65.5 231.5 58.75 c 0,53,54
 238.5 52 238.5 52 248 51 c 0,55,-1
 279.5 48 l 0,56,-1
 279.5 0 l 0,57,-1
 27.5 0 l 0,58,-1
 27.5 48 l 0,59,-1
 65.5 51 l 0,60,61
 75 52 75 52 81.5 58.75 c 0,62,63
 88 65.5 88 65.5 88 75 c 0,64,-1
 88 418 l 0,65,-1
 22.5 418 l 0,66,-1
 22.5 460 l 0,67,-1
 173 512 l 0,68,-1
 224.5 512 l 0,69,-1
 224.5 449.5 l 0,70,71
 250.5 467 250.5 467 278.5 480.5 c 0,72,73
 302.5 492 302.5 492 332.25 502 c 0,74,75
 362 512 362 512 392 512 c 0,76,77
 421 512 421 512 441.5 504.25 c 0,78,79
 462 496.5 462 496.5 476.25 485.75 c 0,80,81
 490.5 475 490.5 475 499.75 463 c 0,82,83
 509 451 509 451 516 442.5 c 0,84,85
 546 461.5 546 461.5 577 477 c 0,86,87
 590.5 483.5 590.5 483.5 605.5 489.75 c 0,88,89
 620.5 496 620.5 496 636.25 501 c 0,90,91
 652 506 652 506 667.75 509 c 0,92,93
 683.5 512 683.5 512 698.5 512 c 0,94,95
 729.5 512 729.5 512 752 503.75 c 0,96,97
 774.5 495.5 774.5 495.5 790.25 482 c 0,98,99
 806 468.5 806 468.5 815.5 451.75 c 0,100,101
 825 435 825 435 830.5 417.5 c 0,102,103
 836 400 836 400 837.75 383.75 c 0,104,105
 839.5 367.5 839.5 367.5 839.5 355.5 c 0,106,-1
 839.5 75 l 0,107,108
 839.5 65.5 839.5 65.5 846.25 58.75 c 0,109,110
 853 52 853 52 862 51 c 0,111,-1
 899 48 l 0,112,-1
 899 0 l 0,113,-1
 648 0 l 0,0,-1
EndSplineSet
EndChar

StartChar: n
Encoding: 81 110 81
Width: 640
VWidth: 500
Flags: W
LayerCount: 2
Fore
SplineSet
351 0 m 0,0,-1
 351 48 l 0,1,-1
 389 51 l 0,2,3
 398.5 52 398.5 52 405 58.75 c 0,4,5
 411.5 65.5 411.5 65.5 411.5 75 c 0,6,-1
 411.5 315.5 l 0,7,8
 411.5 335 411.5 335 407 353.5 c 0,9,10
 402.5 372 402.5 372 392.5 386.25 c 0,11,12
 382.5 400.5 382.5 400.5 366.5 409.25 c 0,13,14
 350.5 418 350.5 418 327.5 418 c 0,15,16
 306.5 418 306.5 418 288.5 415.75 c 0,17,18
 270.5 413.5 270.5 413.5 257.5 411 c 0,19,20
 242 408 242 408 229.5 404.5 c 0,21,-1
 229.5 75 l 0,22,23
 229.5 65.5 229.5 65.5 236.5 58.75 c 0,24,25
 243.5 52 243.5 52 253 51 c 0,26,-1
 283.5 48 l 0,27,-1
 283.5 0 l 0,28,-1
 33 0 l 0,29,-1
 33 48 l 0,30,-1
 69.5 51 l 0,31,32
 79 52 79 52 85.5 58.75 c 0,33,34
 92 65.5 92 65.5 92 75 c 0,35,-1
 92 418 l 0,36,-1
 21.5 418 l 0,37,-1
 21.5 460 l 0,38,-1
 176 512 l 0,39,-1
 229.5 512 l 0,40,-1
 229.5 449.5 l 0,41,42
 256 467 256 467 286 480.5 c 0,43,44
 311.5 492 311.5 492 343.5 502 c 0,45,46
 375.5 512 375.5 512 408.5 512 c 0,47,48
 452.5 512 452.5 512 480 496.75 c 0,49,50
 507.5 481.5 507.5 481.5 522.5 456.5 c 0,51,52
 537.5 431.5 537.5 431.5 542.75 399.5 c 0,53,54
 548 367.5 548 367.5 548 334 c 0,55,-1
 548 75 l 0,56,57
 548 65.5 548 65.5 555 58.75 c 0,58,59
 562 52 562 52 571.5 51 c 0,60,-1
 603 48 l 0,61,-1
 603 0 l 0,62,-1
 351 0 l 0,0,-1
EndSplineSet
EndChar

StartChar: o
Encoding: 82 111 82
Width: 598
VWidth: 500
Flags: W
LayerCount: 2
Fore
SplineSet
566.5 247 m 0,0,1
 566.5 189.5 566.5 189.5 548.25 141.75 c 0,2,3
 530 94 530 94 495 59.75 c 0,4,5
 460 25.5 460 25.5 409.75 6.5 c 0,6,7
 359.5 -12.5 359.5 -12.5 296 -12.5 c 0,8,9
 237.5 -12.5 237.5 -12.5 189.25 5.5 c 0,10,11
 141 23.5 141 23.5 106.25 57 c 0,12,13
 71.5 90.5 71.5 90.5 52.25 138.75 c 0,14,15
 33 187 33 187 33 248 c 0,16,17
 33 311 33 311 53 360 c 0,18,19
 73 409 73 409 108.75 442.75 c 0,20,21
 144.5 476.5 144.5 476.5 194 494.25 c 0,22,23
 243.5 512 243.5 512 303 512 c 0,24,25
 366.5 512 366.5 512 415.5 492.5 c 0,26,27
 464.5 473 464.5 473 498 437.75 c 0,28,29
 531.5 402.5 531.5 402.5 549 354 c 0,30,31
 566.5 305.5 566.5 305.5 566.5 247 c 0,0,1
413.5 248 m 0,32,33
 413.5 269.5 413.5 269.5 411.5 293.25 c 0,34,35
 409.5 317 409.5 317 404.75 340 c 0,36,37
 400 363 400 363 391.5 383.5 c 0,38,39
 383 404 383 404 370.25 419.5 c 0,40,41
 357.5 435 357.5 435 340 444.25 c 0,42,43
 322.5 453.5 322.5 453.5 299 453.5 c 0,44,45
 264.5 453.5 264.5 453.5 242.5 434.5 c 0,46,47
 220.5 415.5 220.5 415.5 208.25 385.75 c 0,48,49
 196 356 196 356 191.25 320.5 c 0,50,51
 186.5 285 186.5 285 186.5 252 c 0,52,53
 186.5 230 186.5 230 188.25 206 c 0,54,55
 190 182 190 182 194.75 159 c 0,56,57
 199.5 136 199.5 136 207.5 115.5 c 0,58,59
 215.5 95 215.5 95 228.25 79.25 c 0,60,61
 241 63.5 241 63.5 258.5 54.25 c 0,62,63
 276 45 276 45 300 45 c 0,64,65
 335 45 335 45 357 63.75 c 0,66,67
 379 82.5 379 82.5 391.5 112 c 0,68,69
 404 141.5 404 141.5 408.75 177.5 c 0,70,71
 413.5 213.5 413.5 213.5 413.5 248 c 0,32,33
EndSplineSet
EndChar

StartChar: p
Encoding: 83 112 83
Width: 618
VWidth: 500
Flags: W
LayerCount: 2
Fore
SplineSet
585.5 264 m 0,0,1
 585.5 202 585.5 202 566 151 c 0,2,3
 546.5 100 546.5 100 510.5 63.75 c 0,4,5
 474.5 27.5 474.5 27.5 423.5 7.5 c 0,6,7
 372.5 -12.5 372.5 -12.5 309 -12.5 c 0,8,9
 293.5 -12.5 293.5 -12.5 279.5 -11 c 0,10,11
 265.5 -9.5 265.5 -9.5 254 -7.5 c 0,12,13
 241 -5.5 241 -5.5 229.5 -2 c 0,14,-1
 229.5 -149.5 l 0,15,16
 229.5 -159.5 229.5 -159.5 235.75 -166.25 c 0,17,18
 242 -173 242 -173 252 -173 c 0,19,-1
 306 -176 l 0,20,-1
 306 -224.5 l 0,21,-1
 24.5 -224.5 l 0,22,-1
 24.5 -176 l 0,23,-1
 69.5 -173 l 0,24,25
 79 -173 79 -173 85.5 -166.25 c 0,26,27
 92 -159.5 92 -159.5 92 -149.5 c 0,28,-1
 92 418 l 0,29,-1
 24.5 418 l 0,30,-1
 24.5 460 l 0,31,-1
 176 512 l 0,32,-1
 229.5 512 l 0,33,-1
 229.5 447.5 l 0,34,35
 253.5 465.5 253.5 465.5 281 479.5 c 0,36,37
 304.5 491.5 304.5 491.5 333.5 501.75 c 0,38,39
 362.5 512 362.5 512 394 512 c 0,40,41
 425 512 425 512 451.5 502 c 0,42,43
 478 492 478 492 499.25 474.75 c 0,44,45
 520.5 457.5 520.5 457.5 536.75 433.75 c 0,46,47
 553 410 553 410 563.75 382.5 c 0,48,49
 574.5 355 574.5 355 580 324.75 c 0,50,51
 585.5 294.5 585.5 294.5 585.5 264 c 0,0,1
434 249 m 0,52,53
 434 282.5 434 282.5 426.25 313.5 c 0,54,55
 418.5 344.5 418.5 344.5 402.75 367.75 c 0,56,57
 387 391 387 391 362.75 405 c 0,58,59
 338.5 419 338.5 419 305 419 c 0,60,61
 291.5 419 291.5 419 278.25 416.5 c 0,62,63
 265 414 265 414 254 411 c 0,64,65
 241 407.5 241 407.5 229.5 403.5 c 0,66,-1
 229.5 55.5 l 0,67,68
 239.5 51.5 239.5 51.5 249.5 49 c 0,69,70
 258 46.5 258 46.5 267.5 44.75 c 0,71,72
 277 43 277 43 285.5 43 c 0,73,74
 322.5 43 322.5 43 350.25 59 c 0,75,76
 378 75 378 75 396.75 102.75 c 0,77,78
 415.5 130.5 415.5 130.5 424.75 168.25 c 0,79,80
 434 206 434 206 434 249 c 0,52,53
EndSplineSet
EndChar

StartChar: q
Encoding: 84 113 84
Width: 617
VWidth: 500
Flags: W
LayerCount: 2
Fore
SplineSet
309 -224.5 m 0,0,-1
 309 -176 l 0,1,-1
 365.5 -173 l 0,2,3
 375.5 -173 375.5 -173 381.75 -166.25 c 0,4,5
 388 -159.5 388 -159.5 388 -149.5 c 0,6,-1
 388 40 l 0,7,8
 366.5 25 366.5 25 342 13.5 c 0,9,10
 320.5 3.5 320.5 3.5 292.75 -4.5 c 0,11,12
 265 -12.5 265 -12.5 233.5 -12.5 c 0,13,14
 187.5 -12.5 187.5 -12.5 150.25 7.5 c 0,15,16
 113 27.5 113 27.5 87 61.5 c 0,17,18
 61 95.5 61 95.5 47 140.25 c 0,19,20
 33 185 33 185 33 234.5 c 0,21,22
 33 307 33 307 57.5 359.5 c 0,23,24
 82 412 82 412 125.75 445.75 c 0,25,26
 169.5 479.5 169.5 479.5 230.25 495.75 c 0,27,28
 291 512 291 512 363.5 512 c 0,29,30
 389.5 512 389.5 512 418 510 c 0,31,32
 446.5 508 446.5 508 470.5 505.5 c 0,33,34
 498.5 503 498.5 503 525.5 499.5 c 0,35,-1
 525.5 -149.5 l 0,36,37
 525.5 -159.5 525.5 -159.5 532 -166.25 c 0,38,39
 538.5 -173 538.5 -173 548 -173 c 0,40,-1
 590 -176 l 0,41,-1
 590 -224.5 l 0,42,-1
 309 -224.5 l 0,0,-1
388 447.5 m 0,43,44
 383 448.5 383 448.5 376.5 449.5 c 0,45,46
 371 450.5 371 450.5 363.25 451 c 0,47,48
 355.5 451.5 355.5 451.5 347 451.5 c 0,49,50
 301.5 451.5 301.5 451.5 270 436.75 c 0,51,52
 238.5 422 238.5 422 219 396 c 0,53,54
 199.5 370 199.5 370 191 334.5 c 0,55,56
 182.5 299 182.5 299 182.5 258 c 0,57,58
 182.5 216 182.5 216 192 182.5 c 0,59,60
 201.5 149 201.5 149 219.5 125.5 c 0,61,62
 237.5 102 237.5 102 263.5 89.5 c 0,63,64
 289.5 77 289.5 77 322.5 77 c 0,65,66
 334 77 334 77 345.5 77.5 c 0,67,68
 357 78 357 78 366.5 79 c 0,69,70
 377.5 80 377.5 80 388 81 c 0,71,-1
 388 447.5 l 0,43,44
EndSplineSet
EndChar

StartChar: r
Encoding: 85 114 85
Width: 442
VWidth: 500
Flags: W
LayerCount: 2
Fore
SplineSet
362.5 338 m 0,0,1
 359 343 359 343 353.75 350 c 0,2,3
 348.5 357 348.5 357 340.75 363.5 c 0,4,5
 333 370 333 370 322 374.5 c 0,6,7
 311 379 311 379 296 379 c 0,8,9
 281.5 379 281.5 379 269 376 c 0,10,11
 256.5 373 256.5 373 248 369.5 c 0,12,13
 237.5 365.5 237.5 365.5 229.5 360.5 c 0,14,-1
 229.5 73.5 l 0,15,16
 229.5 64.5 229.5 64.5 235.75 57.25 c 0,17,18
 242 50 242 50 252 50 c 0,19,-1
 317.5 47 l 0,20,-1
 317.5 -1 l 0,21,-1
 24.5 -1 l 0,22,-1
 24.5 47 l 0,23,-1
 69.5 50 l 0,24,25
 79 51 79 51 85.5 57.75 c 0,26,27
 92 64.5 92 64.5 92 73.5 c 0,28,-1
 92 418 l 0,29,-1
 17.5 418 l 0,30,-1
 17.5 460 l 0,31,-1
 176 512 l 0,32,-1
 229.5 512 l 0,33,-1
 229.5 403.5 l 0,34,35
 239 415.5 239 415.5 255.25 434 c 0,36,37
 271.5 452.5 271.5 452.5 290.5 469.75 c 0,38,39
 309.5 487 309.5 487 329.75 499.5 c 0,40,41
 350 512 350 512 367.5 512 c 0,42,43
 376.5 512 376.5 512 386 510.5 c 0,44,45
 395.5 509 395.5 509 404.25 506.25 c 0,46,47
 413 503.5 413 503.5 420.25 500.25 c 0,48,49
 427.5 497 427.5 497 432 493.5 c 0,50,-1
 432 338 l 0,51,-1
 362.5 338 l 0,0,1
EndSplineSet
EndChar

StartChar: s
Encoding: 86 115 86
Width: 455
VWidth: 500
Flags: W
LayerCount: 2
Fore
SplineSet
407.5 343 m 0,0,-1
 344 343 l 0,1,-1
 333 425 l 0,2,3
 323 436.5 323 436.5 302 443.5 c 0,4,5
 281 450.5 281 450.5 253 450.5 c 0,6,7
 217 450.5 217 450.5 196.5 435.75 c 0,8,9
 176 421 176 421 176 394 c 0,10,11
 176 379 176 379 184.5 366 c 0,12,13
 193 353 193 353 207.5 341.5 c 0,14,15
 222 330 222 330 240.5 319.75 c 0,16,17
 259 309.5 259 309.5 279.5 299 c 0,18,19
 305 286 305 286 331 272.5 c 0,20,21
 357 259 357 259 377.5 242.5 c 0,22,23
 398 226 398 226 411 205.75 c 0,24,25
 424 185.5 424 185.5 424 159.5 c 0,26,27
 424 111 424 111 405.5 78.25 c 0,28,29
 387 45.5 387 45.5 357.5 25.25 c 0,30,31
 328 5 328 5 290.5 -3.75 c 0,32,33
 253 -12.5 253 -12.5 215 -12.5 c 0,34,35
 177 -12.5 177 -12.5 144.25 -8.25 c 0,36,37
 111.5 -4 111.5 -4 86.5 1.5 c 0,38,39
 57.5 7.5 57.5 7.5 33 15.5 c 0,40,-1
 33 171 l 0,41,-1
 97.5 171 l 0,42,43
 98.5 160.5 98.5 160.5 100.5 144.5 c 0,44,45
 102.5 128.5 102.5 128.5 104.5 113.5 c 0,46,47
 106.5 96 106.5 96 109.5 77 c 0,48,49
 110.5 74.5 110.5 74.5 121 69.75 c 0,50,51
 131.5 65 131.5 65 146 60 c 0,52,53
 160.5 55 160.5 55 176.5 51.5 c 0,54,55
 192.5 48 192.5 48 205 48 c 0,56,57
 231 48 231 48 248 55 c 0,58,59
 265 62 265 62 275 72 c 0,60,61
 285 82 285 82 289 93.25 c 0,62,63
 293 104.5 293 104.5 293 113.5 c 0,64,65
 293 134.5 293 134.5 279.75 149.75 c 0,66,67
 266.5 165 266.5 165 245.5 177.5 c 0,68,69
 224.5 190 224.5 190 198.25 201.25 c 0,70,71
 172 212.5 172 212.5 146.5 225.5 c 0,72,73
 125 236 125 236 105.5 248.5 c 0,74,75
 86 261 86 261 71.25 276.5 c 0,76,77
 56.5 292 56.5 292 47.75 311.5 c 0,78,79
 39 331 39 331 39 356.5 c 0,80,81
 39 392 39 392 54.25 420.75 c 0,82,83
 69.5 449.5 69.5 449.5 97 469.75 c 0,84,85
 124.5 490 124.5 490 162 501 c 0,86,87
 199.5 512 199.5 512 244.5 512 c 0,88,89
 282.5 512 282.5 512 312.75 507.75 c 0,90,91
 343 503.5 343 503.5 364 498 c 0,92,93
 388.5 492 388.5 492 407.5 484.5 c 0,94,-1
 407.5 343 l 0,0,-1
EndSplineSet
EndChar

StartChar: t
Encoding: 87 116 87
Width: 384
VWidth: 500
Flags: W
LayerCount: 2
Fore
SplineSet
380 22.5 m 0,0,1
 356 12.5 356 12.5 329 5 c 0,2,3
 306 -2 306 -2 276.75 -7.25 c 0,4,5
 247.5 -12.5 247.5 -12.5 216 -12.5 c 0,6,7
 182 -12.5 182 -12.5 158.25 -5 c 0,8,9
 134.5 2.5 134.5 2.5 119.75 18.25 c 0,10,11
 105 34 105 34 98.5 57.5 c 0,12,13
 92 81 92 81 92 113.5 c 0,14,-1
 92 434 l 0,15,-1
 24.5 434 l 0,16,-1
 24.5 475 l 0,17,-1
 103.5 522 l 0,18,-1
 158.5 631 l 0,19,-1
 229.5 631 l 0,20,-1
 229.5 499.5 l 0,21,-1
 371.5 499.5 l 0,22,-1
 371.5 434 l 0,23,-1
 229.5 434 l 0,24,-1
 229.5 155.5 l 0,25,26
 229.5 106.5 229.5 106.5 251 86.5 c 0,27,28
 272.5 66.5 272.5 66.5 313.5 66.5 c 0,29,30
 325.5 66.5 325.5 66.5 337.5 67.5 c 0,31,32
 349.5 68.5 349.5 68.5 359 70 c 0,33,34
 370 71.5 370 71.5 380 73.5 c 0,35,-1
 380 22.5 l 0,0,1
EndSplineSet
EndChar

StartChar: u
Encoding: 88 117 88
Width: 635
VWidth: 500
Flags: W
LayerCount: 2
Fore
SplineSet
405.5 0 m 0,0,-1
 405.5 56.5 l 0,1,2
 380 37 380 37 352.5 22 c 0,3,4
 329 9 329 9 300.5 -1.75 c 0,5,6
 272 -12.5 272 -12.5 243.5 -12.5 c 0,7,8
 200 -12.5 200 -12.5 170.75 -1 c 0,9,10
 141.5 10.5 141.5 10.5 124 32 c 0,11,12
 106.5 53.5 106.5 53.5 99.25 84.5 c 0,13,14
 92 115.5 92 115.5 92 154.5 c 0,15,-1
 92 419 l 0,16,-1
 25.5 419 l 0,17,-1
 25.5 461 l 0,18,-1
 176 512 l 0,19,-1
 229.5 512 l 0,20,-1
 229.5 194.5 l 0,21,22
 229.5 175.5 229.5 175.5 232 155.5 c 0,23,24
 234.5 135.5 234.5 135.5 244 119 c 0,25,26
 253.5 102.5 253.5 102.5 272.25 91.75 c 0,27,28
 291 81 291 81 323.5 81 c 0,29,30
 339.5 81 339.5 81 354.25 83.5 c 0,31,32
 369 86 369 86 380.5 89.5 c 0,33,34
 393.5 93.5 393.5 93.5 405.5 98.5 c 0,35,-1
 405.5 419 l 0,36,-1
 341 419 l 0,37,-1
 341 461 l 0,38,-1
 490.5 512 l 0,39,-1
 542.5 512 l 0,40,-1
 542.5 75 l 0,41,42
 542.5 65.5 542.5 65.5 549.75 58.75 c 0,43,44
 557 52 557 52 566.5 51 c 0,45,-1
 611.5 48 l 0,46,-1
 611.5 0 l 0,47,-1
 405.5 0 l 0,0,-1
EndSplineSet
EndChar

StartChar: v
Encoding: 89 118 89
Width: 579
VWidth: 500
Flags: W
LayerCount: 2
Fore
SplineSet
512 444.5 m 0,0,-1
 336 0 l 0,1,-1
 234.5 0 l 0,2,-1
 70.5 445.5 l 0,3,-1
 10 451.5 l 0,4,-1
 10 499.5 l 0,5,-1
 279.5 499.5 l 0,6,-1
 279.5 451.5 l 0,7,-1
 232.5 448.5 l 0,8,9
 223 447.5 223 447.5 219 441 c 0,10,11
 215 434.5 215 434.5 218 426 c 0,12,-1
 318.5 142.5 l 0,13,-1
 430 426 l 0,14,15
 433 433.5 433 433.5 428 440.5 c 0,16,17
 423 447.5 423 447.5 414.5 448.5 c 0,18,-1
 371.5 451.5 l 0,19,-1
 371.5 499.5 l 0,20,-1
 570.5 499.5 l 0,21,-1
 570.5 451.5 l 0,22,-1
 512 444.5 l 0,0,-1
EndSplineSet
EndChar

StartChar: w
Encoding: 90 119 90
Width: 861
VWidth: 500
Flags: W
LayerCount: 2
Fore
SplineSet
794.5 444.5 m 0,0,-1
 657.5 0 l 0,1,-1
 543.5 0 l 0,2,-1
 432 363.5 l 0,3,-1
 314.5 0 l 0,4,-1
 203 0 l 0,5,-1
 70.5 445.5 l 0,6,-1
 10 451.5 l 0,7,-1
 10 499.5 l 0,8,-1
 272.5 499.5 l 0,9,-1
 272.5 451.5 l 0,10,-1
 228.5 448.5 l 0,11,12
 220 447.5 220 447.5 215.25 441 c 0,13,14
 210.5 434.5 210.5 434.5 213 426 c 0,15,-1
 293 144.5 l 0,16,-1
 407.5 499.5 l 0,17,-1
 520 499.5 l 0,18,-1
 630 142.5 l 0,19,-1
 715 426 l 0,20,21
 717.5 433.5 717.5 433.5 713.25 440.5 c 0,22,23
 709 447.5 709 447.5 700.5 448.5 c 0,24,-1
 655.5 451.5 l 0,25,-1
 655.5 499.5 l 0,26,-1
 852 499.5 l 0,27,-1
 852 451.5 l 0,28,-1
 794.5 444.5 l 0,0,-1
EndSplineSet
EndChar

StartChar: x
Encoding: 91 120 91
Width: 559
VWidth: 500
Flags: W
LayerCount: 2
Fore
SplineSet
290 0 m 0,0,-1
 290 48 l 0,1,-1
 329.5 52 l 0,2,3
 337.5 53 337.5 53 339.75 58.25 c 0,4,5
 342 63.5 342 63.5 338 69.5 c 0,6,-1
 257 180 l 0,7,-1
 167 69.5 l 0,8,9
 162.5 64 162.5 64 164.5 58.5 c 0,10,11
 166.5 53 166.5 53 174 52 c 0,12,-1
 210 48 l 0,13,-1
 210 0 l 0,14,-1
 10 0 l 0,15,-1
 10 48 l 0,16,-1
 71.5 56.5 l 0,17,-1
 218 233.5 l 0,18,-1
 66.5 444.5 l 0,19,-1
 12.5 451.5 l 0,20,-1
 12.5 499.5 l 0,21,-1
 264 499.5 l 0,22,-1
 264 451.5 l 0,23,-1
 234.5 448.5 l 0,24,25
 226 447.5 226 447.5 224.25 441.5 c 0,26,27
 222.5 435.5 222.5 435.5 227.5 430 c 0,28,-1
 299 331 l 0,29,-1
 381 430 l 0,30,31
 385 435.5 385 435.5 383.25 441.5 c 0,32,33
 381.5 447.5 381.5 447.5 374 448.5 c 0,34,-1
 341 451.5 l 0,35,-1
 341 499.5 l 0,36,-1
 531.5 499.5 l 0,37,-1
 531.5 451.5 l 0,38,-1
 474 444.5 l 0,39,-1
 338 276.5 l 0,40,-1
 495.5 56.5 l 0,41,-1
 550 48 l 0,42,-1
 550 0 l 0,43,-1
 290 0 l 0,0,-1
EndSplineSet
EndChar

StartChar: y
Encoding: 92 121 92
Width: 579
VWidth: 500
Flags: W
LayerCount: 2
Fore
SplineSet
516 444.5 m 0,0,-1
 339 10 l 0,1,2
 329.5 -13 329.5 -13 318 -40 c 0,3,4
 306.5 -67 306.5 -67 292.25 -94.25 c 0,5,6
 278 -121.5 278 -121.5 261 -146.75 c 0,7,8
 244 -172 244 -172 223 -191.5 c 0,9,10
 201.5 -212.5 201.5 -212.5 176.25 -224.5 c 0,11,12
 151 -236.5 151 -236.5 121 -236.5 c 0,13,14
 106 -236.5 106 -236.5 89.75 -230.75 c 0,15,16
 73.5 -225 73.5 -225 60.25 -214.25 c 0,17,18
 47 -203.5 47 -203.5 38.5 -188.25 c 0,19,20
 30 -173 30 -173 30.5 -154.5 c 0,21,22
 30.5 -140.5 30.5 -140.5 35.75 -128.75 c 0,23,24
 41 -117 41 -117 49.25 -107.5 c 0,25,26
 57.5 -98 57.5 -98 68.25 -91 c 0,27,28
 79 -84 79 -84 90 -79 c 0,29,-1
 177 -145.5 l 0,30,31
 191 -132.5 191 -132.5 203.25 -114.5 c 0,32,33
 215.5 -96.5 215.5 -96.5 225.25 -77.25 c 0,34,35
 235 -58 235 -58 242.25 -40 c 0,36,37
 249.5 -22 249.5 -22 253 -9 c 0,38,-1
 70.5 445.5 l 0,39,-1
 10 451.5 l 0,40,-1
 10 499.5 l 0,41,-1
 279.5 499.5 l 0,42,-1
 279.5 451.5 l 0,43,-1
 232.5 448.5 l 0,44,45
 223 447.5 223 447.5 218.5 441 c 0,46,47
 214 434.5 214 434.5 217 426 c 0,48,-1
 322.5 163 l 0,49,-1
 431 426 l 0,50,51
 434 433.5 434 433.5 429 440.5 c 0,52,53
 424 447.5 424 447.5 415.5 448.5 c 0,54,-1
 370.5 451.5 l 0,55,-1
 370.5 499.5 l 0,56,-1
 570.5 499.5 l 0,57,-1
 570.5 451.5 l 0,58,-1
 516 444.5 l 0,0,-1
EndSplineSet
EndChar

StartChar: z
Encoding: 93 122 93
Width: 503
VWidth: 500
Flags: W
LayerCount: 2
Fore
SplineSet
33 0 m 0,0,-1
 33 66.5 l 0,1,-1
 295 441.5 l 0,2,-1
 140.5 441.5 l 0,3,4
 132.5 441.5 132.5 441.5 126.75 434.25 c 0,5,6
 121 427 121 427 121 420 c 0,7,-1
 113.5 341 l 0,8,-1
 41 341 l 0,9,-1
 41 499.5 l 0,10,-1
 455.5 499.5 l 0,11,-1
 455.5 442.5 l 0,12,-1
 187.5 60.5 l 0,13,-1
 363.5 60.5 l 0,14,15
 367 60.5 367 60.5 370.5 63 c 0,16,17
 374 65.5 374 65.5 377.25 69 c 0,18,19
 380.5 72.5 380.5 72.5 382.75 76.75 c 0,20,21
 385 81 385 81 386 85 c 0,22,-1
 399.5 172 l 0,23,-1
 470 172 l 0,24,-1
 470 0 l 0,25,-1
 33 0 l 0,0,-1
EndSplineSet
EndChar

StartChar: braceleft
Encoding: 94 123 94
Width: 507
VWidth: 500
Flags: W
LayerCount: 2
Fore
SplineSet
432 -125 m 0,0,-1
 412 -125 l 0,1,2
 398.5 -125 398.5 -125 380.25 -124.25 c 0,3,4
 362 -123.5 362 -123.5 341 -121.25 c 0,5,6
 320 -119 320 -119 299.5 -114.25 c 0,7,8
 279 -109.5 279 -109.5 260.5 -102 c 0,9,10
 242 -94.5 242 -94.5 229.5 -83 c 0,11,12
 206 -62.5 206 -62.5 195.5 -34.5 c 0,13,14
 185 -6.5 185 -6.5 181.75 24.25 c 0,15,16
 178.5 55 178.5 55 179.25 86.75 c 0,17,18
 180 118.5 180 118.5 179.5 147.5 c 0,19,20
 179 176.5 179 176.5 174.25 200.5 c 0,21,22
 169.5 224.5 169.5 224.5 154.5 239.5 c 0,23,24
 139.5 254.5 139.5 254.5 120 260.75 c 0,25,26
 100.5 267 100.5 267 83 269 c 0,27,28
 63 271 63 271 42 268.5 c 0,29,-1
 42 329.5 l 0,30,31
 63 326.5 63 326.5 83 328.5 c 0,32,33
 100.5 330 100.5 330 120 336.25 c 0,34,35
 139.5 342.5 139.5 342.5 154.5 357.5 c 0,36,37
 169.5 372.5 169.5 372.5 174.25 396.75 c 0,38,39
 179 421 179 421 179.5 450 c 0,40,41
 180 479 180 479 179.25 511 c 0,42,43
 178.5 543 178.5 543 181.75 573.75 c 0,44,45
 185 604.5 185 604.5 195.5 632.5 c 0,46,47
 206 660.5 206 660.5 229.5 681 c 0,48,49
 242 692.5 242 692.5 260.5 700 c 0,50,51
 279 707.5 279 707.5 299.5 712.25 c 0,52,53
 320 717 320 717 341 719.25 c 0,54,55
 362 721.5 362 721.5 380.25 722.25 c 0,56,57
 398.5 723 398.5 723 412 723 c 0,58,-1
 432 723 l 0,59,-1
 432 666.5 l 0,60,61
 413.5 666.5 413.5 666.5 395.5 664 c 0,62,63
 380 661.5 380 661.5 363.25 656 c 0,64,65
 346.5 650.5 346.5 650.5 335 639 c 0,66,67
 319.5 624 319.5 624 314 601.75 c 0,68,69
 308.5 579.5 308.5 579.5 307.5 553.25 c 0,70,71
 306.5 527 306.5 527 307 498.5 c 0,72,73
 307.5 470 307.5 470 304.5 442.25 c 0,74,75
 301.5 414.5 301.5 414.5 292.25 389 c 0,76,77
 283 363.5 283 363.5 262 344 c 0,78,79
 246 328.5 246 328.5 228.5 319.5 c 0,80,81
 211 310.5 211 310.5 196 306 c 0,82,83
 181 301.5 181 301.5 169.5 300 c 0,84,85
 161 299 161 299 156.5 299 c 0,86,87
 161 298.5 161 298.5 169.5 297.5 c 0,88,89
 181 296 181 296 196 291.25 c 0,90,91
 211 286.5 211 286.5 228.5 277.5 c 0,92,93
 246 268.5 246 268.5 262 253 c 0,94,95
 283 233 283 233 292.25 207.75 c 0,96,97
 301.5 182.5 301.5 182.5 304.5 154.75 c 0,98,99
 307.5 127 307.5 127 307 98.75 c 0,100,101
 306.5 70.5 306.5 70.5 307.5 44.5 c 0,102,103
 308.5 18.5 308.5 18.5 314 -3.75 c 0,104,105
 319.5 -26 319.5 -26 335 -41 c 0,106,107
 346.5 -52.5 346.5 -52.5 363.25 -58 c 0,108,109
 380 -63.5 380 -63.5 395.5 -66 c 0,110,111
 413.5 -68.5 413.5 -68.5 432 -68.5 c 0,112,-1
 432 -125 l 0,0,-1
EndSplineSet
EndChar

StartChar: bar
Encoding: 95 124 95
Width: 407
VWidth: 500
Flags: W
LayerCount: 2
Fore
SplineSet
160 -264 m 0,0,-1
 160 815 l 0,1,-1
 247.5 815 l 0,2,-1
 247.5 -264 l 0,3,-1
 160 -264 l 0,0,-1
EndSplineSet
EndChar

StartChar: braceright
Encoding: 96 125 96
Width: 507
VWidth: 500
Flags: W
LayerCount: 2
Fore
SplineSet
465 268.5 m 0,0,1
 443.5 271 443.5 271 423.5 269 c 0,2,3
 406 267 406 267 386.5 260.75 c 0,4,5
 367 254.5 367 254.5 352.5 239.5 c 0,6,7
 337.5 224 337.5 224 332.5 200 c 0,8,9
 327.5 176 327.5 176 326.75 147 c 0,10,11
 326 118 326 118 326.75 86.25 c 0,12,13
 327.5 54.5 327.5 54.5 324.25 23.75 c 0,14,15
 321 -7 321 -7 310.75 -34.75 c 0,16,17
 300.5 -62.5 300.5 -62.5 277.5 -83 c 0,18,19
 264.5 -94.5 264.5 -94.5 246.25 -102 c 0,20,21
 228 -109.5 228 -109.5 207.5 -114.25 c 0,22,23
 187 -119 187 -119 166 -121.25 c 0,24,25
 145 -123.5 145 -123.5 126.75 -124.25 c 0,26,27
 108.5 -125 108.5 -125 94.5 -125 c 0,28,-1
 75 -125 l 0,29,-1
 75 -68.5 l 0,30,31
 93.5 -68.5 93.5 -68.5 111.5 -66 c 0,32,33
 127 -63.5 127 -63.5 143.5 -58 c 0,34,35
 160 -52.5 160 -52.5 172 -41 c 0,36,37
 187.5 -26 187.5 -26 193 -4 c 0,38,39
 198.5 18 198.5 18 199.5 44 c 0,40,41
 200.5 70 200.5 70 200 98.25 c 0,42,43
 199.5 126.5 199.5 126.5 202.25 154.25 c 0,44,45
 205 182 205 182 214.25 207.5 c 0,46,47
 223.5 233 223.5 233 244.5 253 c 0,48,49
 260.5 268 260.5 268 277.5 277 c 0,50,51
 294.5 286 294.5 286 309.75 290.75 c 0,52,53
 325 295.5 325 295.5 336.5 297 c 0,54,55
 348 298.5 348 298.5 352.5 299 c 0,56,57
 349 299 349 299 337.75 300 c 0,58,59
 326.5 301 326.5 301 311.25 305.5 c 0,60,61
 296 310 296 310 278.5 319 c 0,62,63
 261 328 261 328 244.5 344 c 0,64,65
 223.5 364 223.5 364 214.25 389.5 c 0,66,67
 205 415 205 415 202.25 442.75 c 0,68,69
 199.5 470.5 199.5 470.5 200 499 c 0,70,71
 200.5 527.5 200.5 527.5 199.5 553.75 c 0,72,73
 198.5 580 198.5 580 193 602 c 0,74,75
 187.5 624 187.5 624 172 639 c 0,76,77
 160 650.5 160 650.5 143.5 656 c 0,78,79
 127 661.5 127 661.5 111.5 664 c 0,80,81
 93.5 666.5 93.5 666.5 75 666.5 c 0,82,-1
 75 723 l 0,83,-1
 94.5 723 l 0,84,85
 108.5 723 108.5 723 126.75 722.25 c 0,86,87
 145 721.5 145 721.5 166 719.25 c 0,88,89
 187 717 187 717 207.5 712.25 c 0,90,91
 228 707.5 228 707.5 246.5 700 c 0,92,93
 265 692.5 265 692.5 277.5 681 c 0,94,95
 300.5 660 300.5 660 310.75 632.25 c 0,96,97
 321 604.5 321 604.5 324.25 573.75 c 0,98,99
 327.5 543 327.5 543 326.75 511 c 0,100,101
 326 479 326 479 326.75 450 c 0,102,103
 327.5 421 327.5 421 332.5 396.75 c 0,104,105
 337.5 372.5 337.5 372.5 352.5 357.5 c 0,106,107
 367 342.5 367 342.5 386.5 336.25 c 0,108,109
 406 330 406 330 423.5 328.5 c 0,110,111
 443.5 326.5 443.5 326.5 465 329.5 c 0,112,-1
 465 268.5 l 0,0,1
EndSplineSet
EndChar

StartChar: asciitilde
Encoding: 97 126 97
Width: 853
VWidth: 500
Flags: W
LayerCount: 2
Fore
SplineSet
382.5 153.5 m 0
 367 142.5 367 142.5 353.625 135 c 0
 340.25 127.5 340.25 127.5 328.375 123 c 0
 316.5 118.5 316.5 118.5 305.5 116.625 c 0
 294.5 114.75 294.5 114.75 283.75 114.75 c 0
 265 114.75 265 114.75 247.375 120.125 c 0
 229.75 125.5 229.75 125.5 212.375 131.875 c 0
 195 138.25 195 138.25 177.25 143.625 c 0
 159.5 149 159.5 149 140.75 149 c 0
 123 149 123 149 99.5 138.125 c 0
 76 127.25 76 127.25 44 103 c 0
 44 151.5 l 0
 73 173.5 73 173.5 98 182.25 c 0
 123 191 123 191 143.75 191 c 0
 158.25 191 158.25 191 172 187.875 c 0
 185.75 184.75 185.75 184.75 199.125 180.25 c 0
 212.5 175.75 212.5 175.75 225.75 170.625 c 0
 239 165.5 239 165.5 252.5 161.75 c 0
 260.5 159.5 260.5 159.5 268.5 158.125 c 0
 276.5 156.75 276.5 156.75 284.25 156.75 c 0
 292.5 156.75 292.5 156.75 302 158.75 c 0
 311.5 160.75 311.5 160.75 323.375 165.875 c 0
 335.25 171 335.25 171 349.75 179.875 c 0
 364.25 188.75 364.25 188.75 382.5 202.25 c 0
 382.5 153.5 l 0
EndSplineSet
EndChar

StartChar: inherent
Encoding: 103 -1 98
Width: 172
Flags: W
LayerCount: 2
Fore
SplineSet
183 735 m 2,0,1
 183 675 183 675 128 632 c 1,2,3
 102 610 102 610 70 599.5 c 128,-1,4
 38 589 38 589 -8 589 c 1,5,-1
 -8 695 l 1,6,7
 21 695 21 695 32 709 c 1,8,9
 48 721 48 721 48 735 c 2,10,-1
 48 806 l 1,11,-1
 183 806 l 1,12,-1
 183 735 l 2,0,1
EndSplineSet
EndChar

StartChar: makewide
Encoding: 104 -1 99
Width: 347
Flags: W
LayerCount: 2
Fore
SplineSet
459 138 m 2,0,1
 459 85 459 85 422 42.5 c 128,-1,2
 385 0 385 0 334 0 c 2,3,-1
 185 1 l 2,4,5
 159 1 159 1 136 7.5 c 128,-1,6
 113 14 113 14 86 28 c 128,-1,7
 59 42 59 42 41 59 c 128,-1,8
 23 76 23 76 -3 106 c 1,9,-1
 -3 260 l 1,10,-1
 16 264 l 1,11,12
 50 194 50 194 103.5 152.5 c 128,-1,13
 157 111 157 111 206 111 c 2,14,-1
 299 111 l 2,15,16
 310 111 310 111 314 122 c 1,17,18
 323 138 323 138 323 153 c 2,19,-1
 323 491 l 2,20,21
 323 520 323 520 301 545 c 1,22,23
 280 564 280 564 247 564 c 2,24,-1
 138 564 l 1,25,-1
 138 677 l 1,26,-1
 385 677 l 1,27,-1
 413 582 l 1,28,29
 459 542 459 542 459 496 c 2,30,-1
 459 138 l 2,0,1
EndSplineSet
EndChar

StartChar: shortrr
Encoding: 105 -1 100
Width: 821
Flags: W
LayerCount: 2
Fore
SplineSet
842 569 m 1,0,-1
 352 569 l 2,1,2
 333 569 333 569 322.5 561.5 c 128,-1,3
 312 554 312 554 312 542 c 2,4,-1
 311 464 l 1,5,6
 313 445 313 445 329.5 432.5 c 128,-1,7
 346 420 346 420 367 420 c 2,8,-1
 555 420 l 1,9,-1
 555 307 l 1,10,-1
 367 307 l 2,11,12
 342 307 342 307 327 296 c 128,-1,13
 312 285 312 285 312 266 c 2,14,-1
 311 168 l 1,15,16
 313 146 313 146 324 132.5 c 128,-1,17
 335 119 335 119 344 118 c 1,18,-1
 440 118 l 1,19,-1
 440 5 l 1,20,-1
 299 5 l 2,21,22
 250 5 250 5 212.5 39 c 128,-1,23
 175 73 175 73 175 120 c 2,24,-1
 175 274 l 2,25,26
 175 311 175 311 203 341 c 0,27,28
 210 348 210 348 222.5 355 c 128,-1,29
 235 362 235 362 244 367 c 1,30,31
 233 371 233 371 228 375 c 0,32,33
 210 387 210 387 203 391 c 1,34,35
 175 421 175 421 175 456 c 2,36,-1
 175 575 l 2,37,38
 175 626 175 626 215 652 c 1,39,40
 249 681 249 681 307 681 c 2,41,-1
 839 681 l 1,42,-1
 842 569 l 1,0,-1
EndSplineSet
EndChar

StartChar: anusvara
Encoding: 107 3202 101
Width: 786
Flags: W
LayerCount: 2
Fore
SplineSet
798 156 m 2,0,1
 798 94 798 94 757 47.5 c 128,-1,2
 716 1 716 1 658 1 c 2,3,-1
 344 1 l 2,4,5
 276 1 276 1 227 52 c 1,6,7
 177 98 177 98 177 169 c 2,8,-1
 177 535 l 2,9,10
 177 598 177 598 227 640 c 1,11,12
 249 661 249 661 278 671.5 c 128,-1,13
 307 682 307 682 343 682 c 2,14,-1
 629 682 l 2,15,16
 699 682 699 682 748.5 636 c 128,-1,17
 798 590 798 590 798 523 c 2,18,-1
 798 156 l 2,0,1
663 178 m 1,19,-1
 663 515 l 2,20,21
 663 537 663 537 648 555 c 1,22,23
 633 569 633 569 611 569 c 2,24,-1
 382 569 l 2,25,26
 353 569 353 569 331 555 c 1,27,28
 313 541 313 541 313 523 c 2,29,-1
 313 178 l 2,30,31
 313 155 313 155 336 135 c 128,-1,32
 359 115 359 115 388 115 c 2,33,-1
 612 115 l 2,34,35
 633 115 633 115 647 133 c 1,36,37
 665 152 665 152 663 178 c 1,19,-1
EndSplineSet
EndChar

StartChar: u0C83
Encoding: 108 3203 102
Width: 508
Flags: W
LayerCount: 2
Fore
SplineSet
547 461 m 2,0,1
 547 418 547 418 514 389 c 1,2,3
 485 359 485 359 438 359 c 2,4,-1
 279 359 l 2,5,6
 226 359 226 359 193 392 c 1,7,8
 157 424 157 424 157 470 c 2,9,-1
 157 575 l 2,10,11
 157 622 157 622 194 652 c 128,-1,12
 231 682 231 682 280 682 c 2,13,-1
 424 682 l 2,14,15
 460 682 460 682 485 667 c 1,16,17
 499 662 499 662 509.5 651.5 c 128,-1,18
 520 641 520 641 534.5 621 c 128,-1,19
 549 601 549 601 549 569 c 2,20,-1
 547 461 l 2,0,1
549 117 m 1,21,22
 549 70 549 70 519 36 c 128,-1,23
 489 2 489 2 447 2 c 2,24,-1
 279 3 l 2,25,26
 232 3 232 3 194.5 35 c 128,-1,27
 157 67 157 67 157 113 c 2,28,-1
 157 218 l 2,29,30
 157 265 157 265 194.5 295.5 c 128,-1,31
 232 326 232 326 279 326 c 2,32,-1
 423 326 l 2,33,34
 477 326 477 326 510 291 c 1,35,36
 547 255 547 255 547 205 c 1,37,-1
 549 117 l 1,21,22
412 489 m 1,38,-1
 412 549 l 2,39,40
 412 556 412 556 409.5 560 c 128,-1,41
 407 564 407 564 404.5 566.5 c 128,-1,42
 402 569 402 569 390 569 c 2,43,-1
 325 569 l 2,44,45
 310 569 310 569 301 563 c 128,-1,46
 292 557 292 557 292 549 c 2,47,-1
 291 498 l 1,48,49
 295 486 295 486 300 481 c 1,50,51
 311 474 311 474 319 474 c 2,52,-1
 390 474 l 1,53,54
 398 476 398 476 405 478.5 c 128,-1,55
 412 481 412 481 412.5 483.5 c 128,-1,56
 413 486 413 486 412 489 c 1,38,-1
413 131 m 1,57,-1
 413 192 l 2,58,59
 413 203 413 203 409 207 c 2,60,-1
 404 211 l 1,61,-1
 319 211 l 2,62,63
 307 211 307 211 302.5 208.5 c 128,-1,64
 298 206 298 206 295.5 202.5 c 128,-1,65
 293 199 293 199 293 198 c 2,66,-1
 292 141 l 1,67,-1
 300 122 l 2,68,69
 302 117 302 117 304.5 116.5 c 128,-1,70
 307 116 307 116 309 116 c 2,71,-1
 395 116 l 2,72,73
 402 116 402 116 409 120 c 1,74,-1
 413 131 l 1,57,-1
EndSplineSet
EndChar

StartChar: avowel
Encoding: 109 3205 103
Width: 1021
Flags: W
LayerCount: 2
Fore
SplineSet
1065 144 m 2,0,1
 1065 84 1065 84 1018 44 c 1,2,3
 978 1 978 1 911 1 c 2,4,-1
 357 2 l 2,5,6
 286 2 286 2 236.5 42.5 c 128,-1,7
 187 83 187 83 187 144 c 2,8,-1
 187 541 l 2,9,10
 187 604 187 604 231 643 c 128,-1,11
 275 682 275 682 338 682 c 2,12,-1
 535 682 l 1,13,-1
 535 450 l 1,14,-1
 401 450 l 1,15,-1
 401 569 l 1,16,-1
 366 569 l 2,17,18
 347 569 347 569 336 553 c 0,19,20
 321 531 321 531 321 502 c 2,21,-1
 321 179 l 2,22,23
 321 158 321 158 342 135 c 1,24,25
 370 116 370 116 396 116 c 2,26,-1
 860 116 l 2,27,28
 879 116 879 116 895 127 c 0,29,30
 902 132 902 132 920 158 c 1,31,32
 929 176 929 176 929 198 c 2,33,-1
 929 528 l 2,34,35
 929 543 929 543 915 559 c 1,36,37
 904 568 904 568 882 568 c 2,38,-1
 850 568 l 1,39,-1
 850 508 l 2,40,41
 850 459 850 459 921 412 c 1,42,-1
 921 305 l 1,43,-1
 469 305 l 1,44,-1
 469 418 l 1,45,-1
 757 418 l 1,46,47
 714 465 714 465 714 500 c 2,48,-1
 714 681 l 1,49,-1
 894 681 l 2,50,51
 940 681 940 681 979.5 663 c 128,-1,52
 1019 645 1019 645 1040 616 c 1,53,54
 1063 587 1063 587 1063 548 c 2,55,-1
 1065 144 l 2,0,1
EndSplineSet
EndChar

StartChar: aavowel
Encoding: 110 3206 104
Width: 1093
Flags: W
LayerCount: 2
Fore
SplineSet
1139 485 m 1,0,1
 1139 425 1139 425 1099 386 c 1,2,3
 1057 342 1057 342 1000 342 c 2,4,-1
 981 342 l 1,5,6
 1011 307 1011 307 1011 288 c 2,7,-1
 1011 112 l 2,8,9
 1011 65 1011 65 969 32 c 1,10,11
 947 16 947 16 922.5 8.5 c 128,-1,12
 898 1 898 1 862 1 c 2,13,-1
 332 5 l 2,14,15
 272 5 272 5 230 47 c 1,16,17
 188 84 188 84 188 147 c 2,18,-1
 188 544 l 2,19,20
 188 604 188 604 239 646 c 1,21,22
 295 685 295 685 369 685 c 2,23,-1
 522 685 l 1,24,-1
 522 453 l 1,25,-1
 388 453 l 1,26,-1
 388 572 l 1,27,-1
 374 572 l 2,28,29
 351 572 351 572 337 560 c 1,30,31
 323 545 323 545 323 527 c 2,32,-1
 323 182 l 2,33,34
 323 157 323 157 338 136 c 1,35,36
 360 117 360 117 382 117 c 2,37,-1
 813 117 l 2,38,39
 836 117 836 117 852 136 c 1,40,41
 861 145 861 145 863 150 c 1,42,43
 871 162 871 162 871 180 c 2,44,-1
 871 291 l 2,45,46
 871 312 871 312 841 345 c 1,47,-1
 542 345 l 1,48,-1
 542 458 l 1,49,-1
 789 458 l 1,50,51
 771 486 771 486 771 498 c 2,52,-1
 771 577 l 2,53,54
 771 623 771 623 811.5 651 c 128,-1,55
 852 679 852 679 909 679 c 2,56,-1
 1001 679 l 2,57,58
 1030 679 1030 679 1052 671.5 c 128,-1,59
 1074 664 1074 664 1093 646 c 0,60,61
 1133 610 1133 610 1133 560 c 1,62,-1
 1139 485 l 1,0,1
996 493 m 1,63,-1
 996 539 l 2,64,65
 996 568 996 568 980 568 c 2,66,-1
 937 568 l 2,67,68
 921 568 921 568 913.5 559 c 128,-1,69
 906 550 906 550 906 539 c 2,70,-1
 906 507 l 2,71,72
 906 481 906 481 928 458 c 1,73,-1
 971 458 l 2,74,75
 982 458 982 458 989.5 469 c 128,-1,76
 997 480 997 480 996 493 c 1,63,-1
EndSplineSet
EndChar

StartChar: ivowel
Encoding: 111 3207 105
Width: 824
Flags: W
LayerCount: 2
Fore
SplineSet
863 0 m 1,0,-1
 781 0 l 2,1,2
 727 0 727 0 683 33 c 1,3,4
 643 69 643 69 643 115 c 2,5,-1
 643 171 l 1,6,-1
 538 171 l 2,7,8
 485 171 485 171 452 200 c 1,9,10
 434 212 434 212 424.5 230 c 128,-1,11
 415 248 415 248 415 267 c 2,12,-1
 415 338 l 2,13,14
 415 354 415 354 423 368 c 128,-1,15
 431 382 431 382 447 394 c 1,16,17
 483 413 483 413 529 413 c 2,18,-1
 652 413 l 2,19,20
 684 413 684 413 710 395 c 1,21,-1
 728 381 l 1,22,-1
 728 530 l 2,23,24
 728 544 728 544 715 553.5 c 128,-1,25
 702 563 702 563 673 563 c 2,26,-1
 595 563 l 2,27,28
 567 563 567 563 549 551 c 1,29,30
 535 539 535 539 535 523 c 2,31,-1
 535 446 l 1,32,-1
 401 446 l 1,33,-1
 401 518 l 2,34,35
 401 536 401 536 384.5 550 c 128,-1,36
 368 564 368 564 339 564 c 2,37,-1
 244 564 l 2,38,39
 221 564 221 564 207 553 c 128,-1,40
 193 542 193 542 193 523 c 2,41,-1
 192 459 l 1,42,43
 194 436 194 436 205 429 c 1,44,45
 216 415 216 415 230 415 c 2,46,-1
 265 415 l 1,47,-1
 265 302 l 1,48,-1
 202 303 l 2,49,50
 141 303 141 303 101 343 c 1,51,52
 58 382 58 382 58 438 c 2,53,-1
 58 537 l 2,54,55
 58 577 58 577 80 609 c 1,56,57
 101 644 101 644 138 659 c 1,58,59
 173 677 173 677 216 677 c 2,60,-1
 353 677 l 2,61,62
 402 677 402 677 431 658 c 1,63,64
 452 649 452 649 468 626 c 1,65,66
 475 638 475 638 482.5 645.5 c 128,-1,67
 490 653 490 653 499 657 c 1,68,69
 527 678 527 678 566 678 c 2,70,-1
 696 678 l 2,71,72
 733 678 733 678 761 669 c 128,-1,73
 789 660 789 660 812 638 c 1,74,75
 862 598 862 598 862 533 c 2,76,-1
 862 367 l 2,77,78
 862 278 862 278 776 200 c 1,79,-1
 776 137 l 2,80,81
 776 126 776 126 781 121 c 1,82,83
 793 113 793 113 798 113 c 2,84,-1
 861 113 l 1,85,-1
 863 0 l 1,0,-1
639 285 m 1,86,87
 639 304 639 304 621 304 c 2,88,-1
 556 304 l 2,89,90
 549 304 549 304 548 303 c 2,91,-1
 547 296 l 1,92,-1
 548 291 l 1,93,-1
 556 286 l 1,94,-1
 639 285 l 1,86,87
EndSplineSet
EndChar

StartChar: iivowel
Encoding: 112 3208 106
Width: 1281
Flags: W
LayerCount: 2
Fore
SplineSet
1324 404 m 2,0,1
 1324 362 1324 362 1291 320 c 1,2,3
 1262 287 1262 287 1216 268 c 1,4,5
 1295 182 1295 182 1295 154 c 2,6,-1
 1295 87 l 2,7,8
 1295 58 1295 58 1273 29 c 1,9,10
 1250 3 1250 3 1218 3 c 2,11,-1
 973 3 l 1,12,-1
 973 116 l 1,13,-1
 1134 116 l 2,14,15
 1142 116 1142 116 1151 126 c 128,-1,16
 1160 136 1160 136 1160 140 c 2,17,-1
 1160 145 l 2,18,19
 1160 166 1160 166 1134 185 c 1,20,-1
 1067 253 l 1,21,-1
 852 253 l 1,22,-1
 852 139 l 2,23,24
 852 85 852 85 809 43 c 128,-1,25
 766 1 766 1 705 1 c 2,26,-1
 346 2 l 2,27,28
 295 2 295 2 256 37.5 c 128,-1,29
 217 73 217 73 217 126 c 2,30,-1
 217 253 l 1,31,-1
 104 253 l 1,32,-1
 104 366 l 1,33,-1
 217 366 l 1,34,-1
 217 443 l 2,35,36
 217 508 217 508 282 570 c 1,37,-1
 203 570 l 1,38,-1
 203 683 l 1,39,-1
 729 683 l 2,40,41
 745 683 745 683 750 692 c 1,42,43
 759 701 759 701 759 712 c 2,44,-1
 759 775 l 1,45,-1
 896 775 l 1,46,-1
 896 712 l 2,47,48
 896 658 896 658 856 618 c 1,49,50
 828 583 828 583 781 571 c 1,51,52
 810 550 810 550 828 528 c 0,53,54
 853 496 853 496 853 470 c 2,55,-1
 853 365 l 1,56,-1
 967 365 l 1,57,58
 945 395 945 395 945 435 c 2,59,-1
 945 507 l 2,60,61
 945 557 945 557 981 592.5 c 128,-1,62
 1017 628 1017 628 1070 628 c 2,63,-1
 1190 628 l 2,64,65
 1247 628 1247 628 1283 591 c 1,66,67
 1325 554 1325 554 1325 500 c 2,68,-1
 1324 404 l 2,0,1
1188 416 m 2,69,-1
 1188 488 l 2,70,71
 1188 495 1188 495 1184 501 c 128,-1,72
 1180 507 1180 507 1179 508 c 0,73,74
 1174 515 1174 515 1162 515 c 2,75,-1
 1106 515 l 2,76,77
 1092 515 1092 515 1090 510 c 0,78,79
 1083 499 1083 499 1083 494 c 2,80,-1
 1082 418 l 1,81,82
 1083 404 1083 404 1092 392 c 1,83,-1
 1139 364 l 1,84,85
 1155 368 1155 368 1169 380 c 1,86,87
 1188 399 1188 399 1188 416 c 2,69,-1
715 367 m 1,88,-1
 715 477 l 2,89,90
 715 537 715 537 650 573 c 1,91,-1
 432 573 l 1,92,93
 350 517 350 517 350 449 c 2,94,-1
 350 367 l 1,95,-1
 715 367 l 1,88,-1
716 180 m 1,96,-1
 716 254 l 1,97,-1
 350 254 l 1,98,-1
 350 166 l 2,99,100
 350 148 350 148 365 131.5 c 128,-1,101
 380 115 380 115 395 115 c 2,102,-1
 652 115 l 2,103,104
 663 115 663 115 672.5 119.5 c 128,-1,105
 682 124 682 124 693 132 c 1,106,107
 714 155 714 155 716 180 c 1,96,-1
EndSplineSet
EndChar

StartChar: uvowel
Encoding: 113 3209 107
Width: 1535
Flags: W
LayerCount: 2
Fore
SplineSet
1580 152 m 2,0,1
 1580 112 1580 112 1561 76 c 1,2,3
 1550 58 1550 58 1537 45 c 128,-1,4
 1524 32 1524 32 1506 23 c 0,5,6
 1467 2 1467 2 1430 2 c 2,7,-1
 1234 2 l 2,8,9
 1212 2 1212 2 1190.5 7.5 c 128,-1,10
 1169 13 1169 13 1150.5 22 c 128,-1,11
 1132 31 1132 31 1115.5 45.5 c 128,-1,12
 1099 60 1099 60 1087 76 c 1,13,14
 1064 115 1064 115 1064 152 c 2,15,-1
 1064 535 l 2,16,17
 1064 543 1064 543 1055 559 c 1,18,19
 1041 567 1041 567 1023 567 c 2,20,-1
 836 567 l 2,21,22
 817 567 817 567 809 558 c 128,-1,23
 801 549 801 549 801 534 c 2,24,-1
 801 143 l 2,25,26
 801 122 801 122 796.5 107.5 c 128,-1,27
 792 93 792 93 778 71 c 1,28,29
 757 41 757 41 716 21 c 128,-1,30
 675 1 675 1 633 1 c 2,31,-1
 374 2 l 2,32,33
 300 2 300 2 247 48 c 0,34,35
 221 70 221 70 208.5 100 c 128,-1,36
 196 130 196 130 196 163 c 2,37,-1
 196 527 l 2,38,39
 196 570 196 570 212 606 c 1,40,41
 234 645 234 645 272.5 663 c 128,-1,42
 311 681 311 681 346 681 c 2,43,-1
 572 681 l 1,44,-1
 572 481 l 2,45,46
 572 428 572 428 532.5 385.5 c 128,-1,47
 493 343 493 343 439 343 c 2,48,-1
 351 343 l 1,49,-1
 351 456 l 1,50,-1
 409 456 l 2,51,52
 418 456 418 456 427 464 c 128,-1,53
 436 472 436 472 436 480 c 2,54,-1
 436 566 l 1,55,-1
 373 566 l 2,56,57
 351 566 351 566 342 555 c 0,58,59
 328 539 328 539 328 525 c 2,60,-1
 328 161 l 2,61,62
 328 146 328 146 344 129 c 128,-1,63
 360 112 360 112 381 112 c 2,64,-1
 624 112 l 2,65,66
 643 112 643 112 651 124 c 1,67,68
 665 140 665 140 665 154 c 2,69,-1
 665 533 l 2,70,71
 665 600 665 600 705 636 c 1,72,73
 747 679 747 679 808 679 c 2,74,-1
 1037 679 l 2,75,76
 1083 679 1083 679 1120 661 c 128,-1,77
 1157 643 1157 643 1178 611 c 0,78,79
 1190 592 1190 592 1194.5 577 c 128,-1,80
 1199 562 1199 562 1199 540 c 2,81,-1
 1199 162 l 2,82,83
 1199 141 1199 141 1211 127 c 1,84,85
 1229 112 1229 112 1244 112 c 2,86,-1
 1407 112 l 2,87,88
 1426 112 1426 112 1434 124 c 1,89,90
 1448 138 1448 138 1448 154 c 2,91,-1
 1448 525 l 2,92,93
 1448 536 1448 536 1436.5 545 c 128,-1,94
 1425 554 1425 554 1407 554 c 2,95,-1
 1377 554 l 1,96,-1
 1377 680 l 1,97,-1
 1449 680 l 2,98,99
 1507 680 1507 680 1543 643 c 1,100,101
 1582 606 1582 606 1582 553 c 2,102,-1
 1580 152 l 2,0,1
EndSplineSet
EndChar

StartChar: uuvowel
Encoding: 114 3210 108
Width: 1840
Flags: W
LayerCount: 2
Fore
SplineSet
1882 144 m 2,0,1
 1882 83 1882 83 1840 46 c 1,2,3
 1798 2 1798 2 1743 2 c 2,4,-1
 1685 2 l 2,5,6
 1634 2 1634 2 1588 41 c 0,7,8
 1569 57 1569 57 1559.5 81.5 c 128,-1,9
 1550 106 1550 106 1550 131 c 2,10,-1
 1550 233 l 1,11,-1
 1685 233 l 1,12,-1
 1685 131 l 2,13,14
 1685 123 1685 123 1687 120.5 c 128,-1,15
 1689 118 1689 118 1693 117.5 c 128,-1,16
 1697 117 1697 117 1701 116 c 1,17,-1
 1736 116 l 1,18,19
 1743 120 1743 120 1744 122 c 2,20,-1
 1748 140 l 1,21,-1
 1748 516 l 2,22,23
 1748 538 1748 538 1734 554 c 128,-1,24
 1720 570 1720 570 1701 570 c 2,25,-1
 1559 570 l 2,26,27
 1531 570 1531 570 1515 554 c 128,-1,28
 1499 538 1499 538 1499 516 c 2,29,-1
 1499 165 l 2,30,31
 1499 139 1499 139 1491 116 c 0,32,33
 1490 112 1490 112 1478 86 c 1,34,35
 1455 46 1455 46 1425 28 c 0,36,37
 1386 5 1386 5 1347 5 c 2,38,-1
 1139 5 l 2,39,40
 1078 5 1078 5 1036 49.5 c 128,-1,41
 994 94 994 94 994 161 c 2,42,-1
 994 532 l 2,43,44
 994 551 994 551 981 562 c 128,-1,45
 968 573 968 573 947 573 c 2,46,-1
 803 573 l 2,47,48
 782 573 782 573 769.5 559 c 128,-1,49
 757 545 757 545 757 527 c 2,50,-1
 757 173 l 2,51,52
 757 104 757 104 704 57 c 1,53,54
 653 6 653 6 581 6 c 2,55,-1
 390 7 l 2,56,57
 312 7 312 7 251 53 c 1,58,59
 223 76 223 76 210 104.5 c 128,-1,60
 197 133 197 133 197 168 c 2,61,-1
 197 540 l 2,62,63
 197 605 197 605 246 644 c 1,64,65
 271 666 271 666 301 675.5 c 128,-1,66
 331 685 331 685 367 685 c 2,67,-1
 574 685 l 1,68,-1
 574 504 l 2,69,70
 574 447 574 447 528 405 c 1,71,72
 486 362 486 362 425 362 c 2,73,-1
 367 362 l 1,74,-1
 367 475 l 1,75,-1
 411 475 l 2,76,77
 418 475 418 475 422.5 477.5 c 128,-1,78
 427 480 427 480 428 481 c 0,79,80
 437 489 437 489 437 497 c 2,81,-1
 437 571 l 1,82,-1
 381 571 l 2,83,84
 358 571 358 571 343.5 558.5 c 128,-1,85
 329 546 329 546 329 530 c 2,86,-1
 329 172 l 2,87,88
 329 150 329 150 348.5 133.5 c 128,-1,89
 368 117 368 117 396 117 c 2,90,-1
 576 117 l 2,91,92
 591 117 591 117 609 132 c 1,93,94
 623 147 623 147 623 172 c 2,95,-1
 623 530 l 2,96,97
 623 576 623 576 648 609 c 1,98,99
 673 648 673 648 712.5 666 c 128,-1,100
 752 684 752 684 795 684 c 2,101,-1
 953 684 l 2,102,103
 999 684 999 684 1041 665 c 0,104,105
 1063 656 1063 656 1077.5 643 c 128,-1,106
 1092 630 1092 630 1104.5 610.5 c 128,-1,107
 1117 591 1117 591 1124 572.5 c 128,-1,108
 1131 554 1131 554 1131 532 c 2,109,-1
 1131 161 l 2,110,111
 1131 143 1131 143 1142.5 130.5 c 128,-1,112
 1154 118 1154 118 1175 118 c 2,113,-1
 1309 118 l 2,114,115
 1330 118 1330 118 1348 133 c 1,116,117
 1356 142 1356 142 1360.5 151.5 c 128,-1,118
 1365 161 1365 161 1365 172 c 2,119,-1
 1365 517 l 2,120,121
 1365 561 1365 561 1386 601 c 1,122,123
 1411 641 1411 641 1450 662 c 128,-1,124
 1489 683 1489 683 1536 683 c 2,125,-1
 1702 683 l 2,126,127
 1751 683 1751 683 1793 662 c 0,128,129
 1812 653 1812 653 1828.5 638 c 128,-1,130
 1845 623 1845 623 1857 602 c 0,131,132
 1883 560 1883 560 1883 517 c 2,133,-1
 1882 144 l 2,0,1
EndSplineSet
EndChar

StartChar: rvocalicvowel.part
Encoding: 116 -1 110
Width: 1051
Flags: W
LayerCount: 2
Fore
SplineSet
1090 152 m 2,0,1
 1090 122 1090 122 1082.5 97 c 128,-1,2
 1075 72 1075 72 1059 49 c 1,3,4
 1020 2 1020 2 974 2 c 2,5,-1
 760 2 l 2,6,7
 717 2 717 2 673 24 c 1,8,9
 641 38 641 38 619 68 c 1,10,11
 603 42 603 42 582 26 c 0,12,13
 552 3 552 3 526 3 c 2,14,-1
 281 4 l 2,15,16
 227 4 227 4 195 34 c 1,17,18
 156 68 156 68 156 112 c 2,19,-1
 156 299 l 1,20,-1
 339 299 l 2,21,22
 372 299 372 299 393 293 c 128,-1,23
 414 287 414 287 433 271 c 1,24,25
 477 239 477 239 477 193 c 2,26,-1
 477 136 l 1,27,-1
 342 136 l 1,28,-1
 342 180 l 2,29,30
 342 188 342 188 326 188 c 2,31,-1
 293 188 l 1,32,-1
 292 146 l 1,33,34
 293 134 293 134 301 125 c 1,35,36
 313 116 313 116 325 116 c 2,37,-1
 480 116 l 2,38,39
 494 116 494 116 505 120 c 128,-1,40
 516 124 516 124 524 130 c 0,41,42
 542 141 542 141 542 157 c 2,43,-1
 542 544 l 2,44,45
 542 556 542 556 527.5 563.5 c 128,-1,46
 513 571 513 571 490 571 c 2,47,-1
 338 571 l 2,48,49
 317 571 317 571 302 563 c 1,50,51
 293 562 293 562 293 551 c 2,52,-1
 293 487 l 1,53,-1
 326 487 l 2,54,55
 331 487 331 487 336.5 489.5 c 128,-1,56
 342 492 342 492 346 494 c 1,57,58
 355 503 355 503 355 514 c 2,59,-1
 355 551 l 1,60,-1
 490 551 l 1,61,-1
 490 508 l 2,62,63
 490 454 490 454 453 412 c 1,64,65
 413 370 413 370 360 370 c 2,66,-1
 155 370 l 1,67,-1
 155 567 l 2,68,69
 155 614 155 614 197 651 c 1,70,71
 237 681 237 681 294 681 c 2,72,-1
 525 681 l 2,73,74
 588 681 588 681 632 644 c 1,75,76
 678 602 678 602 678 548 c 2,77,-1
 678 183 l 1,78,79
 693 153 693 153 721.5 132.5 c 128,-1,80
 750 112 750 112 773 112 c 2,81,-1
 908 112 l 2,82,83
 926 112 926 112 940.5 128 c 128,-1,84
 955 144 955 144 955 169 c 2,85,-1
 955 502 l 2,86,87
 955 534 955 534 935.5 552 c 128,-1,88
 916 570 916 570 888 570 c 2,89,-1
 726 570 l 1,90,-1
 726 683 l 1,91,-1
 902 683 l 2,92,93
 918 683 918 683 937 699 c 1,94,95
 953 718 953 718 953 739 c 2,96,-1
 953 802 l 1,97,-1
 1088 802 l 1,98,-1
 1088 725 l 2,99,100
 1088 686 1088 686 1066 658 c 1,101,102
 1051 632 1051 632 1029 620 c 1,103,104
 1043 612 1043 612 1050.5 604.5 c 128,-1,105
 1058 597 1058 597 1067 582 c 1,106,107
 1088 553 1088 553 1088 516 c 2,108,-1
 1090 152 l 2,0,1
EndSplineSet
EndChar

StartChar: lvocalicvowel.part
Encoding: 118 -1 112
Width: 824
Flags: W
LayerCount: 2
Fore
SplineSet
1012 217 m 1,0,-1
 881 58 l 1,1,2
 856 18 856 18 816 10 c 0,3,4
 812 9 812 9 800 9 c 0,5,6
 771 9 771 9 733.5 20.5 c 128,-1,7
 696 32 696 32 670 54 c 1,8,9
 640 81 640 81 628 99 c 0,10,11
 612 124 612 124 612 154 c 0,12,13
 612 162 612 162 669 253 c 0,14,15
 687 282 687 282 727 342 c 1,16,17
 735 363 735 363 737.5 387.5 c 128,-1,18
 740 412 740 412 740 441 c 0,19,20
 740 471 740 471 737.5 493 c 128,-1,21
 735 515 735 515 733 531 c 1,22,23
 733 545 733 545 720 554.5 c 128,-1,24
 707 564 707 564 678 564 c 2,25,-1
 600 564 l 2,26,27
 572 564 572 564 554 552 c 1,28,29
 540 540 540 540 540 524 c 2,30,-1
 540 447 l 1,31,-1
 406 447 l 1,32,-1
 406 519 l 2,33,34
 406 537 406 537 389.5 551 c 128,-1,35
 373 565 373 565 344 565 c 2,36,-1
 249 565 l 2,37,38
 226 565 226 565 212 554 c 128,-1,39
 198 543 198 543 198 524 c 2,40,-1
 197 460 l 1,41,42
 199 437 199 437 210 430 c 1,43,44
 221 416 221 416 235 416 c 2,45,-1
 270 416 l 1,46,-1
 270 303 l 1,47,-1
 207 304 l 2,48,49
 146 304 146 304 106 344 c 1,50,51
 63 383 63 383 63 439 c 2,52,-1
 63 538 l 2,53,54
 63 578 63 578 85 610 c 1,55,56
 106 645 106 645 143 660 c 1,57,58
 178 678 178 678 221 678 c 2,59,-1
 358 678 l 2,60,61
 407 678 407 678 436 659 c 1,62,63
 457 650 457 650 473 627 c 1,64,65
 480 639 480 639 487.5 646.5 c 128,-1,66
 495 654 495 654 504 658 c 1,67,68
 532 679 532 679 571 679 c 2,69,-1
 701 679 l 2,70,71
 738 679 738 679 766 670 c 128,-1,72
 794 661 794 661 817 639 c 1,73,74
 867 599 867 599 867 534 c 2,75,-1
 867 368 l 2,76,77
 867 339 867 339 851 306 c 0,78,79
 847 299 847 299 779 200 c 1,80,81
 768 186 768 186 764 181 c 0,82,83
 748 159 748 159 748 155 c 0,84,85
 748 137 748 137 757 133 c 128,-1,86
 766 129 766 129 774 129 c 0,87,88
 792 129 792 129 801 141 c 2,89,-1
 911 283 l 1,90,-1
 1012 217 l 1,0,-1
EndSplineSet
EndChar

StartChar: evowel
Encoding: 119 3214 113
Width: 996
Flags: W
LayerCount: 2
Fore
SplineSet
1038 152 m 2,0,1
 1038 89 1038 89 997 44.5 c 128,-1,2
 956 0 956 0 899 0 c 2,3,-1
 681 1 l 2,4,5
 641 1 641 1 609 22 c 1,6,7
 591 31 591 31 582 47 c 1,8,9
 570 29 570 29 556 20 c 0,10,11
 527 -1 527 -1 495 -1 c 2,12,-1
 329 0 l 2,13,14
 260 0 260 0 211 40.5 c 128,-1,15
 162 81 162 81 162 142 c 2,16,-1
 162 416 l 1,17,-1
 343 416 l 2,18,19
 376 416 376 416 404 394 c 0,20,21
 418 383 418 383 431 368.5 c 128,-1,22
 444 354 444 354 452 336 c 1,23,24
 474 294 474 294 481 243 c 1,25,-1
 357 210 l 1,26,27
 353 235 353 235 345.5 251.5 c 128,-1,28
 338 268 338 268 327 283 c 0,29,30
 322 290 322 290 314.5 294.5 c 128,-1,31
 307 299 307 299 298 301 c 1,32,-1
 297 169 l 1,33,34
 298 147 298 147 314 129 c 1,35,36
 333 113 333 113 356 113 c 2,37,-1
 465 113 l 2,38,39
 487 113 487 113 499 128 c 0,40,41
 517 149 517 149 517 168 c 2,42,-1
 517 245 l 1,43,-1
 654 245 l 1,44,-1
 654 177 l 2,45,46
 654 152 654 152 675.5 132.5 c 128,-1,47
 697 113 697 113 722 113 c 2,48,-1
 842 113 l 2,49,50
 868 113 868 113 885 133 c 128,-1,51
 902 153 902 153 902 176 c 2,52,-1
 902 493 l 2,53,54
 902 526 902 526 880 546 c 128,-1,55
 858 566 858 566 822 566 c 2,56,-1
 717 566 l 1,57,-1
 717 679 l 1,58,-1
 836 679 l 2,59,60
 892 679 892 679 938 657 c 128,-1,61
 984 635 984 635 1011 593 c 128,-1,62
 1038 551 1038 551 1038 507 c 2,63,-1
 1038 152 l 2,0,1
EndSplineSet
EndChar

StartChar: eevowel
Encoding: 120 3215 114
Width: 993
Flags: W
LayerCount: 2
Fore
SplineSet
1036 166 m 2,0,1
 1036 124 1036 124 1008 81 c 1,2,3
 986 44 986 44 940 21 c 1,4,5
 918 12 918 12 892.5 6 c 128,-1,6
 867 0 867 0 837 0 c 2,7,-1
 683 4 l 2,8,9
 647 4 647 4 615 25 c 1,10,11
 594 41 594 41 583 64 c 1,12,13
 541 2 541 2 469 2 c 2,14,-1
 341 2 l 2,15,16
 266 2 266 2 213 47.5 c 128,-1,17
 160 93 160 93 160 158 c 2,18,-1
 160 419 l 1,19,-1
 342 419 l 2,20,21
 375 419 375 419 401.5 398 c 128,-1,22
 428 377 428 377 451 338 c 1,23,24
 469 305 469 305 481 245 c 1,25,-1
 353 213 l 1,26,27
 344 263 344 263 323 285 c 0,28,29
 309 300 309 300 294 304 c 1,30,-1
 293 172 l 1,31,32
 297 149 297 149 312 133 c 1,33,34
 333 115 333 115 355 115 c 2,35,-1
 462 115 l 2,36,37
 484 115 484 115 500 133.5 c 128,-1,38
 516 152 516 152 516 171 c 2,39,-1
 516 248 l 1,40,-1
 653 248 l 1,41,-1
 653 180 l 2,42,43
 653 158 653 158 669 135 c 1,44,45
 691 116 691 116 716 116 c 2,46,-1
 840 116 l 2,47,48
 863 116 863 116 879 135 c 1,49,50
 888 144 888 144 890 149 c 1,51,52
 898 161 898 161 898 179 c 2,53,-1
 898 496 l 2,54,55
 898 528 898 528 875 549 c 128,-1,56
 852 570 852 570 815 570 c 2,57,-1
 719 570 l 1,58,-1
 719 549 l 2,59,60
 719 506 719 506 677 480 c 1,61,62
 658 466 658 466 636.5 459 c 128,-1,63
 615 452 615 452 586 452 c 2,64,-1
 452 452 l 2,65,66
 391 452 391 452 345 489 c 1,67,68
 299 529 299 529 299 580 c 2,69,-1
 299 682 l 1,70,-1
 434 682 l 1,71,-1
 434 594 l 2,72,73
 434 585 434 585 443 573 c 1,74,75
 457 565 457 565 465 565 c 2,76,-1
 557 565 l 2,77,78
 564 565 564 565 575 576 c 1,79,80
 583 587 583 587 583 603 c 2,81,-1
 583 682 l 1,82,-1
 828 682 l 2,83,84
 886 682 886 682 932.5 660 c 128,-1,85
 979 638 979 638 1004 598 c 1,86,87
 1033 558 1033 558 1033 511 c 2,88,-1
 1036 166 l 2,0,1
EndSplineSet
EndChar

StartChar: aivowel
Encoding: 121 3216 115
Width: 1054
Flags: W
LayerCount: 2
Fore
SplineSet
1093 154 m 2,0,1
 1093 90 1093 90 1043 46 c 1,2,3
 993 -1 993 -1 915 -1 c 1,4,-1
 763 3 l 1,5,6
 717 3 717 3 682 24 c 128,-1,7
 647 45 647 45 628 71 c 1,8,9
 606 42 606 42 580 26 c 0,10,11
 545 3 545 3 509 3 c 2,12,-1
 329 4 l 2,13,14
 260 4 260 4 211 44.5 c 128,-1,15
 162 85 162 85 162 146 c 2,16,-1
 162 291 l 2,17,18
 162 358 162 358 211 401 c 1,19,20
 233 423 233 423 264.5 434 c 128,-1,21
 296 445 296 445 329 445 c 2,22,-1
 540 445 l 1,23,-1
 540 297 l 2,24,25
 540 268 540 268 527.5 242.5 c 128,-1,26
 515 217 515 217 490 192.5 c 128,-1,27
 465 168 465 168 437 156.5 c 128,-1,28
 409 145 409 145 366 145 c 1,29,-1
 331 255 l 1,30,31
 353 255 353 255 363.5 258.5 c 128,-1,32
 374 262 374 262 386 271 c 0,33,34
 404 285 404 285 404 300 c 2,35,-1
 404 329 l 1,36,-1
 365 329 l 2,37,38
 332 329 332 329 314.5 314.5 c 128,-1,39
 297 300 297 300 297 282 c 2,40,-1
 296 182 l 2,41,42
 296 157 296 157 314 135 c 128,-1,43
 332 113 332 113 357 113 c 2,44,-1
 480 113 l 2,45,46
 512 113 512 113 537 134.5 c 128,-1,47
 562 156 562 156 562 182 c 2,48,-1
 562 231 l 1,49,-1
 699 231 l 1,50,-1
 699 182 l 2,51,52
 699 157 699 157 720 134 c 1,53,54
 743 113 743 113 771 113 c 2,55,-1
 909 113 l 2,56,57
 927 113 927 113 944.5 134 c 128,-1,58
 962 155 962 155 962 183 c 2,59,-1
 962 514 l 2,60,61
 962 528 962 528 955 542 c 0,62,63
 954 544 954 544 944.5 555.5 c 128,-1,64
 935 567 935 567 910 567 c 2,65,-1
 787 567 l 2,66,67
 766 567 766 567 752 555 c 1,68,69
 741 543 741 543 741 522 c 2,70,-1
 741 476 l 1,71,-1
 606 476 l 1,72,-1
 606 526 l 2,73,74
 606 541 606 541 585 556 c 1,75,76
 564 567 564 567 529 567 c 2,77,-1
 352 567 l 2,78,79
 341 567 341 567 332 564.5 c 128,-1,80
 323 562 323 562 314 553 c 1,81,82
 295 538 295 538 280 501 c 1,83,-1
 175 565 l 1,84,85
 203 623 203 623 243.5 652 c 128,-1,86
 284 681 284 681 331 681 c 2,87,-1
 555 681 l 2,88,89
 606 681 606 681 634 660 c 1,90,91
 659 646 659 646 674 621 c 1,92,93
 682 633 682 633 691 642 c 128,-1,94
 700 651 700 651 714 659 c 1,95,96
 744 680 744 680 784 680 c 2,97,-1
 926 680 l 2,98,99
 972 680 972 680 1009 662 c 1,100,101
 1049 646 1049 646 1071 612 c 128,-1,102
 1093 578 1093 578 1093 541 c 2,103,-1
 1093 154 l 2,0,1
EndSplineSet
EndChar

StartChar: ovowel
Encoding: 122 3218 116
Width: 964
Flags: W
LayerCount: 2
Fore
SplineSet
1002 124 m 2,0,1
 1002 74 1002 74 969.5 37 c 128,-1,2
 937 0 937 0 890 0 c 2,3,-1
 671 0 l 2,4,5
 635 0 635 0 607 21 c 1,6,7
 591 30 591 30 580 46 c 1,8,9
 572 30 572 30 558 21 c 0,10,11
 529 0 529 0 501 0 c 2,12,-1
 300 0 l 2,13,14
 244 0 244 0 198 33.5 c 128,-1,15
 152 67 152 67 152 116 c 2,16,-1
 152 268 l 1,17,-1
 282 347 l 1,18,19
 314 368 314 368 343 386.5 c 128,-1,20
 372 405 372 405 386 417 c 0,21,22
 409 435 409 435 409 453 c 2,23,-1
 409 538 l 2,24,25
 409 547 409 547 401 558 c 1,26,27
 393 565 393 565 378 565 c 2,28,-1
 289 565 l 1,29,-1
 289 523 l 2,30,31
 289 515 289 515 298 504.5 c 128,-1,32
 307 494 307 494 321 494 c 2,33,-1
 346 494 l 1,34,-1
 346 381 l 1,35,-1
 286 381 l 2,36,37
 230 381 230 381 193 424 c 1,38,39
 153 463 153 463 153 523 c 2,40,-1
 153 678 l 1,41,-1
 407 678 l 2,42,43
 443 678 443 678 474.5 665.5 c 128,-1,44
 506 653 506 653 526 627.5 c 128,-1,45
 546 602 546 602 546 572 c 2,46,-1
 546 420 l 2,47,48
 546 394 546 394 516 365 c 0,49,50
 491 342 491 342 388 279 c 2,51,-1
 290 218 l 1,52,-1
 290 157 l 2,53,54
 290 142 290 142 302 127 c 1,55,56
 317 115 317 115 335 115 c 2,57,-1
 465 115 l 2,58,59
 479 115 479 115 495 129 c 1,60,61
 511 148 511 148 511 164 c 2,62,-1
 511 218 l 1,63,-1
 646 218 l 1,64,-1
 646 169 l 2,65,66
 646 148 646 148 661 130 c 1,67,68
 680 114 680 114 705 114 c 2,69,-1
 819 114 l 2,70,71
 833 114 833 114 849 128 c 1,72,73
 865 144 865 144 865 163 c 2,74,-1
 865 256 l 2,75,76
 865 274 865 274 854 282 c 128,-1,77
 843 290 843 290 827 290 c 2,78,-1
 780 290 l 1,79,-1
 780 402 l 1,80,-1
 889 402 l 2,81,82
 940 402 940 402 968 374 c 1,83,84
 1001 345 1001 345 1001 301 c 2,85,-1
 1002 124 l 2,0,1
EndSplineSet
EndChar

StartChar: oovowel
Encoding: 123 3219 117
Width: 964
Flags: W
LayerCount: 2
Fore
SplineSet
1002 140 m 2,0,1
 1002 103 1002 103 983 73 c 1,2,3
 967 40 967 40 939 21.5 c 128,-1,4
 911 3 911 3 878 3 c 2,5,-1
 671 3 l 2,6,7
 635 3 635 3 607 24 c 1,8,9
 586 36 586 36 577 54 c 1,10,11
 573 49 573 49 562 38 c 0,12,13
 557 33 557 33 546 24 c 1,14,15
 518 5 518 5 486 5 c 2,16,-1
 300 5 l 2,17,18
 244 5 244 5 198 38.5 c 128,-1,19
 152 72 152 72 152 122 c 2,20,-1
 152 275 l 1,21,-1
 282 354 l 1,22,23
 315 376 315 376 345.5 396 c 128,-1,24
 376 416 376 416 385 424 c 0,25,26
 408 442 408 442 408 461 c 2,27,-1
 408 533 l 2,28,29
 408 548 408 548 395 561 c 128,-1,30
 382 574 382 574 361 574 c 2,31,-1
 287 574 l 1,32,-1
 287 532 l 2,33,34
 287 523 287 523 296 512.5 c 128,-1,35
 305 502 305 502 319 502 c 2,36,-1
 344 502 l 1,37,-1
 344 388 l 1,38,-1
 284 388 l 2,39,40
 230 388 230 388 191 431 c 1,41,42
 151 471 151 471 151 532 c 2,43,-1
 151 687 l 1,44,-1
 236 687 l 1,45,46
 151 743 151 743 151 780 c 2,47,-1
 151 864 l 2,48,49
 151 904 151 904 190 929 c 1,50,51
 223 954 223 954 276 954 c 2,52,-1
 416 954 l 1,53,-1
 416 840 l 1,54,-1
 314 840 l 1,55,-1
 293 836 l 1,56,57
 288 832 288 832 288 825 c 2,58,-1
 288 785 l 2,59,60
 288 752 288 752 394 688 c 1,61,-1
 405 688 l 2,62,63
 441 688 441 688 472.5 675.5 c 128,-1,64
 504 663 504 663 524 636 c 128,-1,65
 544 609 544 609 544 581 c 2,66,-1
 544 426 l 2,67,68
 544 400 544 400 514 371 c 0,69,70
 489 348 489 348 386 285 c 1,71,72
 354 263 354 263 322 244 c 0,73,74
 299 230 299 230 290 225 c 1,75,-1
 290 162 l 2,76,77
 290 147 290 147 302 132 c 1,78,79
 318 118 318 118 334 118 c 2,80,-1
 464 118 l 2,81,82
 476 118 476 118 494 133 c 1,83,84
 510 152 510 152 510 168 c 2,85,-1
 510 224 l 1,86,-1
 645 224 l 1,87,-1
 645 161 l 2,88,89
 645 143 645 143 663 130 c 128,-1,90
 681 117 681 117 704 117 c 2,91,-1
 818 117 l 2,92,93
 830 117 830 117 847.5 133 c 128,-1,94
 865 149 865 149 865 168 c 2,95,-1
 865 263 l 2,96,97
 865 281 865 281 854 288.5 c 128,-1,98
 843 296 843 296 827 296 c 2,99,-1
 780 296 l 1,100,-1
 780 410 l 1,101,-1
 876 410 l 2,102,103
 929 410 929 410 965 370.5 c 128,-1,104
 1001 331 1001 331 1001 281 c 2,105,-1
 1002 140 l 2,0,1
EndSplineSet
EndChar

StartChar: auvowel
Encoding: 124 3220 118
Width: 960
Flags: W
LayerCount: 2
Fore
SplineSet
1027 508 m 1,0,-1
 705 508 l 2,1,2
 654 508 654 508 615 547.5 c 128,-1,3
 576 587 576 587 576 648 c 2,4,-1
 576 768 l 1,5,-1
 856 768 l 1,6,-1
 856 655 l 1,7,-1
 698 655 l 1,8,-1
 698 648 l 2,9,10
 698 643 698 643 701.5 638.5 c 128,-1,11
 705 634 705 634 706 632 c 0,12,13
 715 623 715 623 729 623 c 2,14,-1
 891 623 l 1,15,-1
 891 796 l 2,16,17
 891 815 891 815 875 829 c 128,-1,18
 859 843 859 843 836 843 c 2,19,-1
 563 843 l 1,20,21
 568 834 568 834 568 823 c 2,22,-1
 568 797 l 2,23,24
 568 762 568 762 546 737 c 1,25,26
 521 712 521 712 492 712 c 2,27,-1
 161 712 l 1,28,-1
 161 825 l 1,29,-1
 443 825 l 2,30,31
 451 825 451 825 454.5 829.5 c 128,-1,32
 458 834 458 834 459 836 c 128,-1,33
 460 838 460 838 461 840 c 1,34,35
 449 841 449 841 441 843 c 1,36,-1
 160 842 l 1,37,-1
 160 956 l 1,38,-1
 850 956 l 2,39,40
 897 956 897 956 937 940 c 1,41,42
 979 919 979 919 1001 890 c 0,43,44
 1012 874 1012 874 1019 857.5 c 128,-1,45
 1026 841 1026 841 1026 823 c 2,46,-1
 1027 508 l 1,0,-1
998 128 m 2,47,48
 998 103 998 103 990.5 82 c 128,-1,49
 983 61 983 61 968 40 c 1,50,51
 935 3 935 3 888 3 c 2,52,-1
 664 3 l 2,53,54
 631 3 631 3 603 24 c 1,55,56
 585 35 585 35 573 53 c 1,57,58
 569 45 569 45 561 37 c 0,59,60
 559 35 559 35 547 24 c 1,61,62
 521 5 521 5 496 5 c 2,63,-1
 309 6 l 2,64,65
 247 6 247 6 199 48.5 c 128,-1,66
 151 91 151 91 151 149 c 2,67,-1
 151 274 l 1,68,-1
 282 353 l 1,69,70
 329 385 329 385 345 396 c 0,71,72
 377 417 377 417 384 424 c 1,73,74
 407 442 407 442 407 461 c 2,75,-1
 407 558 l 2,76,77
 407 574 407 574 375 574 c 2,78,-1
 286 574 l 1,79,-1
 286 532 l 2,80,81
 286 523 286 523 295 512.5 c 128,-1,82
 304 502 304 502 318 502 c 2,83,-1
 357 502 l 1,84,-1
 357 388 l 1,85,-1
 280 388 l 2,86,87
 227 388 227 388 188 431 c 128,-1,88
 149 474 149 474 149 532 c 2,89,-1
 149 687 l 1,90,-1
 403 687 l 2,91,92
 439 687 439 687 472.5 673 c 128,-1,93
 506 659 506 659 521 636 c 1,94,95
 542 608 542 608 542 580 c 2,96,-1
 542 425 l 2,97,98
 542 403 542 403 520 382 c 1,99,100
 502 360 502 360 473 342 c 1,101,102
 450 324 450 324 375 278 c 1,103,-1
 287 222 l 1,104,-1
 287 159 l 2,105,106
 287 141 287 141 299 130 c 1,107,108
 311 115 311 115 332 115 c 2,109,-1
 476 115 l 2,110,111
 487 115 487 115 496.5 130 c 128,-1,112
 506 145 506 145 507 149.5 c 128,-1,113
 508 154 508 154 508 165 c 2,114,-1
 508 221 l 1,115,-1
 642 221 l 1,116,-1
 642 158 l 2,117,118
 642 144 642 144 654.5 129 c 128,-1,119
 667 114 667 114 688 114 c 2,120,-1
 802 114 l 2,121,122
 825 114 825 114 844 130 c 1,123,124
 863 152 863 152 863 164 c 2,125,-1
 863 259 l 2,126,127
 863 274 863 274 850.5 283 c 128,-1,128
 838 292 838 292 822 292 c 2,129,-1
 778 292 l 1,130,-1
 778 406 l 1,131,-1
 888 406 l 2,132,133
 916 406 916 406 933.5 400 c 128,-1,134
 951 394 951 394 967 378 c 1,135,136
 999 349 999 349 999 305 c 2,137,-1
 998 128 l 2,47,48
EndSplineSet
EndChar

StartChar: ka.base
Encoding: 126 -1 120
Width: 554
Flags: W
AnchorPoint: "s" 278 -62 basechar 0
LayerCount: 2
Fore
SplineSet
764 385 m 1,0,-1
 581 385 l 1,1,2
 603 370 603 370 619 355 c 128,-1,3
 635 340 635 340 653 321 c 1,4,5
 690 275 690 275 690 236 c 2,6,-1
 690 136 l 2,7,8
 690 83 690 83 653 47 c 128,-1,9
 616 11 616 11 570 7 c 1,10,-1
 300 6 l 2,11,12
 250 6 250 6 218 35 c 0,13,14
 199 51 199 51 192 67 c 128,-1,15
 185 83 185 83 185 106 c 2,16,-1
 185 225 l 2,17,18
 185 289 185 289 299 387 c 1,19,-1
 98 387 l 1,20,-1
 98 500 l 1,21,-1
 369 500 l 1,22,-1
 369 571 l 1,23,-1
 98 571 l 1,24,-1
 98 684 l 1,25,-1
 593 684 l 1,26,-1
 593 571 l 1,27,-1
 505 571 l 1,28,-1
 505 500 l 1,29,-1
 764 500 l 1,30,-1
 764 385 l 1,0,-1
556 162 m 1,31,-1
 556 222 l 2,32,33
 556 257 556 257 524 290 c 0,34,35
 506 309 506 309 486.5 325 c 128,-1,36
 467 341 467 341 439 355 c 1,37,38
 319 292 319 292 319 229 c 2,39,-1
 319 158 l 2,40,41
 319 144 319 144 330 129 c 1,42,43
 334 127 334 127 340 124.5 c 128,-1,44
 346 122 346 122 361 122 c 2,45,-1
 530 118 l 2,46,47
 536 118 536 118 545 127 c 1,48,49
 553 143 553 143 556 162 c 1,31,-1
EndSplineSet
EndChar

StartChar: ka.imathra
Encoding: 127 -1 121
Width: 651
Flags: W
AnchorPoint: "s" 270 -80 basechar 0
LayerCount: 2
Fore
SplineSet
695 386 m 1,0,-1
 560 386 l 1,1,2
 583 371 583 371 604 352 c 0,3,4
 619 338 619 338 640 315 c 1,5,6
 679 264 679 264 679 221 c 2,7,-1
 679 107 l 2,8,9
 679 86 679 86 671.5 68.5 c 128,-1,10
 664 51 664 51 648 35 c 1,11,12
 615 5 615 5 569 5 c 2,13,-1
 296 6 l 2,14,15
 246 6 246 6 209 35 c 1,16,17
 173 67 173 67 173 107 c 2,18,-1
 173 237 l 2,19,20
 173 255 173 255 184 273 c 0,21,22
 188 278 188 278 201 294.5 c 128,-1,23
 214 311 214 311 248 341.5 c 128,-1,24
 282 372 282 372 298 387 c 1,25,-1
 143 387 l 1,26,-1
 143 501 l 1,27,-1
 404 501 l 1,28,-1
 486 598 l 1,29,-1
 486 738 l 2,30,31
 486 740 486 740 484 742 c 128,-1,32
 482 744 482 744 481 745 c 1,33,-1
 421 745 l 1,34,-1
 421 698 l 1,35,-1
 425 691 l 1,36,-1
 439 686 l 1,37,-1
 464 686 l 1,38,-1
 464 573 l 1,39,-1
 397 573 l 2,40,41
 354 573 354 573 320 600 c 128,-1,42
 286 627 286 627 286 663 c 2,43,-1
 286 859 l 1,44,-1
 511 859 l 2,45,46
 558 859 558 859 590 832 c 128,-1,47
 622 805 622 805 622 758 c 2,48,-1
 621 576 l 1,49,-1
 557 501 l 1,50,-1
 695 501 l 1,51,-1
 695 386 l 1,0,-1
544 144 m 1,52,-1
 544 223 l 2,53,54
 544 259 544 259 424 351 c 1,55,56
 307 256 307 256 307 217 c 2,57,-1
 307 131 l 2,58,59
 307 124 307 124 315 118.5 c 128,-1,60
 323 113 323 113 332 113 c 2,61,-1
 523 113 l 2,62,63
 530 113 530 113 536 123 c 128,-1,64
 542 133 542 133 544 144 c 1,52,-1
EndSplineSet
LCarets2: 1 0
EndChar

StartChar: ka.sub
Encoding: 128 -1 122
Width: 172
Flags: W
AnchorPoint: "Sub" -192 290 mark 0
AnchorPoint: "Sub" 304 -402 basemark 0
LayerCount: 2
Fore
SplineSet
358 -154 m 1,0,-1
 251 -154 l 1,1,2
 306 -197 306 -197 306 -234 c 2,3,-1
 306 -312 l 2,4,5
 306 -351 306 -351 269 -383 c 1,6,7
 228 -411 228 -411 182 -411 c 2,8,-1
 10 -411 l 1,9,10
 -37 -407 -37 -407 -76 -375 c 128,-1,11
 -115 -343 -115 -343 -115 -299 c 2,12,-1
 -115 -255 l 2,13,14
 -115 -209 -115 -209 -54 -152 c 1,15,-1
 -177 -152 l 1,16,-1
 -177 -53 l 1,17,-1
 48 -53 l 1,18,-1
 113 14 l 1,19,-1
 162 65 l 1,20,21
 171 76 171 76 171 87 c 2,22,-1
 171 214 l 2,23,24
 171 240 171 240 103 266 c 1,25,-1
 188 334 l 1,26,27
 292 266 292 266 292 224 c 2,28,-1
 292 70 l 2,29,30
 292 59 292 59 286 48 c 128,-1,31
 280 37 280 37 266 21 c 1,32,-1
 185 -57 l 1,33,-1
 358 -57 l 1,34,-1
 358 -154 l 1,0,-1
186 -285 m 2,35,-1
 186 -238 l 2,36,37
 186 -229 186 -229 180 -219.5 c 128,-1,38
 174 -210 174 -210 160 -195 c 1,39,40
 137 -176 137 -176 91 -160 c 1,41,42
 52 -172 52 -172 30 -197.5 c 128,-1,43
 8 -223 8 -223 8 -253 c 2,44,-1
 8 -292 l 2,45,46
 8 -303 8 -303 16 -311 c 1,47,48
 31 -320 31 -320 47 -320 c 2,49,-1
 160 -320 l 2,50,51
 171 -320 171 -320 178.5 -309 c 128,-1,52
 186 -298 186 -298 186 -285 c 2,35,-1
EndSplineSet
LCarets2: 1 0
EndChar

StartChar: ka_rvocalicmatra.sub
Encoding: 129 -1 123
Width: 341
Flags: W
LayerCount: 2
Fore
SplineSet
697 -268 m 1,0,1
 697 -328 697 -328 657 -368 c 1,2,3
 618 -411 618 -411 554 -411 c 2,4,-1
 155 -409 l 2,5,6
 105 -409 105 -409 68 -375.5 c 128,-1,7
 31 -342 31 -342 31 -298 c 2,8,-1
 31 -111 l 1,9,-1
 152 -111 l 1,10,-1
 117 -89 l 1,11,12
 88 -64 88 -64 88 -42 c 2,13,-1
 88 51 l 2,14,15
 88 91 88 91 138 131 c 1,16,-1
 46 131 l 1,17,-1
 46 231 l 1,18,-1
 249 231 l 1,19,-1
 249 337 l 1,20,-1
 383 337 l 1,21,-1
 383 231 l 1,22,-1
 583 231 l 1,23,-1
 583 131 l 1,24,-1
 470 131 l 1,25,26
 484 125 484 125 496 113 c 1,27,28
 504 102 504 102 513 91 c 1,29,30
 525 72 525 72 525 53 c 2,31,-1
 525 -5 l 2,32,33
 525 -58 525 -58 485 -91 c 1,34,35
 446 -130 446 -130 390 -130 c 2,36,-1
 309 -130 l 1,37,-1
 309 -208 l 1,38,-1
 153 -208 l 1,39,-1
 153 -283 l 1,40,41
 157 -294 157 -294 161 -295 c 1,42,43
 177 -306 177 -306 188 -306 c 2,44,-1
 532 -306 l 2,45,46
 540 -306 540 -306 548 -288 c 1,47,48
 559 -270 559 -270 559 -242 c 2,49,-1
 559 24 l 2,50,51
 559 43 559 43 513 64 c 1,52,-1
 604 145 l 1,53,54
 627 133 627 133 642 122.5 c 128,-1,55
 657 112 657 112 669 97 c 1,56,57
 692 62 692 62 692 27 c 2,58,-1
 697 -268 l 1,0,1
399 9 m 1,59,-1
 399 53 l 2,60,61
 399 64 399 64 395 77 c 128,-1,62
 391 90 391 90 382 99 c 1,63,64
 370 119 370 119 340 130 c 1,65,-1
 263 130 l 1,66,67
 238 115 238 115 223 97 c 1,68,69
 219 90 219 90 214.5 79.5 c 128,-1,70
 210 69 210 69 210 57 c 2,71,-1
 210 -10 l 2,72,73
 210 -21 210 -21 217 -25 c 2,74,-1
 230 -33 l 1,75,-1
 384 -32 l 2,76,77
 389 -32 389 -32 395 -20.5 c 128,-1,78
 401 -9 401 -9 399 9 c 1,59,-1
EndSplineSet
EndChar

StartChar: kha
Encoding: 130 3222 124
Width: 981
Flags: W
LayerCount: 2
Fore
SplineSet
1019 113 m 2,0,1
 1019 71 1019 71 996 34 c 1,2,3
 964 -2 964 -2 932 -2 c 2,4,-1
 779 -2 l 2,5,6
 740 -2 740 -2 689 34 c 1,7,-1
 615 81 l 1,8,9
 607 63 607 63 596.5 50.5 c 128,-1,10
 586 38 586 38 568 26 c 0,11,12
 528 -2 528 -2 481 -2 c 2,13,-1
 237 -2 l 1,14,15
 219 0 219 0 200.5 6 c 128,-1,16
 182 12 182 12 165.5 23.5 c 128,-1,17
 149 35 149 35 140 51 c 128,-1,18
 131 67 131 67 131 83 c 2,19,-1
 131 214 l 2,20,21
 131 256 131 256 160 284 c 1,22,23
 193 309 193 309 233 309 c 2,24,-1
 440 309 l 2,25,26
 479 309 479 309 501 295 c 1,27,-1
 501 524 l 2,28,29
 501 542 501 542 493 557 c 1,30,31
 486 565 486 565 478 565 c 2,32,-1
 348 565 l 1,33,-1
 343 561 l 1,34,35
 339 553 339 553 339 532 c 2,36,-1
 339 422 l 1,37,-1
 202 422 l 1,38,-1
 202 571 l 2,39,40
 202 618 202 618 238 648 c 1,41,42
 268 677 268 677 326 677 c 2,43,-1
 505 677 l 2,44,45
 559 677 559 677 598 637.5 c 128,-1,46
 637 598 637 598 637 544 c 2,47,-1
 637 208 l 1,48,-1
 732 131 l 1,49,50
 761 106 761 106 796 106 c 2,51,-1
 861 106 l 2,52,53
 872 106 872 106 878 118.5 c 128,-1,54
 884 131 884 131 884 149 c 2,55,-1
 884 534 l 2,56,57
 884 549 884 549 873.5 556 c 128,-1,58
 863 563 863 563 847 563 c 2,59,-1
 714 563 l 1,60,-1
 714 675 l 1,61,-1
 894 675 l 2,62,63
 920 675 920 675 941.5 668 c 128,-1,64
 963 661 963 661 981 643 c 1,65,66
 1020 608 1020 608 1020 561 c 2,67,-1
 1019 113 l 2,0,1
497 137 m 1,68,-1
 497 165 l 1,69,70
 474 193 474 193 421 193 c 2,71,-1
 293 193 l 2,72,73
 277 193 277 193 269 189 c 1,74,-1
 262 187 l 1,75,-1
 262 125 l 1,76,77
 266 117 266 117 268 116 c 0,78,79
 277 109 277 109 286 109 c 2,80,-1
 459 109 l 2,81,82
 474 109 474 109 485 120 c 1,83,84
 496 128 496 128 497 137 c 1,68,-1
EndSplineSet
LCarets2: 1 0
EndChar

StartChar: kha.base
Encoding: 131 -1 125
Width: 812
Flags: W
LayerCount: 2
Fore
SplineSet
1021 113 m 2,0,1
 1021 67 1021 67 994.5 32.5 c 128,-1,2
 968 -2 968 -2 931 -2 c 1,3,-1
 929 0 l 1,4,-1
 778 0 l 2,5,6
 739 0 739 0 688 36 c 1,7,-1
 623 75 l 1,8,9
 614 46 614 46 575 23 c 128,-1,10
 536 0 536 0 483 0 c 2,11,-1
 248 0 l 2,12,13
 201 0 201 0 166 23 c 1,14,15
 150 35 150 35 141 51 c 128,-1,16
 132 67 132 67 132 83 c 2,17,-1
 132 214 l 2,18,19
 132 256 132 256 162.5 282.5 c 128,-1,20
 193 309 193 309 240 309 c 2,21,-1
 441 309 l 2,22,23
 480 309 480 309 502 295 c 1,24,-1
 502 538 l 2,25,26
 502 549 502 549 495 557 c 128,-1,27
 488 565 488 565 477 565 c 2,28,-1
 363 565 l 2,29,30
 352 565 352 565 345 560 c 1,31,32
 338 549 338 549 338 533 c 2,33,-1
 338 423 l 1,34,-1
 203 423 l 1,35,-1
 203 572 l 2,36,37
 203 619 203 619 239 649 c 1,38,39
 254 663 254 663 277.5 670.5 c 128,-1,40
 301 678 301 678 326 678 c 2,41,-1
 506 678 l 2,42,43
 560 678 560 678 598.5 639 c 128,-1,44
 637 600 637 600 637 544 c 2,45,-1
 637 207 l 1,46,-1
 732 146 l 1,47,48
 775 107 775 107 797 107 c 2,49,-1
 878 107 l 2,50,51
 886 107 886 107 886 118 c 2,52,-1
 886 463 l 2,53,54
 886 509 886 509 854 534 c 1,55,56
 821 563 821 563 777 563 c 2,57,-1
 717 563 l 1,58,-1
 717 675 l 1,59,-1
 844 675 l 1,60,61
 897 668 897 668 939 638 c 1,62,63
 979 605 979 605 1001 563 c 1,64,65
 1012 535 1012 535 1017.5 514 c 128,-1,66
 1023 493 1023 493 1023 464 c 2,67,-1
 1021 113 l 2,0,1
500 138 m 1,68,-1
 500 157 l 1,69,70
 458 193 458 193 404 193 c 2,71,-1
 280 193 l 2,72,73
 272 193 272 193 268 191 c 1,74,-1
 266 187 l 1,75,-1
 266 125 l 1,76,77
 268 117 268 117 270 116 c 0,78,79
 279 109 279 109 288 109 c 2,80,-1
 461 109 l 2,81,82
 473 109 473 109 485.5 118 c 128,-1,83
 498 127 498 127 500 138 c 1,68,-1
EndSplineSet
EndChar

StartChar: kha.imathra
Encoding: 132 -1 126
Width: 981
Flags: W
LayerCount: 2
Fore
SplineSet
1021 114 m 2,0,1
 1021 67 1021 67 994.5 32.5 c 128,-1,2
 968 -2 968 -2 931 -2 c 1,3,-1
 929 0 l 1,4,-1
 778 0 l 2,5,6
 739 0 739 0 688 36 c 1,7,-1
 614 82 l 1,8,9
 600 49 600 49 572 27 c 1,10,11
 532 1 532 1 492 1 c 2,12,-1
 248 1 l 2,13,14
 201 1 201 1 166 24 c 1,15,16
 150 36 150 36 141 52 c 128,-1,17
 132 68 132 68 132 84 c 2,18,-1
 132 217 l 2,19,20
 132 259 132 259 164 285 c 1,21,22
 192 311 192 311 241 311 c 2,23,-1
 442 311 l 2,24,25
 472 311 472 311 502 285 c 1,26,-1
 502 528 l 2,27,28
 502 544 502 544 491 558 c 0,29,30
 486 563 486 563 480 565.5 c 128,-1,31
 474 568 474 568 466 568 c 2,32,-1
 364 568 l 2,33,34
 356 568 356 568 347 561 c 1,35,36
 340 550 340 550 340 535 c 2,37,-1
 340 423 l 1,38,-1
 205 423 l 1,39,-1
 205 574 l 2,40,41
 205 623 205 623 241 651 c 1,42,43
 257 667 257 667 280 674 c 128,-1,44
 303 681 303 681 328 681 c 2,45,-1
 508 681 l 2,46,47
 562 681 562 681 600.5 642 c 128,-1,48
 639 603 639 603 639 546 c 2,49,-1
 639 211 l 1,50,-1
 718 147 l 1,51,52
 781 108 781 108 828 108 c 2,53,-1
 864 108 l 2,54,55
 873 108 873 108 880 115.5 c 128,-1,56
 887 123 887 123 887 132 c 2,57,-1
 887 624 l 2,58,59
 887 639 887 639 881 648 c 128,-1,60
 875 657 875 657 864 657 c 2,61,-1
 828 657 l 2,62,63
 816 657 816 657 812 656 c 1,64,-1
 811 651 l 1,65,-1
 810 632 l 1,66,67
 812 614 812 614 816 609.5 c 128,-1,68
 820 605 820 605 822.5 603 c 128,-1,69
 825 601 825 601 827 601 c 2,70,-1
 881 601 l 1,71,-1
 881 488 l 1,72,-1
 776 488 l 2,73,74
 734 488 734 488 704 520 c 1,75,76
 674 549 674 549 674 592 c 2,77,-1
 674 684 l 2,78,79
 674 723 674 723 709 748 c 128,-1,80
 744 773 744 773 793 773 c 2,81,-1
 907 773 l 2,82,83
 956 773 956 773 990 738 c 128,-1,84
 1024 703 1024 703 1024 652 c 2,85,-1
 1021 114 l 2,0,1
501 139 m 1,86,-1
 501 154 l 1,87,88
 452 194 452 194 412 194 c 2,89,-1
 291 194 l 2,90,91
 275 194 275 194 270 192 c 1,92,-1
 268 188 l 1,93,-1
 268 134 l 1,94,-1
 272 116 l 1,95,-1
 279 109 l 1,96,-1
 466 109 l 2,97,98
 477 109 477 109 490 118.5 c 128,-1,99
 503 128 503 128 501 139 c 1,86,-1
EndSplineSet
LCarets2: 1 0
EndChar

StartChar: kha.sub
Encoding: 133 -1 127
Width: 163
Flags: W
AnchorPoint: "Sub" -303 289 mark 0
AnchorPoint: "Sub" 329 -401 basemark 0
LayerCount: 2
Fore
SplineSet
333 -232 m 2,0,1
 333 -261 333 -261 321.5 -288 c 128,-1,2
 310 -315 310 -315 289 -336 c 0,3,4
 243 -382 243 -382 179 -382 c 2,5,-1
 110 -382 l 2,6,7
 92 -382 92 -382 31 -361 c 1,8,9
 -37 -408 -37 -408 -77 -408 c 2,10,-1
 -228 -408 l 2,11,12
 -247 -408 -247 -408 -266.5 -401 c 128,-1,13
 -286 -394 -286 -394 -301 -383 c 0,14,15
 -331 -360 -331 -360 -331 -324 c 2,16,-1
 -331 -266 l 2,17,18
 -331 -227 -331 -227 -301 -198 c 0,19,20
 -287 -184 -287 -184 -269 -178 c 128,-1,21
 -251 -172 -251 -172 -228 -172 c 2,22,-1
 -114 -172 l 2,23,24
 -92 -172 -92 -172 -83 -179 c 2,25,-1
 -29 -214 l 1,26,-1
 -29 -153 l 2,27,28
 -29 -135 -29 -135 -41 -120 c 1,29,30
 -56 -108 -56 -108 -72 -108 c 1,31,-1
 -72 -159 l 1,32,-1
 -192 -159 l 1,33,-1
 -192 -13 l 1,34,-1
 -45 -13 l 2,35,36
 16 -13 16 -13 55.5 -55.5 c 128,-1,37
 95 -98 95 -98 95 -154 c 2,38,-1
 95 -282 l 1,39,40
 109 -290 109 -290 123 -290 c 2,41,-1
 180 -290 l 2,42,43
 194 -290 194 -290 201 -275 c 1,44,45
 213 -253 213 -253 213 -230 c 2,46,-1
 213 183 l 2,47,48
 213 195 213 195 198.5 206.5 c 128,-1,49
 184 218 184 218 156 218 c 2,50,-1
 89 218 l 1,51,-1
 89 322 l 1,52,-1
 165 322 l 2,53,54
 232 322 232 322 283 286 c 1,55,56
 333 244 333 244 333 190 c 2,57,-1
 333 -232 l 2,0,1
-71 -309 m 1,58,59
 -110 -281 -110 -281 -146 -281 c 2,60,-1
 -209 -281 l 2,61,62
 -213 -281 -213 -281 -215.5 -281.5 c 128,-1,63
 -218 -282 -218 -282 -219 -283 c 1,64,-1
 -219 -315 l 1,65,-1
 -208 -317 l 1,66,-1
 -92 -317 l 1,67,-1
 -71 -309 l 1,58,59
EndSplineSet
LCarets2: 1 0
EndChar

StartChar: ga.base
Encoding: 135 -1 129
Width: 578
Flags: W
LayerCount: 2
Fore
SplineSet
788 0 m 1,0,-1
 654 0 l 1,1,-1
 654 482 l 2,2,3
 654 493 654 493 650 503 c 128,-1,4
 646 513 646 513 639 524 c 0,5,6
 624 545 624 545 599 557 c 0,7,8
 585 564 585 564 574 565 c 128,-1,9
 563 566 563 566 544 566 c 2,10,-1
 437 566 l 2,11,12
 393 566 393 566 364.5 541.5 c 128,-1,13
 336 517 336 517 336 480 c 2,14,-1
 336 -2 l 1,15,-1
 199 -2 l 1,16,-1
 199 486 l 2,17,18
 199 530 199 530 236 566 c 1,19,-1
 199 566 l 1,20,-1
 199 679 l 1,21,-1
 611 679 l 1,22,23
 690 663 690 663 741 607 c 1,24,25
 790 547 790 547 790 480 c 2,26,-1
 788 0 l 1,0,-1
EndSplineSet
EndChar

StartChar: ga.imathra
Encoding: 136 -1 130
Width: 765
Flags: W
LayerCount: 2
Fore
SplineSet
803 0 m 1,0,-1
 668 0 l 1,1,-1
 668 487 l 2,2,3
 668 523 668 523 646.5 548 c 128,-1,4
 625 573 625 573 592 573 c 2,5,-1
 406 573 l 2,6,7
 373 573 373 573 355 551 c 1,8,9
 334 529 334 529 334 493 c 2,10,-1
 334 1 l 1,11,-1
 197 1 l 1,12,-1
 197 488 l 2,13,14
 197 543 197 543 222 579 c 1,15,16
 238 609 238 609 267 630 c 1,17,18
 241 639 241 639 222 661 c 1,19,20
 210 673 210 673 204 689 c 128,-1,21
 198 705 198 705 198 723 c 2,22,-1
 198 790 l 2,23,24
 198 829 198 829 233 858 c 1,25,26
 267 884 267 884 316 884 c 2,27,-1
 507 884 l 2,28,29
 589 884 589 884 656 843 c 128,-1,30
 723 802 723 802 765 728 c 1,31,32
 804 650 804 650 804 568 c 2,33,-1
 803 0 l 1,0,-1
657 663 m 1,34,35
 641 702 641 702 604 731 c 1,36,37
 548 770 548 770 474 770 c 2,38,-1
 374 770 l 2,39,40
 349 770 349 770 342 768 c 128,-1,41
 335 766 335 766 335 755 c 2,42,-1
 335 723 l 2,43,44
 335 705 335 705 340.5 695.5 c 128,-1,45
 346 686 346 686 350 685 c 1,46,-1
 593 685 l 2,47,48
 632 685 632 685 657 663 c 1,34,35
EndSplineSet
LCarets2: 1 0
EndChar

StartChar: ga.sub
Encoding: 137 -1 131
Width: 99
Flags: W
AnchorPoint: "Sub" -212 -58 mark 0
AnchorPoint: "Sub" 206 -418 basemark 0
LayerCount: 2
Fore
SplineSet
215 -410 m 1,0,-1
 94 -410 l 1,1,-1
 94 -193 l 2,2,3
 94 -185 94 -185 90 -178 c 128,-1,4
 86 -171 86 -171 79 -164 c 1,5,6
 65 -153 65 -153 47 -153 c 2,7,-1
 -38 -153 l 2,8,9
 -59 -153 -59 -153 -72 -162 c 1,10,11
 -83 -174 -83 -174 -83 -192 c 2,12,-1
 -83 -409 l 1,13,-1
 -206 -409 l 1,14,-1
 -206 -192 l 2,15,16
 -206 -132 -206 -132 -163 -93 c 1,17,18
 -124 -54 -124 -54 -62 -54 c 2,19,-1
 61 -54 l 2,20,21
 123 -54 123 -54 170 -89 c 0,22,23
 192 -105 192 -105 203 -128.5 c 128,-1,24
 214 -152 214 -152 214 -178 c 2,25,-1
 215 -410 l 1,0,-1
EndSplineSet
LCarets2: 1 0
EndChar

StartChar: gha.base
Encoding: 139 -1 133
Width: 1019
Flags: W
LayerCount: 2
Fore
SplineSet
1243 569 m 1,0,-1
 933 569 l 1,1,2
 965 536 965 536 970 488 c 1,3,4
 1016 418 1016 418 1052 418 c 1,5,6
 1070 419 1070 419 1081 428 c 1,7,8
 1092 442 1092 442 1092 446 c 2,9,-1
 1092 549 l 1,10,-1
 1226 549 l 1,11,-1
 1226 460 l 2,12,13
 1226 439 1226 439 1222 421.5 c 128,-1,14
 1218 404 1218 404 1210 382 c 1,15,16
 1192 346 1192 346 1166 325 c 1,17,18
 1154 317 1154 317 1140 311 c 128,-1,19
 1126 305 1126 305 1104 305 c 2,20,-1
 1047 306 l 2,21,22
 1007 306 1007 306 974 331 c 1,23,-1
 973 142 l 2,24,25
 973 82 973 82 936 42 c 1,26,27
 900 -2 900 -2 849 -2 c 2,28,-1
 677 -2 l 2,29,30
 633 -2 633 -2 603 28 c 0,31,32
 595 36 595 36 582.5 48.5 c 128,-1,33
 570 61 570 61 565 73 c 1,34,35
 553 48 553 48 528 28 c 1,36,37
 499 -2 499 -2 460 -2 c 2,38,-1
 280 -1 l 2,39,40
 234 -1 234 -1 202 36 c 128,-1,41
 170 73 170 73 170 123 c 2,42,-1
 170 418 l 1,43,-1
 337 418 l 2,44,45
 369 418 369 418 391 410.5 c 128,-1,46
 413 403 413 403 434 382 c 1,47,48
 477 345 477 345 477 289 c 2,49,-1
 477 253 l 1,50,-1
 340 253 l 1,51,-1
 340 283 l 2,52,53
 340 291 340 291 334.5 298 c 128,-1,54
 329 305 329 305 315 305 c 2,55,-1
 304 305 l 1,56,-1
 304 152 l 2,57,58
 304 136 304 136 312 125 c 1,59,60
 324 113 324 113 329 113 c 2,61,-1
 443 113 l 2,62,63
 462 113 462 113 476 139 c 1,64,65
 495 169 495 169 495 205 c 2,66,-1
 495 284 l 1,67,-1
 630 284 l 1,68,-1
 630 205 l 2,69,70
 630 176 630 176 651.5 144 c 128,-1,71
 673 112 673 112 689 112 c 2,72,-1
 803 112 l 2,73,74
 812 112 812 112 826 123 c 1,75,76
 835 134 835 134 835 152 c 2,77,-1
 835 471 l 2,78,79
 835 511 835 511 798 541 c 128,-1,80
 761 571 761 571 710 571 c 2,81,-1
 162 571 l 1,82,-1
 162 684 l 1,83,-1
 1245 684 l 1,84,-1
 1243 569 l 1,0,-1
628 398 m 1,85,-1
 493 398 l 1,86,-1
 493 525 l 1,87,-1
 628 525 l 1,88,-1
 628 398 l 1,85,-1
628 -141 m 1,89,-1
 493 -141 l 1,90,-1
 493 12 l 1,91,-1
 628 12 l 1,92,-1
 628 -141 l 1,89,-1
EndSplineSet
EndChar

StartChar: gha.imathra
Encoding: 140 -1 134
Width: 1213
Flags: W
LayerCount: 2
Fore
SplineSet
628 597 m 2,0,1
 628 546 628 546 595 514 c 1,2,3
 563 481 563 481 519 481 c 2,4,-1
 322 481 l 1,5,-1
 322 594 l 1,6,-1
 473 594 l 1,7,8
 482 596 482 596 487 603 c 1,9,10
 492 614 492 614 492 623 c 2,11,-1
 492 737 l 2,12,13
 492 753 492 753 487 764 c 1,14,15
 482 771 482 771 474 771 c 2,16,-1
 423 771 l 2,17,18
 415 771 415 771 415 764 c 2,19,-1
 415 736 l 1,20,-1
 416 729 l 1,21,-1
 423 725 l 1,22,-1
 486 725 l 1,23,-1
 486 611 l 1,24,-1
 381 611 l 2,25,26
 342 611 342 611 310 640 c 1,27,28
 280 665 280 665 280 704 c 2,29,-1
 280 778 l 2,30,31
 280 803 280 803 287.5 821 c 128,-1,32
 295 839 295 839 314 854 c 1,33,34
 344 884 344 884 394 884 c 2,35,-1
 531 884 l 2,36,37
 574 884 574 884 600 854 c 1,38,39
 628 826 628 826 628 780 c 2,40,-1
 628 597 l 2,0,1
1256 460 m 1,41,42
 1256 403 1256 403 1224 366 c 128,-1,43
 1192 329 1192 329 1145 329 c 2,44,-1
 1046 329 l 2,45,46
 1007 329 1007 329 972 357 c 1,47,-1
 971 141 l 2,48,49
 971 81 971 81 934 39 c 1,50,51
 899 -4 899 -4 846 -4 c 1,52,-1
 846 15 l 1,53,-1
 848 -4 l 1,54,-1
 676 -3 l 2,55,56
 634 -3 634 -3 599 20 c 0,57,58
 574 36 574 36 562 59 c 1,59,60
 548 36 548 36 526 18 c 1,61,62
 491 -5 491 -5 454 -5 c 2,63,-1
 277 -4 l 2,64,65
 231 -4 231 -4 199 28 c 128,-1,66
 167 60 167 60 167 106 c 2,67,-1
 167 416 l 1,68,-1
 335 416 l 2,69,70
 395 416 395 416 432 383 c 1,71,72
 475 348 475 348 475 299 c 2,73,-1
 475 249 l 1,74,-1
 338 249 l 1,75,-1
 338 293 l 1,76,-1
 331 298 l 1,77,78
 326 300 326 300 311 300 c 2,79,-1
 303 300 l 1,80,-1
 303 146 l 2,81,82
 303 130 303 130 311 118.5 c 128,-1,83
 319 107 319 107 326 107 c 2,84,-1
 440 107 l 2,85,86
 462 107 462 107 476 133 c 1,87,88
 495 161 495 161 495 200 c 2,89,-1
 495 281 l 1,90,-1
 630 281 l 1,91,-1
 629 200 l 2,92,93
 629 171 629 171 652 139 c 1,94,95
 673 107 673 107 689 107 c 2,96,-1
 803 107 l 2,97,98
 815 107 815 107 825.5 120 c 128,-1,99
 836 133 836 133 836 147 c 2,100,-1
 836 526 l 2,101,102
 836 541 836 541 822 557 c 1,103,104
 811 566 811 566 789 566 c 2,105,-1
 698 566 l 1,106,-1
 698 680 l 1,107,-1
 824 680 l 2,108,109
 867 680 867 680 899.5 655.5 c 128,-1,110
 932 631 932 631 951 595 c 1,111,112
 970 553 970 553 970 511 c 1,113,114
 1020 440 1020 440 1047 440 c 2,115,-1
 1098 440 l 2,116,117
 1103 440 1103 440 1110 451.5 c 128,-1,118
 1117 463 1117 463 1117 484 c 2,119,-1
 1117 680 l 1,120,-1
 1251 680 l 1,121,-1
 1256 460 l 1,41,42
623 -171 m 1,122,-1
 488 -171 l 1,123,-1
 488 -18 l 1,124,-1
 623 -18 l 1,125,-1
 623 -171 l 1,122,-1
EndSplineSet
LCarets2: 1 0
EndChar

StartChar: gha.sub
Encoding: 141 -1 135
Width: 210
Flags: W
AnchorPoint: "Sub" -390 121 mark 0
AnchorPoint: "Sub" 392 -392 basemark 0
LayerCount: 2
Fore
SplineSet
429 -37 m 2,0,1
 429 -109 429 -109 358 -152 c 1,2,-1
 358 -233 l 2,3,4
 358 -255 358 -255 350.5 -274.5 c 128,-1,5
 343 -294 343 -294 328 -312 c 1,6,7
 295 -347 295 -347 248 -347 c 2,8,-1
 96 -347 l 2,9,10
 59 -347 59 -347 24 -324 c 0,11,12
 -4 -306 -4 -306 -25 -277 c 1,13,14
 -36 -292 -36 -292 -49.5 -306 c 128,-1,15
 -63 -320 -63 -320 -78 -328 c 1,16,17
 -118 -356 -118 -356 -158 -356 c 2,18,-1
 -307 -356 l 2,19,20
 -353 -356 -353 -356 -382 -327 c 1,21,22
 -415 -298 -415 -298 -415 -259 c 2,23,-1
 -415 -168 l 2,24,25
 -415 -120 -415 -120 -383 -94 c 1,26,27
 -353 -64 -353 -64 -307 -64 c 2,28,-1
 -152 -64 l 1,29,-1
 -152 -162 l 1,30,-1
 -271 -162 l 2,31,32
 -282 -162 -282 -162 -289 -168 c 128,-1,33
 -296 -174 -296 -174 -296 -183 c 2,34,-1
 -296 -241 l 1,35,-1
 -292 -252 l 1,36,37
 -281 -257 -281 -257 -279 -257 c 2,38,-1
 -149 -257 l 2,39,40
 -134 -257 -134 -257 -109 -228 c 128,-1,41
 -84 -199 -84 -199 -84 -176 c 2,42,-1
 -84 -129 l 1,43,-1
 39 -129 l 1,44,-1
 39 -183 l 2,45,46
 39 -202 39 -202 61 -223 c 1,47,48
 72 -231 72 -231 83.5 -238 c 128,-1,49
 95 -245 95 -245 106 -245 c 2,50,-1
 226 -245 l 2,51,52
 238 -245 238 -245 238 -229 c 2,53,-1
 238 -187 l 1,54,-1
 125 -187 l 1,55,-1
 125 -88 l 1,56,-1
 263 -88 l 2,57,58
 282 -88 282 -88 296.5 -71 c 128,-1,59
 311 -54 311 -54 311 -35 c 2,60,-1
 311 39 l 2,61,62
 311 46 311 46 253 82 c 1,63,-1
 323 161 l 1,64,65
 430 96 430 96 430 45 c 2,66,-1
 429 -37 l 2,0,1
36 -411 m 1,67,-1
 -87 -411 l 1,68,-1
 -87 -336 l 1,69,-1
 -26 -268 l 1,70,-1
 34 -336 l 1,71,-1
 36 -411 l 1,67,-1
EndSplineSet
LCarets2: 1 0
EndChar

StartChar: nga
Encoding: 142 3225 136
Width: 915
Flags: W
LayerCount: 2
Fore
SplineSet
958 116 m 1,0,1
 958 69 958 69 925.5 35 c 128,-1,2
 893 1 893 1 847 1 c 2,3,-1
 646 2 l 2,4,5
 611 2 611 2 579 23 c 1,6,7
 560 37 560 37 548 58 c 1,8,9
 546 51 546 51 538.5 40.5 c 128,-1,10
 531 30 531 30 523 23 c 0,11,12
 497 1 497 1 465 1 c 2,13,-1
 272 2 l 2,14,15
 228 2 228 2 188 31 c 1,16,17
 153 61 153 61 153 103 c 2,18,-1
 153 250 l 1,19,-1
 367 416 l 2,20,21
 383 428 383 428 383 460 c 2,22,-1
 383 539 l 2,23,24
 383 550 383 550 371 559 c 1,25,26
 359 566 359 566 337 566 c 2,27,-1
 291 566 l 1,28,-1
 291 538 l 2,29,30
 291 523 291 523 297 517.5 c 128,-1,31
 303 512 303 512 304 511 c 128,-1,32
 305 510 305 510 306 509 c 1,33,-1
 332 509 l 1,34,-1
 332 396 l 1,35,-1
 249 397 l 2,36,37
 210 397 210 397 181.5 429 c 128,-1,38
 153 461 153 461 153 507 c 2,39,-1
 153 680 l 1,40,-1
 358 680 l 2,41,42
 409 680 409 680 448 661 c 0,43,44
 478 647 478 647 489 619 c 1,45,46
 554 680 554 680 628 680 c 2,47,-1
 843 680 l 2,48,49
 882 680 882 680 905 657 c 1,50,51
 917 642 917 642 923 627 c 128,-1,52
 929 612 929 612 929 594 c 2,53,-1
 929 503 l 1,54,-1
 794 503 l 1,55,-1
 794 547 l 2,56,57
 794 555 794 555 789.5 561 c 128,-1,58
 785 567 785 567 770 567 c 2,59,-1
 661 567 l 2,60,61
 632 567 632 567 611 562.5 c 128,-1,62
 590 558 590 558 569 546 c 0,63,64
 523 521 523 521 502 485 c 1,65,-1
 502 431 l 2,66,67
 502 360 502 360 453 330 c 1,68,-1
 287 189 l 1,69,-1
 287 140 l 2,70,71
 287 132 287 132 298 124 c 128,-1,72
 309 116 309 116 327 116 c 2,73,-1
 418 116 l 2,74,75
 441 116 441 116 460.5 129.5 c 128,-1,76
 480 143 480 143 480 158 c 2,77,-1
 480 219 l 1,78,-1
 615 219 l 1,79,-1
 615 158 l 2,80,81
 615 142 615 142 629 130 c 1,82,83
 648 116 648 116 674 116 c 2,84,-1
 802 116 l 2,85,86
 811 116 811 116 813 118.5 c 128,-1,87
 815 121 815 121 817 123.5 c 128,-1,88
 819 126 819 126 819 131 c 2,89,-1
 819 264 l 2,90,91
 819 293 819 293 811 293 c 2,92,-1
 720 293 l 1,93,-1
 720 405 l 1,94,-1
 844 405 l 2,95,96
 877 405 877 405 900 390 c 1,97,98
 926 378 926 378 940 355 c 1,99,100
 954 327 954 327 954 299 c 2,101,-1
 958 116 l 1,0,1
610 255 m 1,102,-1
 475 255 l 1,103,-1
 475 382 l 1,104,-1
 610 382 l 1,105,-1
 610 255 l 1,102,-1
EndSplineSet
LCarets2: 1 0
EndChar

StartChar: nga.sub
Encoding: 143 -1 137
Width: 196
Flags: W
AnchorPoint: "Sub" -384 -30 mark 0
AnchorPoint: "Sub" 402 -401 basemark 0
LayerCount: 2
Fore
SplineSet
77 -228 m 1,0,-1
 -43 -228 l 1,1,-1
 -43 -144 l 1,2,-1
 77 -144 l 1,3,-1
 77 -228 l 1,0,-1
401 -314 m 2,4,5
 401 -354 401 -354 372 -379 c 1,6,7
 343 -408 343 -408 304 -408 c 2,8,-1
 104 -408 l 2,9,10
 88 -408 88 -408 74 -403.5 c 128,-1,11
 60 -399 60 -399 46 -389.5 c 128,-1,12
 32 -380 32 -380 20 -364 c 1,13,14
 13 -376 13 -376 -8 -390 c 0,15,16
 -37 -409 -37 -409 -66 -409 c 2,17,-1
 -281 -409 l 2,18,19
 -303 -409 -303 -409 -321 -403 c 128,-1,20
 -339 -397 -339 -397 -357 -385 c 1,21,22
 -390 -360 -390 -360 -390 -323 c 2,23,-1
 -390 -252 l 2,24,25
 -390 -217 -390 -217 -363 -195 c 128,-1,26
 -336 -173 -336 -173 -294 -173 c 2,27,-1
 -223 -173 l 1,28,-1
 -219 -169 l 1,29,-1
 -219 -146 l 1,30,-1
 -223 -142 l 1,31,-1
 -376 -142 l 1,32,-1
 -376 -46 l 1,33,-1
 -179 -46 l 2,34,35
 -149 -46 -149 -46 -131 -58 c 0,36,37
 -122 -63 -122 -63 -115 -75 c 1,38,39
 -86 -45 -86 -45 -38 -45 c 2,40,-1
 134 -45 l 2,41,42
 180 -45 180 -45 212 -68 c 128,-1,43
 244 -91 244 -91 244 -130 c 2,44,-1
 244 -192 l 1,45,-1
 124 -192 l 1,46,-1
 124 -143 l 2,47,48
 124 -132 124 -132 95 -132 c 2,49,-1
 -19 -132 l 2,50,51
 -44 -132 -44 -132 -64 -148 c 1,52,53
 -75 -155 -75 -155 -83 -164.5 c 128,-1,54
 -91 -174 -91 -174 -96 -186 c 1,55,-1
 -96 -218 l 2,56,57
 -96 -236 -96 -236 -119.5 -252 c 128,-1,58
 -143 -268 -143 -268 -172 -268 c 2,59,-1
 -251 -268 l 2,60,61
 -266 -268 -266 -268 -266 -275 c 2,62,-1
 -266 -300 l 1,63,-1
 -262 -305 l 1,64,-1
 -251 -310 l 1,65,-1
 -86 -310 l 2,66,67
 -67 -310 -67 -310 -52.5 -300.5 c 128,-1,68
 -38 -291 -38 -291 -38 -282 c 2,69,-1
 -38 -235 l 1,70,-1
 82 -235 l 1,71,-1
 82 -275 l 2,72,73
 82 -293 82 -293 94 -301 c 1,74,75
 112 -316 112 -316 127 -316 c 2,76,-1
 265 -316 l 2,77,78
 276 -316 276 -316 280.5 -308.5 c 128,-1,79
 285 -301 285 -301 285.5 -299 c 128,-1,80
 286 -297 286 -297 287 -296 c 1,81,-1
 287 -222 l 1,82,-1
 403 -222 l 1,83,-1
 401 -314 l 2,4,5
EndSplineSet
LCarets2: 1 0
EndChar

StartChar: ca.base
Encoding: 145 -1 139
Width: 819
Flags: W
LayerCount: 2
Fore
SplineSet
1033 331 m 1,0,-1
 934 331 l 1,1,2
 948 313 948 313 948 290 c 2,3,-1
 948 117 l 2,4,5
 948 68 948 68 912 36 c 1,6,7
 877 1 877 1 828 1 c 2,8,-1
 621 2 l 2,9,10
 589 2 589 2 564 18 c 0,11,12
 552 26 552 26 544 38 c 1,13,14
 536 26 536 26 521 18 c 1,15,16
 493 0 493 0 457 0 c 2,17,-1
 280 1 l 2,18,19
 227 1 227 1 194 37 c 1,20,21
 155 74 155 74 155 123 c 2,22,-1
 155 274 l 1,23,-1
 371 407 l 1,24,-1
 371 534 l 2,25,26
 371 549 371 549 360 558 c 128,-1,27
 349 567 349 567 330 567 c 2,28,-1
 293 567 l 1,29,-1
 292 535 l 1,30,31
 293 524 293 524 302 516.5 c 128,-1,32
 311 509 311 509 316 509 c 2,33,-1
 349 509 l 1,34,-1
 349 396 l 1,35,-1
 258 397 l 2,36,37
 216 397 216 397 185.5 427 c 128,-1,38
 155 457 155 457 155 499 c 2,39,-1
 155 680 l 1,40,-1
 387 680 l 2,41,42
 437 680 437 680 472 644.5 c 128,-1,43
 507 609 507 609 507 560 c 2,44,-1
 507 343 l 1,45,-1
 292 202 l 1,46,-1
 291 156 l 1,47,48
 292 137 292 137 301 124.5 c 128,-1,49
 310 112 310 112 325 112 c 2,50,-1
 444 112 l 2,51,52
 462 112 462 112 473.5 121.5 c 128,-1,53
 485 131 485 131 485 142 c 2,54,-1
 485 216 l 1,55,-1
 620 216 l 1,56,-1
 620 155 l 2,57,58
 620 137 620 137 629 124.5 c 128,-1,59
 638 112 638 112 650 112 c 2,60,-1
 770 112 l 2,61,62
 789 112 789 112 800.5 121.5 c 128,-1,63
 812 131 812 131 812 142 c 2,64,-1
 812 282 l 2,65,66
 812 304 812 304 797 315 c 1,67,68
 785 329 785 329 766 329 c 2,69,-1
 614 329 l 1,70,-1
 614 442 l 1,71,-1
 790 442 l 1,72,-1
 790 566 l 1,73,-1
 614 566 l 1,74,-1
 614 679 l 1,75,-1
 857 679 l 1,76,-1
 924 580 l 1,77,-1
 925 442 l 1,78,-1
 1034 442 l 1,79,-1
 1033 331 l 1,0,-1
EndSplineSet
EndChar

StartChar: ca.imathra
Encoding: 146 -1 140
Width: 996
Flags: W
LayerCount: 2
Fore
SplineSet
1038 333 m 1,0,-1
 939 333 l 1,1,2
 953 315 953 315 953 290 c 2,3,-1
 953 118 l 2,4,5
 953 72 953 72 926 36.5 c 128,-1,6
 899 1 899 1 862 1 c 2,7,-1
 626 2 l 2,8,9
 596 2 596 2 573 20 c 1,10,-1
 552 39 l 1,11,12
 545 30 545 30 529 21 c 0,13,14
 499 2 499 2 466 2 c 2,15,-1
 273 2 l 2,16,17
 229 2 229 2 196.5 31 c 128,-1,18
 164 60 164 60 164 99 c 2,19,-1
 164 292 l 1,20,-1
 379 412 l 1,21,-1
 379 539 l 2,22,23
 379 554 379 554 366.5 563 c 128,-1,24
 354 572 354 572 338 572 c 2,25,-1
 301 572 l 1,26,-1
 301 539 l 2,27,28
 301 528 301 528 306 521 c 1,29,30
 317 513 317 513 324 513 c 2,31,-1
 371 513 l 1,32,-1
 371 400 l 1,33,-1
 266 400 l 2,34,35
 224 400 224 400 196 429 c 1,36,37
 164 455 164 455 164 491 c 2,38,-1
 164 685 l 1,39,-1
 404 685 l 2,40,41
 453 685 453 685 483.5 649 c 128,-1,42
 514 613 514 613 514 570 c 2,43,-1
 514 346 l 1,44,-1
 299 219 l 1,45,-1
 298 147 l 1,46,47
 300 133 300 133 309 124 c 128,-1,48
 318 115 318 115 330 115 c 2,49,-1
 436 115 l 2,50,51
 458 115 458 115 474.5 124.5 c 128,-1,52
 491 134 491 134 491 145 c 2,53,-1
 491 247 l 1,54,-1
 626 247 l 1,55,-1
 626 158 l 2,56,57
 626 140 626 140 636.5 127.5 c 128,-1,58
 647 115 647 115 656 115 c 2,59,-1
 791 115 l 2,60,61
 802 115 802 115 809 124 c 1,62,63
 818 133 818 133 818 144 c 2,64,-1
 818 285 l 2,65,66
 818 300 818 300 807 314 c 1,67,68
 792 329 792 329 774 333 c 1,69,-1
 618 332 l 1,70,-1
 618 445 l 1,71,-1
 781 445 l 1,72,73
 818 463 818 463 818 489 c 2,74,-1
 818 661 l 2,75,76
 818 663 818 663 809 662.5 c 128,-1,77
 800 662 800 662 791 662 c 2,78,-1
 749 662 l 1,79,80
 753 653 753 653 753 645 c 2,81,-1
 753 622 l 1,82,83
 755 614 755 614 757 613 c 0,84,85
 768 606 768 606 773 606 c 2,86,-1
 823 606 l 1,87,-1
 823 493 l 1,88,-1
 710 493 l 2,89,90
 674 493 674 493 645 520 c 128,-1,91
 616 547 616 547 616 583 c 2,92,-1
 616 689 l 2,93,94
 616 729 616 729 643 753.5 c 128,-1,95
 670 778 670 778 710 778 c 2,96,-1
 845 778 l 2,97,98
 891 778 891 778 919 746 c 1,99,100
 951 716 951 716 951 670 c 2,101,-1
 951 503 l 2,102,103
 951 473 951 473 935 448 c 1,104,-1
 1037 448 l 1,105,-1
 1038 333 l 1,0,-1
EndSplineSet
LCarets2: 1 0
EndChar

StartChar: ca.sub
Encoding: 147 -1 141
Width: 196
Flags: W
AnchorPoint: "Sub" -388 214 mark 0
AnchorPoint: "Sub" 354 -401 basemark 0
LayerCount: 2
Fore
SplineSet
401 -158 m 1,0,-1
 338 -158 l 1,1,2
 357 -181 357 -181 357 -216 c 2,3,-1
 357 -308 l 2,4,5
 357 -348 357 -348 328 -376.5 c 128,-1,6
 299 -405 299 -405 262 -405 c 2,7,-1
 118 -405 l 2,8,9
 75 -405 75 -405 38 -383 c 1,10,11
 16 -368 16 -368 4 -346 c 1,12,13
 -10 -371 -10 -371 -32 -385 c 1,14,15
 -48 -393 -48 -393 -69 -399 c 128,-1,16
 -90 -405 -90 -405 -108 -405 c 2,17,-1
 -262 -405 l 1,18,19
 -294 -407 -294 -407 -312 -402.5 c 128,-1,20
 -330 -398 -330 -398 -355 -387 c 1,21,22
 -371 -378 -371 -378 -380 -363 c 128,-1,23
 -389 -348 -389 -348 -389 -333 c 2,24,-1
 -389 -247 l 2,25,26
 -389 -211 -389 -211 -364 -188 c 1,27,28
 -334 -167 -334 -167 -302 -167 c 2,29,-1
 -231 -167 l 2,30,31
 -222 -167 -222 -167 -211 -160 c 1,32,-1
 -206 -155 l 1,33,-1
 -206 -137 l 1,34,35
 -217 -135 -217 -135 -224 -135 c 2,36,-1
 -377 -135 l 1,37,-1
 -377 -37 l 1,38,-1
 -191 -37 l 2,39,40
 -149 -37 -149 -37 -116 -52 c 1,41,42
 -101 -64 -101 -64 -92 -76.5 c 128,-1,43
 -83 -89 -83 -89 -83 -103 c 2,44,-1
 -83 -189 l 2,45,46
 -83 -222 -83 -222 -115 -251 c 1,47,48
 -148 -277 -148 -277 -191 -277 c 2,49,-1
 -253 -277 l 1,50,-1
 -265 -279 l 1,51,-1
 -267 -284 l 1,52,-1
 -267 -298 l 1,53,-1
 -263 -302 l 1,54,-1
 -252 -307 l 1,55,-1
 -121 -307 l 2,56,57
 -96 -307 -96 -307 -75 -289 c 128,-1,58
 -54 -271 -54 -271 -54 -245 c 2,59,-1
 -54 -189 l 1,60,-1
 67 -189 l 1,61,-1
 67 -253 l 2,62,63
 67 -268 67 -268 85.5 -287.5 c 128,-1,64
 104 -307 104 -307 120 -307 c 2,65,-1
 212 -307 l 2,66,67
 216 -307 216 -307 230 -300 c 1,68,69
 238 -292 238 -292 238 -278 c 2,70,-1
 238 -199 l 2,71,72
 238 -183 238 -183 225.5 -170.5 c 128,-1,73
 213 -158 213 -158 191 -158 c 2,74,-1
 53 -158 l 1,75,-1
 53 -59 l 1,76,-1
 143 -59 l 1,77,78
 208 1 208 1 208 44 c 2,79,-1
 208 231 l 1,80,-1
 332 231 l 1,81,-1
 331 44 l 2,82,83
 331 -9 331 -9 285 -59 c 1,84,-1
 402 -59 l 1,85,-1
 401 -158 l 1,0,-1
EndSplineSet
LCarets2: 1 0
EndChar

StartChar: cha.base
Encoding: 149 -1 143
Width: 729
Flags: W
LayerCount: 2
Fore
SplineSet
942 121 m 2,0,1
 942 70 942 70 905 34 c 1,2,3
 869 -3 869 -3 818 -3 c 2,4,-1
 674 -3 l 2,5,6
 637 -3 637 -3 607 19 c 1,7,8
 589 30 589 30 575 48 c 1,9,10
 566 32 566 32 547 20 c 1,11,12
 517 -2 517 -2 485 -2 c 2,13,-1
 329 -1 l 2,14,15
 278 -1 278 -1 237.5 31 c 128,-1,16
 197 63 197 63 197 114 c 2,17,-1
 197 548 l 2,18,19
 197 587 197 587 215 619.5 c 128,-1,20
 233 652 233 652 263 664 c 1,21,22
 291 682 291 682 328 682 c 2,23,-1
 545 682 l 1,24,-1
 545 499 l 2,25,26
 545 450 545 450 514.5 416 c 128,-1,27
 484 382 484 382 444 382 c 2,28,-1
 353 382 l 1,29,-1
 353 496 l 1,30,-1
 390 496 l 1,31,32
 398 498 398 498 403.5 505.5 c 128,-1,33
 409 513 409 513 409 525 c 2,34,-1
 409 567 l 1,35,-1
 370 567 l 2,36,37
 351 567 351 567 342 559 c 1,38,39
 333 548 333 548 333 534 c 2,40,-1
 333 147 l 2,41,42
 333 132 333 132 342.5 120.5 c 128,-1,43
 352 109 352 109 363 109 c 2,44,-1
 458 109 l 2,45,46
 469 109 469 109 477 112.5 c 128,-1,47
 485 116 485 116 497 124 c 1,48,49
 511 143 511 143 511 151 c 2,50,-1
 511 228 l 1,51,-1
 645 228 l 1,52,-1
 645 151 l 2,53,54
 645 139 645 139 657.5 124 c 128,-1,55
 670 109 670 109 691 109 c 2,56,-1
 776 109 l 2,57,58
 790 109 790 109 800.5 123 c 128,-1,59
 811 137 811 137 811 152 c 2,60,-1
 811 527 l 2,61,62
 811 556 811 556 762 567 c 1,63,-1
 610 566 l 1,64,-1
 610 679 l 1,65,-1
 776 679 l 1,66,67
 848 671 848 671 897 629 c 1,68,69
 946 583 946 583 946 527 c 2,70,-1
 942 121 l 2,0,1
644 -164 m 1,71,-1
 510 -164 l 1,72,-1
 510 -12 l 1,73,-1
 644 -12 l 1,74,-1
 644 -164 l 1,71,-1
EndSplineSet
EndChar

StartChar: cha.imathra
Encoding: 150 -1 144
Width: 901
Flags: W
LayerCount: 2
Fore
SplineSet
942 123 m 2,0,1
 942 72 942 72 909.5 34.5 c 128,-1,2
 877 -3 877 -3 830 -3 c 2,3,-1
 674 -3 l 2,4,5
 637 -3 637 -3 607 19 c 1,6,7
 586 31 586 31 575 50 c 1,8,9
 570 39 570 39 564.5 33.5 c 128,-1,10
 559 28 559 28 547 17 c 1,11,12
 519 -3 519 -3 484 -3 c 2,13,-1
 328 -2 l 2,14,15
 277 -2 277 -2 236.5 31.5 c 128,-1,16
 196 65 196 65 196 115 c 2,17,-1
 196 550 l 2,18,19
 196 586 196 586 212 618 c 0,20,21
 221 634 221 634 232.5 645.5 c 128,-1,22
 244 657 244 657 260 665 c 1,23,24
 288 683 288 683 325 683 c 2,25,-1
 542 683 l 1,26,-1
 542 500 l 2,27,28
 542 450 542 450 511.5 416 c 128,-1,29
 481 382 481 382 441 382 c 2,30,-1
 350 382 l 1,31,-1
 350 498 l 1,32,-1
 387 498 l 1,33,-1
 401 502 l 1,34,35
 403 504 403 504 403.5 506 c 128,-1,36
 404 508 404 508 405 512 c 1,37,-1
 405 568 l 1,38,-1
 366 568 l 2,39,40
 348 568 348 568 337 561 c 1,41,42
 328 550 328 550 328 535 c 2,43,-1
 328 148 l 2,44,45
 328 130 328 130 340.5 119.5 c 128,-1,46
 353 109 353 109 367 109 c 2,47,-1
 453 109 l 2,48,49
 462 109 462 109 470 112.5 c 128,-1,50
 478 116 478 116 492 123 c 1,51,52
 506 142 506 142 506 151 c 2,53,-1
 506 227 l 1,54,-1
 640 227 l 1,55,-1
 640 151 l 2,56,57
 640 137 640 137 653 122.5 c 128,-1,58
 666 108 666 108 685 108 c 2,59,-1
 770 108 l 2,60,61
 784 108 784 108 794.5 121 c 128,-1,62
 805 134 805 134 805 150 c 2,63,-1
 805 641 l 2,64,65
 805 653 805 653 797 663.5 c 128,-1,66
 789 674 789 674 781 674 c 2,67,-1
 738 674 l 2,68,69
 726 674 726 674 719 669 c 1,70,71
 714 661 714 661 714 654 c 2,72,-1
 714 614 l 2,73,74
 714 606 714 606 719 598 c 1,75,76
 730 590 730 590 738 590 c 2,77,-1
 782 590 l 1,78,-1
 782 477 l 1,79,-1
 701 478 l 2,80,81
 650 478 650 478 614 507 c 1,82,83
 577 540 577 540 577 587 c 2,84,-1
 577 680 l 2,85,86
 577 727 577 727 609 755 c 1,87,88
 641 787 641 787 687 787 c 2,89,-1
 825 787 l 2,90,91
 857 787 857 787 885 769 c 1,92,93
 900 757 900 757 909.5 746 c 128,-1,94
 919 735 919 735 926 720 c 128,-1,95
 933 705 933 705 937 689 c 128,-1,96
 941 673 941 673 941 655 c 2,97,-1
 942 123 l 2,0,1
639 -166 m 1,98,-1
 505 -166 l 1,99,-1
 505 -13 l 1,100,-1
 639 -13 l 1,101,-1
 639 -166 l 1,98,-1
EndSplineSet
LCarets2: 1 0
EndChar

StartChar: cha.sub
Encoding: 151 -1 145
Width: 156
Flags: W
AnchorPoint: "Sub" -310 146 mark 0
AnchorPoint: "Sub" 325 -372 basemark 0
LayerCount: 2
Fore
SplineSet
333 -232 m 2,0,1
 333 -293 333 -293 306 -336 c 128,-1,2
 279 -379 279 -379 242 -379 c 2,3,-1
 117 -379 l 2,4,5
 77 -379 77 -379 50 -358 c 1,6,7
 30 -346 30 -346 21 -328 c 1,8,9
 12 -344 12 -344 -6 -358 c 0,10,11
 -33 -379 -33 -379 -68 -379 c 2,12,-1
 -212 -378 l 1,13,-1
 -217 -377 l 1,14,15
 -257 -377 -257 -377 -287 -344 c 1,16,17
 -316 -308 -316 -308 -316 -269 c 2,18,-1
 -316 -163 l 2,19,20
 -316 -119 -316 -119 -287 -86 c 1,21,22
 -257 -56 -257 -56 -208 -56 c 2,23,-1
 -77 -56 l 1,24,-1
 -77 -168 l 1,25,-1
 -180 -168 l 1,26,27
 -191 -170 -191 -170 -193.5 -174 c 128,-1,28
 -196 -178 -196 -178 -196 -192 c 2,29,-1
 -196 -249 l 2,30,31
 -196 -263 -196 -263 -190 -267.5 c 128,-1,32
 -184 -272 -184 -272 -180 -272 c 2,33,-1
 -78 -272 l 2,34,35
 -62 -272 -62 -272 -53 -258 c 1,36,37
 -39 -243 -39 -243 -39 -217 c 2,38,-1
 -39 -175 l 1,39,-1
 75 -175 l 1,40,-1
 75 -222 l 2,41,42
 75 -245 75 -245 86.5 -258 c 128,-1,43
 98 -271 98 -271 114 -271 c 2,44,-1
 185 -271 l 2,45,46
 200 -271 200 -271 214 -260 c 1,47,48
 226 -245 226 -245 226 -230 c 2,49,-1
 226 -25 l 2,50,51
 226 24 226 24 199 58 c 128,-1,52
 172 92 172 92 116 103 c 1,53,-1
 158 201 l 1,54,55
 225 186 225 186 254 157 c 1,56,57
 294 125 294 125 315 75 c 128,-1,58
 336 25 336 25 336 -26 c 2,59,-1
 333 -232 l 2,0,1
79 -441 m 1,60,-1
 -42 -441 l 1,61,-1
 -42 -383 l 1,62,-1
 20 -312 l 1,63,-1
 77 -383 l 1,64,-1
 79 -441 l 1,60,-1
EndSplineSet
LCarets2: 1 0
EndChar

StartChar: ja
Encoding: 152 3228 146
Width: 928
Flags: W
LayerCount: 2
Fore
SplineSet
971 270 m 1,0,-1
 970 116 l 2,1,2
 970 87 970 87 955 59 c 1,3,4
 950 47 950 47 937.5 36 c 128,-1,5
 925 25 925 25 916 18 c 1,6,7
 901 12 901 12 888 7.5 c 128,-1,8
 875 3 875 3 861 3 c 2,9,-1
 642 3 l 2,10,11
 613 3 613 3 585 24 c 1,12,13
 571 33 571 33 563 47 c 1,14,15
 558 35 558 35 544 26 c 1,16,17
 523 4 523 4 491 4 c 2,18,-1
 270 5 l 2,19,20
 226 5 226 5 186 34 c 1,21,22
 151 64 151 64 151 106 c 2,23,-1
 151 279 l 1,24,-1
 380 393 l 1,25,26
 409 416 409 416 409 437 c 2,27,-1
 409 529 l 2,28,29
 409 545 409 545 394 557.5 c 128,-1,30
 379 570 379 570 357 570 c 2,31,-1
 303 570 l 1,32,-1
 303 523 l 2,33,34
 303 519 303 519 335 519 c 2,35,-1
 374 519 l 1,36,-1
 374 398 l 1,37,-1
 278 399 l 2,38,39
 231 399 231 399 201 429 c 1,40,41
 169 457 169 457 169 500 c 2,42,-1
 169 681 l 1,43,-1
 402 681 l 2,44,45
 439 681 439 681 472 670 c 1,46,47
 509 652 509 652 523 631 c 1,48,49
 545 609 545 609 545 580 c 1,50,51
 580 537 580 537 615 537 c 2,52,-1
 759 537 l 2,53,54
 764 537 764 537 768 539.5 c 128,-1,55
 772 542 772 542 775.5 544.5 c 128,-1,56
 779 547 779 547 779.5 549 c 128,-1,57
 780 551 780 551 781 552 c 1,58,-1
 781 574 l 1,59,60
 774 581 774 581 770 581 c 2,61,-1
 738 581 l 1,62,-1
 738 694 l 1,63,-1
 799 694 l 2,64,65
 831 694 831 694 859 680 c 128,-1,66
 887 666 887 666 898 643 c 1,67,68
 916 620 916 620 916 588 c 2,69,-1
 916 528 l 2,70,71
 916 508 916 508 908.5 490.5 c 128,-1,72
 901 473 901 473 885 457 c 1,73,74
 852 427 852 427 806 427 c 2,75,-1
 629 427 l 2,76,77
 589 427 589 427 546 455 c 1,78,-1
 546 405 l 2,79,80
 546 380 546 380 533.5 358 c 128,-1,81
 521 336 521 336 499 318 c 1,82,-1
 289 215 l 1,83,-1
 289 157 l 2,84,85
 289 139 289 139 302 129 c 128,-1,86
 315 119 315 119 329 119 c 2,87,-1
 457 119 l 2,88,89
 468 119 468 119 482 131.5 c 128,-1,90
 496 144 496 144 496 162 c 2,91,-1
 496 212 l 1,92,-1
 631 212 l 1,93,-1
 631 169 l 2,94,95
 631 154 631 154 646 136 c 1,96,97
 665 120 665 120 684 120 c 2,98,-1
 790 120 l 2,99,100
 809 120 809 120 820 134 c 1,101,102
 836 150 836 150 836 169 c 2,103,-1
 836 255 l 2,104,105
 836 266 836 266 825 274 c 128,-1,106
 814 282 814 282 798 282 c 2,107,-1
 723 282 l 1,108,-1
 723 395 l 1,109,-1
 871 395 l 2,110,111
 912 395 912 395 942.5 358 c 128,-1,112
 973 321 973 321 971 270 c 1,0,-1
EndSplineSet
LCarets2: 1 0
EndChar

StartChar: ja.base
Encoding: 153 -1 147
Width: 756
Flags: W
LayerCount: 2
Fore
SplineSet
972 130 m 2,0,1
 972 81 972 81 935 40.5 c 128,-1,2
 898 0 898 0 847 0 c 2,3,-1
 637 1 l 2,4,5
 609 1 609 1 584 20 c 0,6,7
 569 32 569 32 562 44 c 1,8,9
 554 30 554 30 539 19 c 0,10,11
 512 -2 512 -2 476 -2 c 2,12,-1
 268 -1 l 2,13,14
 222 -1 222 -1 186.5 29 c 128,-1,15
 151 59 151 59 151 101 c 2,16,-1
 151 274 l 1,17,-1
 361 387 l 1,18,19
 410 427 410 427 410 457 c 2,20,-1
 410 522 l 2,21,22
 410 538 410 538 398 553 c 1,23,24
 387 562 387 562 369 562 c 2,25,-1
 304 562 l 1,26,-1
 304 541 l 2,27,28
 304 530 304 530 309 521 c 1,29,30
 314 517 314 517 316 515 c 128,-1,31
 318 513 318 513 320 513 c 2,32,-1
 359 513 l 1,33,-1
 359 392 l 1,34,-1
 277 393 l 2,35,36
 234 393 234 393 200.5 422 c 128,-1,37
 167 451 167 451 167 494 c 2,38,-1
 167 675 l 1,39,-1
 398 675 l 2,40,41
 435 675 435 675 468.5 660.5 c 128,-1,42
 502 646 502 646 524 616 c 1,43,44
 545 591 545 591 545 559 c 1,45,46
 575 531 575 531 596 531 c 2,47,-1
 734 531 l 2,48,49
 736 531 736 531 744 538 c 128,-1,50
 752 545 752 545 752 556 c 2,51,-1
 752 563 l 1,52,-1
 594 563 l 1,53,-1
 594 676 l 1,54,-1
 764 676 l 2,55,56
 818 676 818 676 852 647 c 128,-1,57
 886 618 886 618 886 575 c 2,58,-1
 886 522 l 2,59,60
 886 482 886 482 852 451.5 c 128,-1,61
 818 421 818 421 774 421 c 2,62,-1
 623 421 l 2,63,64
 583 421 583 421 543 449 c 1,65,-1
 543 413 l 2,66,67
 543 376 543 376 480 326 c 1,68,-1
 286 209 l 1,69,-1
 286 151 l 2,70,71
 286 137 286 137 295.5 124.5 c 128,-1,72
 305 112 305 112 323 112 c 2,73,-1
 451 112 l 2,74,75
 465 112 465 112 480 124 c 1,76,77
 492 139 492 139 492 154 c 2,78,-1
 492 203 l 1,79,-1
 627 203 l 1,80,-1
 627 161 l 2,81,82
 627 140 627 140 638.5 125.5 c 128,-1,83
 650 111 650 111 664 111 c 2,84,-1
 787 111 l 2,85,86
 805 111 805 111 820 123 c 1,87,88
 834 139 834 139 834 153 c 2,89,-1
 834 253 l 2,90,91
 834 260 834 260 823.5 267 c 128,-1,92
 813 274 813 274 792 274 c 2,93,-1
 720 274 l 1,94,-1
 720 386 l 1,95,-1
 858 386 l 2,96,97
 908 386 908 386 937 356 c 1,98,99
 969 328 969 328 969 281 c 2,100,-1
 972 130 l 2,0,1
EndSplineSet
EndChar

StartChar: ja.imathra
Encoding: 154 -1 148
Width: 939
Flags: W
LayerCount: 2
Fore
SplineSet
981 117 m 2,0,1
 981 68 981 68 943.5 34 c 128,-1,2
 906 0 906 0 856 0 c 2,3,-1
 632 1 l 2,4,5
 600 1 600 1 579 20 c 1,6,7
 567 27 567 27 558 43 c 1,8,9
 550 28 550 28 539 20 c 1,10,11
 516 -1 516 -1 486 -1 c 2,12,-1
 278 -1 l 2,13,14
 253 -1 253 -1 229.5 8 c 128,-1,15
 206 17 206 17 187 33 c 0,16,17
 150 66 150 66 150 115 c 2,18,-1
 150 261 l 1,19,-1
 387 401 l 1,20,21
 406 422 406 422 406 445 c 2,22,-1
 406 534 l 2,23,24
 406 548 406 548 398 559 c 1,25,26
 387 567 387 567 375 567 c 2,27,-1
 300 567 l 1,28,-1
 299 535 l 1,29,30
 303 523 303 523 305 521 c 128,-1,31
 307 519 307 519 309.5 518 c 128,-1,32
 312 517 312 517 317 517 c 2,33,-1
 356 517 l 1,34,-1
 356 396 l 1,35,-1
 274 397 l 2,36,37
 228 397 228 397 198 427 c 1,38,39
 165 455 165 455 165 498 c 2,40,-1
 165 681 l 1,41,-1
 395 681 l 2,42,43
 456 681 456 681 497 656 c 128,-1,44
 538 631 538 631 542 595 c 1,45,46
 595 570 595 570 646 570 c 2,47,-1
 679 570 l 1,48,-1
 679 686 l 2,49,50
 679 730 679 730 709 759 c 0,51,52
 723 773 723 773 744.5 780 c 128,-1,53
 766 787 766 787 787 787 c 2,54,-1
 858 787 l 2,55,56
 907 787 907 787 938.5 753 c 128,-1,57
 970 719 970 719 970 672 c 2,58,-1
 970 566 l 2,59,60
 970 517 970 517 931 485 c 1,61,62
 898 449 898 449 845 449 c 2,63,-1
 663 449 l 2,64,65
 599 449 599 449 541 471 c 1,66,-1
 541 407 l 2,67,68
 541 361 541 361 508 340 c 1,69,-1
 284 210 l 1,70,-1
 284 142 l 2,71,72
 284 131 284 131 293 123 c 1,73,74
 300 112 300 112 315 112 c 2,75,-1
 449 112 l 2,76,77
 457 112 457 112 464 116 c 128,-1,78
 471 120 471 120 480.5 126.5 c 128,-1,79
 490 133 490 133 490 149 c 2,80,-1
 490 203 l 1,81,-1
 625 203 l 1,82,-1
 625 161 l 2,83,84
 625 138 625 138 637.5 124.5 c 128,-1,85
 650 111 650 111 661 111 c 2,86,-1
 805 111 l 2,87,88
 817 111 817 111 833 125 c 1,89,90
 845 140 845 140 845 154 c 2,91,-1
 845 242 l 2,92,93
 845 257 845 257 831 266.5 c 128,-1,94
 817 276 817 276 798 276 c 2,95,-1
 717 276 l 1,96,-1
 717 389 l 1,97,-1
 855 389 l 2,98,99
 892 389 892 389 913 378 c 128,-1,100
 934 367 934 367 943 359.5 c 128,-1,101
 952 352 952 352 960 337 c 1,102,103
 979 312 979 312 979 283 c 2,104,-1
 981 117 l 2,0,1
844 595 m 2,105,-1
 844 660 l 2,106,107
 844 675 844 675 830 675 c 2,108,-1
 812 675 l 1,109,-1
 798 671 l 2,110,111
 796 670 796 670 795 661 c 1,112,-1
 795 563 l 1,113,-1
 827 563 l 2,114,115
 831 563 831 563 839 571 c 1,116,117
 844 580 844 580 844 595 c 2,105,-1
EndSplineSet
LCarets2: 1 0
EndChar

StartChar: ja.sub
Encoding: 155 -1 149
Width: 189
Flags: W
AnchorPoint: "Sub" -356 32 mark 0
AnchorPoint: "Sub" 378 -410 basemark 0
LayerCount: 2
Fore
SplineSet
385 -120 m 1,0,1
 385 -160 385 -160 356 -185 c 1,2,3
 327 -214 327 -214 288 -214 c 2,4,-1
 73 -214 l 2,5,6
 -5 -214 -5 -214 -98 -135 c 1,7,-1
 -47 -64 l 1,8,9
 58 -118 58 -118 64 -118 c 2,10,-1
 236 -118 l 2,11,12
 245 -118 245 -118 256 -110 c 1,13,14
 260 -109 260 -109 261 -105.5 c 128,-1,15
 262 -102 262 -102 262 -101 c 2,16,-1
 262 -64 l 2,17,18
 262 -52 262 -52 227 -27 c 1,19,-1
 299 40 l 1,20,21
 383 -14 383 -14 383 -64 c 1,22,-1
 385 -120 l 1,0,1
394 -302 m 1,23,24
 394 -345 394 -345 366 -375 c 1,25,26
 341 -410 341 -410 297 -410 c 2,27,-1
 125 -410 l 2,28,29
 91 -410 91 -410 56 -389 c 1,30,31
 45 -381 45 -381 38 -374 c 128,-1,32
 31 -367 31 -367 26 -358 c 1,33,34
 -10 -411 -10 -411 -70 -411 c 2,35,-1
 -271 -411 l 2,36,37
 -314 -411 -314 -411 -350 -388 c 0,38,39
 -364 -380 -364 -380 -371 -369 c 0,40,41
 -383 -351 -383 -351 -383 -329 c 2,42,-1
 -383 -261 l 2,43,44
 -383 -221 -383 -221 -358 -200 c 1,45,46
 -335 -175 -335 -175 -296 -175 c 2,47,-1
 -225 -175 l 2,48,49
 -218 -175 -218 -175 -213 -170 c 1,50,-1
 -208 -163 l 1,51,-1
 -208 -147 l 1,52,-1
 -216 -145 l 1,53,-1
 -370 -145 l 1,54,-1
 -370 -39 l 1,55,-1
 -188 -39 l 2,56,57
 -148 -39 -148 -39 -116 -61 c 1,58,59
 -86 -89 -86 -89 -86 -121 c 2,60,-1
 -86 -203 l 2,61,62
 -86 -231 -86 -231 -113.5 -252.5 c 128,-1,63
 -141 -274 -141 -274 -174 -274 c 2,64,-1
 -245 -274 l 2,65,66
 -263 -274 -263 -274 -263 -279 c 2,67,-1
 -263 -305 l 1,68,-1
 -259 -310 l 2,69,70
 -254 -315 -254 -315 -246 -315 c 2,71,-1
 -90 -315 l 2,72,73
 -75 -315 -75 -315 -55 -300 c 1,74,75
 -39 -285 -39 -285 -39 -266 c 2,76,-1
 -39 -226 l 1,77,-1
 84 -226 l 1,78,-1
 84 -266 l 2,79,80
 84 -285 84 -285 102 -300 c 128,-1,81
 120 -315 120 -315 138 -315 c 2,82,-1
 254 -315 l 1,83,84
 262 -310 262 -310 264.5 -309 c 128,-1,85
 267 -308 267 -308 269 -301 c 1,86,-1
 269 -226 l 1,87,-1
 390 -226 l 1,88,-1
 394 -302 l 1,23,24
EndSplineSet
LCarets2: 1 0
EndChar

